<svg id="Layer_1" data-name="Layer 1" xmlns="http://www.w3.org/2000/svg" width="151.97" height="87.22" viewBox="0 0 151.97 87.22"><defs><style>.cls-1{fill:#3a3a3a;}</style></defs><path class="cls-1" d="M5.86,49.48A7.09,7.09,0,0,1,3,43.68a11.17,11.17,0,0,1,1-4.61,8.33,8.33,0,0,1,1.08-2c1.63-.4,3.41-.76,5.32-1.08A99.54,99.54,0,0,1,21.84,34.7V32.91q0-6.64-1.62-9.16a5.49,5.49,0,0,0-5-2.51,6.87,6.87,0,0,0-2.16.3l-.83.3v9l-.78.18a13.42,13.42,0,0,1-1.62.12,4.45,4.45,0,0,1-3.26-1.22,4.42,4.42,0,0,1-1.23-3.27A5.57,5.57,0,0,1,8.17,22Q10.95,20,16.45,20a18.15,18.15,0,0,1,8.05,1.65,12,12,0,0,1,5.15,4.55,12.6,12.6,0,0,1,1.76,6.67V49.06L35,50v.9H29.62a7.07,7.07,0,0,1-5.57-2.22,6.2,6.2,0,0,1-1.31-2.27,13.07,13.07,0,0,1-2,2.69,9.07,9.07,0,0,1-6.7,2.69C10.51,51.75,7.78,51,5.86,49.48Zm14.6-2.21a15.39,15.39,0,0,0,1.38-2.4V36.2a44.51,44.51,0,0,0-5.27.3c-1.23.16-2.07.26-2.51.3a11.53,11.53,0,0,0-.6,1.79,17.56,17.56,0,0,0-.6,4.49,9.53,9.53,0,0,0,1,5,3,3,0,0,0,2.57,1.61A5,5,0,0,0,20.46,47.27Z"/><path class="cls-1" d="M38.59,50l3.59-.9V22.74l-3.59-.9v-.9H44a7.09,7.09,0,0,1,5.56,2.27,8,8,0,0,1,1.32,2.22,11.19,11.19,0,0,1,2-2.69,9.09,9.09,0,0,1,6.7-2.7,12.67,12.67,0,0,1,6,1.41,11.06,11.06,0,0,1,4.16,3.68,8.63,8.63,0,0,1,1.49,4.79V49.06l3.59.9v.9H67q-5.39,0-5.38-5.39V29.92a10.33,10.33,0,0,0-1.35-5.78,3.81,3.81,0,0,0-3.14-2,5.1,5.1,0,0,0-4.07,2.39,9.58,9.58,0,0,0-1.31,2.39V49.06l3.59.9v.9H38.59Z"/><path class="cls-1" d="M78.38,50l3.59-.9V22.74l-3.59-.9v-.9h5.39a7.1,7.1,0,0,1,5.56,2.27,8,8,0,0,1,1.32,2.22,10.93,10.93,0,0,1,2-2.69,9.09,9.09,0,0,1,6.7-2.7,12.6,12.6,0,0,1,6,1.41,10.91,10.91,0,0,1,4.16,3.68,8.56,8.56,0,0,1,1.5,4.79V49.06l3.59.9v.9H106.8q-5.39,0-5.38-5.39V29.92a10.33,10.33,0,0,0-1.35-5.78,3.83,3.83,0,0,0-3.14-2,5.1,5.1,0,0,0-4.07,2.39,9.93,9.93,0,0,0-1.32,2.39V49.06l3.59.9v.9H78.38Z"/><path class="cls-1" d="M121.64,49.48a7.06,7.06,0,0,1-2.87-5.8,11.32,11.32,0,0,1,1-4.61,8.33,8.33,0,0,1,1.08-2c1.64-.4,3.41-.76,5.33-1.08a99.15,99.15,0,0,1,11.42-1.32V32.91c0-4.43-.53-7.48-1.61-9.16a5.5,5.5,0,0,0-5-2.51,6.84,6.84,0,0,0-2.15.3l-.84.3v9l-.78.18a13.28,13.28,0,0,1-1.61.12,4.22,4.22,0,0,1-4.49-4.49A5.58,5.58,0,0,1,123.94,22Q126.73,20,132.23,20a18.21,18.21,0,0,1,8.05,1.65,11.92,11.92,0,0,1,5.14,4.55,12.52,12.52,0,0,1,1.77,6.67V49.06l3.59.9v.9h-5.39a7,7,0,0,1-5.56-2.22,6.21,6.21,0,0,1-1.32-2.27,13.41,13.41,0,0,1-2,2.69,9.08,9.08,0,0,1-6.7,2.69C126.29,51.75,123.55,51,121.64,49.48Zm14.6-2.21a14.67,14.67,0,0,0,1.37-2.4V36.2a44.34,44.34,0,0,0-5.26.3c-1.24.16-2.08.26-2.51.3a11.53,11.53,0,0,0-.6,1.79,17.56,17.56,0,0,0-.6,4.49,9.53,9.53,0,0,0,1,5,3,3,0,0,0,2.57,1.61A5.06,5.06,0,0,0,136.24,47.27Z"/><path class="cls-1" d="M7.21,83.73l1.68-.42V65.44L7.21,65V64.6H9.72a3.3,3.3,0,0,1,2.6,1.06,3.87,3.87,0,0,1,.62,1,4.36,4.36,0,0,1,.92-1.26A4.24,4.24,0,0,1,17,64.18a5.16,5.16,0,0,1,2.93.85,5.76,5.76,0,0,1,2,2.52,9.76,9.76,0,0,1,.75,4,8.1,8.1,0,0,1-1.66,5.49A5.62,5.62,0,0,1,16.57,79a4.77,4.77,0,0,1-2.35-.55,4.05,4.05,0,0,1-.86-.56v5.44l1.67.42v.42H7.21Zm10.1-7A13.7,13.7,0,0,0,18,71.58a14.34,14.34,0,0,0-.6-5c-.4-.94-.89-1.41-1.49-1.41A2.37,2.37,0,0,0,14,66.28a4.2,4.2,0,0,0-.61,1.11V77a6.16,6.16,0,0,0,.61.56,2.51,2.51,0,0,0,1.48.56A2.05,2.05,0,0,0,17.31,76.75Z"/><path class="cls-1" d="M26.57,77.92a3.28,3.28,0,0,1-1.34-2.71,5.19,5.19,0,0,1,.47-2.15,4.3,4.3,0,0,1,.5-.92c.77-.18,1.6-.35,2.49-.5A46.87,46.87,0,0,1,34,71v-.83a8.6,8.6,0,0,0-.75-4.28A2.56,2.56,0,0,0,31,64.74a3.26,3.26,0,0,0-1,.14l-.39.14v4.19l-.37.08a5.73,5.73,0,0,1-.75.06,2,2,0,0,1-2.1-2.1,2.6,2.6,0,0,1,1.3-2.17,6.83,6.83,0,0,1,3.87-.9,8.55,8.55,0,0,1,3.76.77,5.6,5.6,0,0,1,2.4,2.12,5.88,5.88,0,0,1,.82,3.12v7.54l1.68.42v.42H37.66a3.29,3.29,0,0,1-2.6-1,3,3,0,0,1-.62-1.06,5.83,5.83,0,0,1-.92,1.26A4.24,4.24,0,0,1,30.39,79,6,6,0,0,1,26.57,77.92Zm6.81-1A6.43,6.43,0,0,0,34,75.77v-4a21.4,21.4,0,0,0-2.45.14c-.58.08-1,.12-1.18.14a7.42,7.42,0,0,0-.28.84,8.5,8.5,0,0,0-.27,2.09,4.4,4.4,0,0,0,.47,2.32,1.39,1.39,0,0,0,1.2.76A2.37,2.37,0,0,0,33.38,76.89ZM31.51,63.2,32.63,59h3.63L32.49,63.2Z"/><path class="cls-1" d="M41.85,78.15l1.67-.42V59.85l-1.67-.42V59h3.63A2.22,2.22,0,0,1,48,61.53v16.2l1.68.42v.42H41.85Z"/><path class="cls-1" d="M54.81,78.23a4.56,4.56,0,0,1-1.09-.78,3.81,3.81,0,0,1-1,1,5.87,5.87,0,0,1-.56.31h-.7V74H52.6a7.86,7.86,0,0,0,1.06,2.18,4.38,4.38,0,0,0,3.69,2.15,2.44,2.44,0,0,0,1.77-.58,2.18,2.18,0,0,0,.6-1.66,1.89,1.89,0,0,0-.82-1.55A19.51,19.51,0,0,0,56.31,73a26.61,26.61,0,0,1-2.44-1.35,5.86,5.86,0,0,1-1.59-1.51A3.55,3.55,0,0,1,51.62,68a3.22,3.22,0,0,1,1.44-2.72,7.53,7.53,0,0,1,4.43-1,5.07,5.07,0,0,1,2.73.78,8,8,0,0,1,1.07.76,4.18,4.18,0,0,1,1-1c.32-.19.51-.29.56-.31h.7v4.75H62.4a10,10,0,0,0-1-2.15,4,4,0,0,0-3.32-2.18,1.71,1.71,0,0,0-1.29.56,2,2,0,0,0-.53,1.39,2.21,2.21,0,0,0,.89,1.78,16.84,16.84,0,0,0,2.71,1.63c1,.51,1.78,1,2.36,1.33A5.79,5.79,0,0,1,63.7,73a3.16,3.16,0,0,1,.63,2q0,4-6.42,4A6.32,6.32,0,0,1,54.81,78.23Z"/><path class="cls-1" d="M69.22,78.13a5.73,5.73,0,0,1-2-2.51,9.77,9.77,0,0,1-.76-4,8.13,8.13,0,0,1,1.67-5.49,5.63,5.63,0,0,1,4.48-1.91,4.8,4.8,0,0,1,2.35.56,4.32,4.32,0,0,1,.86.56V59.85l-1.67-.42V59h3.63a2.22,2.22,0,0,1,2.51,2.52v16.2l1.68.42v.42H79.41a3.29,3.29,0,0,1-2.59-1,2.83,2.83,0,0,1-.62-1.06,5,5,0,0,1-.92,1.26A4.24,4.24,0,0,1,72.15,79,5.14,5.14,0,0,1,69.22,78.13Zm5.92-1.24a7.15,7.15,0,0,0,.64-1.12V66.14a5.58,5.58,0,0,0-.64-.56A2.48,2.48,0,0,0,73.69,65a2,2,0,0,0-1.86,1.4,13.62,13.62,0,0,0-.66,5.16,14.37,14.37,0,0,0,.6,5q.6,1.41,1.5,1.41A2.37,2.37,0,0,0,75.14,76.89Z"/><path class="cls-1" d="M85.71,77a7.38,7.38,0,0,1-2-5.44,7.42,7.42,0,1,1,14.81,0A7.71,7.71,0,0,1,85.71,77ZM93,76.86a13,13,0,0,0,.77-5.28A13,13,0,0,0,93,66.3q-.77-1.56-1.89-1.56c-.74,0-1.37.52-1.88,1.56a13,13,0,0,0-.77,5.28,13,13,0,0,0,.77,5.28c.51,1,1.14,1.57,1.88,1.57S92.52,77.9,93,76.86ZM90.36,63.2,91.48,59h3.63L91.34,63.2Z"/><path class="cls-1" d="M104.84,78.31a4.82,4.82,0,0,1-2.8-4.49V65.3h-2v-.7h2V63.2a2.22,2.22,0,0,1,2.51-2.51h2V64.6h3.92v.7H106.5v8.52a7.9,7.9,0,0,0,.54,3.52,1.69,1.69,0,0,0,1.56,1,2.19,2.19,0,0,0,1.76-1,4.26,4.26,0,0,0,.75-2.65h.7a4.55,4.55,0,0,1-1,3.19A3.51,3.51,0,0,1,108,79,7.12,7.12,0,0,1,104.84,78.31Z"/><path class="cls-1" d="M116.85,78.31a4.82,4.82,0,0,1-2.8-4.49V65.3h-2v-.7h2V63.2a2.22,2.22,0,0,1,2.51-2.51h2V64.6h3.91v.7h-3.91v8.52a7.94,7.94,0,0,0,.53,3.52,1.69,1.69,0,0,0,1.56,1,2.19,2.19,0,0,0,1.76-1,4.26,4.26,0,0,0,.75-2.65h.7a4.55,4.55,0,0,1-1,3.19A3.51,3.51,0,0,1,120.05,79,7.12,7.12,0,0,1,116.85,78.31Z"/><path class="cls-1" d="M125.36,78.15l1.68-.42V65.44L125.36,65V64.6H129a2.22,2.22,0,0,1,2.51,2.51V77.73l1.68.42v.42h-7.82Zm2.23-15.78a2.06,2.06,0,1,1,1.4.55A1.92,1.92,0,0,1,127.59,62.37Z"/><path class="cls-1" d="M134.86,78.15l1.67-.42V65.44L134.86,65V64.6h2.51a3.31,3.31,0,0,1,2.6,1.06,3.86,3.86,0,0,1,.61,1,5.23,5.23,0,0,1,1-1.12,4.84,4.84,0,0,1,3.12-1.12,3.19,3.19,0,0,1,2.22.68,2.54,2.54,0,0,1,.74,2,2.08,2.08,0,0,1-.57,1.53,2.06,2.06,0,0,1-1.52.57,5.12,5.12,0,0,1-.78-.06l-.34-.08V65.16a3.69,3.69,0,0,0-2.6,1.12,5.77,5.77,0,0,0-.89,1.11V77.73l1.68.42v.42h-7.82Z"/></svg>