<?xml version="1.0" encoding="UTF-8"?><svg id="a" xmlns="http://www.w3.org/2000/svg" width="15.92" height="9.14" viewBox="0 0 15.92 9.14"><defs><style>.b{fill:#3a3a3a;}</style></defs><g><path class="b" d="M.61,5.19c-.2-.16-.3-.36-.3-.61,0-.16,.04-.32,.11-.48,.03-.08,.07-.14,.11-.21,.17-.04,.36-.08,.56-.11,.45-.08,.85-.12,1.2-.14v-.19c0-.46-.06-.78-.17-.96-.11-.18-.29-.26-.52-.26-.09,0-.16,.01-.23,.03l-.09,.03v.94l-.08,.02c-.07,0-.12,.01-.17,.01-.14,0-.26-.04-.34-.13-.08-.09-.13-.2-.13-.34,0-.19,.1-.36,.29-.49,.19-.13,.48-.2,.87-.2,.33,0,.61,.06,.84,.17,.24,.11,.42,.27,.54,.48,.12,.2,.18,.44,.18,.7v1.69l.38,.09v.09h-.56c-.25,0-.45-.08-.58-.23-.06-.06-.1-.14-.14-.24-.06,.1-.13,.2-.21,.28-.19,.19-.42,.28-.7,.28-.37,0-.66-.08-.86-.24Zm1.53-.23c.05-.06,.09-.15,.14-.25v-.91c-.19,0-.38,.01-.55,.03-.13,.02-.22,.03-.26,.03-.02,.05-.04,.11-.06,.19-.04,.16-.06,.32-.06,.47,0,.23,.04,.41,.11,.52,.07,.11,.16,.17,.27,.17,.16,0,.29-.08,.42-.25Z"/><path class="b" d="M4.04,5.23l.38-.09V2.38l-.38-.09v-.09h.56c.25,0,.44,.08,.58,.24,.05,.06,.1,.14,.14,.23,.06-.11,.13-.2,.21-.28,.19-.19,.42-.28,.7-.28,.23,0,.44,.05,.63,.15,.19,.1,.33,.23,.44,.39s.16,.33,.16,.5v2.01l.38,.09v.09h-.82c-.38,0-.56-.19-.56-.56v-1.63c0-.26-.05-.46-.14-.6s-.2-.21-.33-.21c-.16,0-.3,.08-.43,.25-.05,.07-.1,.15-.14,.25v2.32l.38,.09v.09h-1.75v-.09Z"/><path class="b" d="M8.21,5.23l.38-.09V2.38l-.38-.09v-.09h.56c.25,0,.44,.08,.58,.24,.05,.06,.1,.14,.14,.23,.06-.11,.13-.2,.21-.28,.19-.19,.42-.28,.7-.28,.23,0,.44,.05,.63,.15,.19,.1,.33,.23,.44,.39s.16,.33,.16,.5v2.01l.38,.09v.09h-.82c-.38,0-.56-.19-.56-.56v-1.63c0-.26-.05-.46-.14-.6s-.2-.21-.33-.21c-.16,0-.3,.08-.43,.25-.05,.07-.1,.15-.14,.25v2.32l.38,.09v.09h-1.75v-.09Z"/><path class="b" d="M12.75,5.19c-.2-.16-.3-.36-.3-.61,0-.16,.04-.32,.11-.48,.03-.08,.07-.14,.11-.21,.17-.04,.36-.08,.56-.11,.45-.08,.85-.12,1.2-.14v-.19c0-.46-.06-.78-.17-.96-.11-.18-.29-.26-.52-.26-.09,0-.16,.01-.23,.03l-.09,.03v.94l-.08,.02c-.07,0-.12,.01-.17,.01-.14,0-.26-.04-.34-.13-.08-.09-.13-.2-.13-.34,0-.19,.1-.36,.29-.49,.19-.13,.48-.2,.87-.2,.33,0,.61,.06,.84,.17,.24,.11,.42,.27,.54,.48,.12,.2,.18,.44,.18,.7v1.69l.38,.09v.09h-.56c-.25,0-.45-.08-.58-.23-.06-.06-.1-.14-.14-.24-.06,.1-.13,.2-.21,.28-.19,.19-.42,.28-.7,.28-.37,0-.66-.08-.86-.24Zm1.53-.23c.05-.06,.09-.15,.14-.25v-.91c-.19,0-.38,.01-.55,.03-.13,.02-.22,.03-.26,.03-.02,.05-.04,.11-.06,.19-.04,.16-.06,.32-.06,.47,0,.23,.04,.41,.11,.52,.07,.11,.16,.17,.27,.17,.16,0,.29-.08,.42-.25Z"/></g><g><path class="b" d="M.75,8.77l.18-.04v-1.87l-.18-.04v-.04h.26c.11,0,.21,.04,.27,.11,.03,.03,.05,.07,.06,.11,.03-.05,.06-.09,.1-.13,.09-.09,.2-.13,.33-.13,.12,0,.22,.03,.31,.09,.09,.06,.16,.15,.21,.26,.05,.12,.08,.26,.08,.42,0,.25-.06,.44-.17,.57-.12,.13-.27,.2-.47,.2-.09,0-.18-.02-.25-.06-.03-.01-.06-.03-.09-.06v.57l.18,.04v.04H.75v-.04Zm1.06-.73c.05-.1,.07-.28,.07-.54s-.02-.43-.06-.53c-.04-.1-.09-.15-.16-.15-.07,0-.14,.04-.2,.12-.03,.03-.05,.07-.06,.12v1.01s.05,.05,.06,.06c.05,.04,.1,.06,.16,.06,.08,0,.15-.05,.19-.15Z"/><path class="b" d="M2.78,8.17c-.09-.07-.14-.17-.14-.28,0-.08,.02-.15,.05-.23,.01-.04,.03-.07,.05-.1,.08-.02,.17-.04,.26-.05,.21-.04,.4-.06,.56-.06v-.09c0-.22-.03-.37-.08-.45s-.13-.12-.24-.12c-.04,0-.08,0-.11,.01h-.04v.45h-.04s-.06,.01-.08,.01c-.07,0-.12-.02-.16-.06s-.06-.09-.06-.16c0-.09,.04-.17,.14-.23s.23-.09,.41-.09c.15,0,.28,.03,.39,.08s.19,.13,.25,.22c.06,.09,.09,.2,.09,.33v.79l.18,.04v.04h-.26c-.12,0-.21-.04-.27-.11-.03-.03-.05-.07-.06-.11-.03,.05-.06,.09-.1,.13-.09,.09-.2,.13-.33,.13-.17,0-.31-.04-.4-.11Zm.71-.11s.04-.07,.07-.12v-.42c-.09,0-.18,0-.26,.01-.06,0-.1,.01-.12,.01,0,.02-.02,.05-.03,.09-.02,.07-.03,.15-.03,.22,0,.11,.02,.19,.05,.24s.08,.08,.13,.08c.07,0,.14-.04,.2-.12Zm-.2-1.43l.12-.44h.38l-.4,.44h-.1Z"/><path class="b" d="M4.38,8.19l.18-.04v-1.87l-.18-.04v-.04h.38c.18,0,.26,.09,.26,.26v1.7l.18,.04v.04h-.82v-.04Z"/><path class="b" d="M5.74,8.2s-.08-.05-.11-.08c-.03,.04-.07,.08-.1,.1-.02,.01-.04,.02-.06,.03h-.07v-.5h.12c.03,.08,.06,.16,.11,.23,.1,.15,.23,.23,.39,.23,.08,0,.14-.02,.19-.06,.04-.04,.06-.1,.06-.17,0-.06-.03-.12-.09-.16-.06-.04-.15-.1-.27-.16-.11-.05-.19-.1-.26-.14s-.12-.09-.17-.16-.07-.14-.07-.22c0-.12,.05-.21,.15-.29s.25-.11,.46-.11c.1,0,.2,.03,.29,.08,.04,.03,.08,.05,.11,.08,.03-.04,.06-.07,.1-.1,.03-.02,.05-.03,.06-.03h.07v.5h-.12c-.03-.08-.07-.16-.11-.23-.1-.15-.21-.23-.35-.23-.05,0-.1,.02-.13,.06s-.06,.09-.06,.15c0,.07,.03,.14,.09,.19s.16,.11,.28,.17c.1,.05,.19,.1,.25,.14,.06,.04,.11,.09,.16,.15s.07,.13,.07,.21c0,.28-.22,.42-.67,.42-.12,0-.23-.03-.33-.08Z"/><path class="b" d="M7.25,8.19c-.09-.06-.16-.15-.21-.26-.05-.12-.08-.26-.08-.42,0-.25,.06-.44,.17-.58s.27-.2,.47-.2c.09,0,.18,.02,.25,.06,.03,.01,.06,.03,.09,.06v-.57l-.18-.04v-.04h.38c.17,0,.26,.09,.26,.26v1.7l.18,.04v.04h-.26c-.12,0-.21-.04-.27-.11-.03-.03-.05-.07-.06-.11-.03,.05-.06,.09-.1,.13-.09,.09-.2,.13-.33,.13-.12,0-.22-.03-.31-.09Zm.62-.13s.04-.07,.07-.12v-1.01s-.04-.04-.07-.06c-.05-.04-.1-.06-.15-.06-.08,0-.15,.05-.19,.15s-.07,.28-.07,.54,.02,.43,.06,.52c.04,.1,.09,.15,.16,.15,.07,0,.14-.04,.2-.12Z"/><path class="b" d="M8.98,8.07c-.14-.14-.21-.33-.21-.57s.07-.43,.21-.57c.14-.14,.33-.21,.57-.21s.43,.07,.57,.21c.14,.14,.21,.33,.21,.57s-.07,.43-.21,.57c-.14,.14-.33,.21-.57,.21s-.43-.07-.57-.21Zm.77-.02c.05-.11,.08-.29,.08-.55s-.03-.44-.08-.55-.12-.16-.2-.16-.14,.05-.2,.16-.08,.29-.08,.55,.03,.44,.08,.55c.05,.11,.12,.16,.2,.16s.14-.05,.2-.16Zm-.28-1.43l.12-.44h.38l-.4,.44h-.1Z"/><path class="b" d="M10.99,8.21c-.09-.05-.17-.11-.22-.19-.05-.08-.08-.17-.08-.28v-.89h-.21v-.07h.21v-.15c0-.18,.09-.26,.26-.26h.21v.41h.41v.07h-.41v.89c0,.18,.02,.3,.06,.37s.09,.1,.16,.1,.13-.03,.18-.1,.08-.16,.08-.28h.07c0,.14-.04,.26-.11,.33s-.17,.12-.29,.12c-.13,0-.24-.02-.33-.07Z"/><path class="b" d="M12.24,8.21c-.09-.05-.17-.11-.22-.19-.05-.08-.08-.17-.08-.28v-.89h-.21v-.07h.21v-.15c0-.18,.09-.26,.26-.26h.21v.41h.41v.07h-.41v.89c0,.18,.02,.3,.06,.37s.09,.1,.16,.1,.13-.03,.18-.1,.08-.16,.08-.28h.07c0,.14-.04,.26-.11,.33s-.17,.12-.29,.12c-.13,0-.24-.02-.33-.07Z"/><path class="b" d="M13.13,8.19l.18-.04v-1.29l-.18-.04v-.04h.38c.18,0,.26,.09,.26,.26v1.11l.18,.04v.04h-.82v-.04Zm.23-1.65s-.06-.09-.06-.15,.02-.11,.06-.15,.09-.06,.15-.06,.11,.02,.15,.06,.06,.09,.06,.15-.02,.11-.06,.15-.09,.06-.15,.06-.11-.02-.15-.06Z"/><path class="b" d="M14.13,8.19l.18-.04v-1.29l-.18-.04v-.04h.26c.11,0,.21,.04,.27,.11,.03,.03,.05,.07,.06,.11,.03-.04,.07-.08,.11-.12,.1-.08,.21-.12,.33-.12,.1,0,.18,.02,.23,.07s.08,.12,.08,.21c0,.07-.02,.12-.06,.16s-.09,.06-.16,.06c-.03,0-.05,0-.08,0h-.04v-.42c-.1,0-.19,.04-.27,.12-.04,.04-.07,.08-.09,.12v1.08l.18,.04v.04h-.82v-.04Z"/></g></svg>