<svg id="Layer_1" data-name="Layer 1" xmlns="http://www.w3.org/2000/svg" width="363.32" height="339.98" viewBox="0 0 363.32 339.98"><defs><style>.cls-1{fill:#a2a0a0;}.cls-2{fill:#b7b7b6;}.cls-3{fill:#878787;}.cls-4{fill:#626262;}.cls-5{fill:#fff;}.cls-6{fill:#575757;}.cls-7{fill:#010101;}</style></defs><path class="cls-1" d="M268,337.4C266.94,333.85,62.29,340,56.88,340c-3.17,0-.76-271.72-.76-271.72H268Z"/><polygon class="cls-2" points="72.97 82.49 75.88 327.61 104.59 327.61 100.49 82.49 72.97 82.49"/><polygon class="cls-2" points="123.85 81.56 126.76 326.68 155.47 326.68 151.36 81.56 123.85 81.56"/><polygon class="cls-2" points="171.64 81.56 174.55 326.68 203.26 326.68 199.16 81.56 171.64 81.56"/><polygon class="cls-2" points="219.08 81.56 221.99 326.68 250.7 326.68 246.6 81.56 219.08 81.56"/><path class="cls-3" d="M161.63,23.06C87,23.06,55.68,68.26,55.68,68.26H267.57S236.23,23.06,161.63,23.06Z"/><path class="cls-4" d="M116.19,37.73h15.32c.83-3.4,28.54-55.77,58.7,0h14.47S191.35,7.36,171.91,2.08c-3-.82-6.06-2-9.57-2C162.34.1,134.54-3.82,116.19,37.73Z"/><path class="cls-1" d="M267.57,215.68l62.59-93.19,28-9.31s13.41-10.8-3-10.35l-19.43,5.68L343,92.84s4.56-15-4.18-9.93c-1.25.72-4.52,4.56-6.29,6.07l-10.2,17.93-4-14.84A68.64,68.64,0,0,0,315.44,85a7.19,7.19,0,0,0-1.26-1.88,3.32,3.32,0,0,0-1.24-.83c-1.85-.75-5.49-1.29-7.3,1.39a12.55,12.55,0,0,0-.42,6.32c1.47,8.12,5.47,21.26,5.47,21.26l-43.12,67.94Z"/><polygon class="cls-1" points="56.43 185.05 26.69 221.59 55.24 249.34 56 275.02 0.51 221.59 56.25 152.96 56.43 185.05"/><circle class="cls-5" cx="187.45" cy="148.67" r="35.04"/><circle cx="187.45" cy="148.67" r="10.66"/><rect class="cls-6" x="136.28" y="175.91" width="71.93" height="15.6" rx="7.8" transform="translate(83.95 -52.13) rotate(22.63)"/><circle class="cls-5" cx="124.73" cy="147.76" r="35.95"/><polygon points="234.89 103.21 174.95 75.18 174.95 94.79 234.89 103.21"/><polygon points="85.98 104.36 146.88 93.11 143.35 74.03 85.98 104.36"/><circle cx="124.73" cy="147.76" r="10.66"/><path class="cls-7" d="M101.52,191.28S116.46,222.6,177.8,219a59.18,59.18,0,0,1-40.72,24.81C109.33,247.49,101.52,191.28,101.52,191.28Z"/></svg>