<svg xmlns="http://www.w3.org/2000/svg" xmlns:xlink="http://www.w3.org/1999/xlink" width="300" zoomAndPan="magnify" viewBox="0 0 224.87999 149.999998" height="200" preserveAspectRatio="xMidYMid meet" version="1.0"><defs><clipPath id="id1"><path d="M 25.125 21.839844 L 221.523438 21.839844 L 221.523438 92 L 25.125 92 Z M 25.125 21.839844 " clip-rule="nonzero"/></clipPath><clipPath id="id2"><path d="M 25.125 69 L 221.523438 69 L 221.523438 103 L 25.125 103 Z M 25.125 69 " clip-rule="nonzero"/></clipPath><clipPath id="id3"><path d="M 25.125 84 L 221.523438 84 L 221.523438 132.03125 L 25.125 132.03125 Z M 25.125 84 " clip-rule="nonzero"/></clipPath><clipPath id="id4"><path d="M 25.125 97 L 221.523438 97 L 221.523438 132 L 25.125 132 Z M 25.125 97 " clip-rule="nonzero"/></clipPath><clipPath id="id5"><path d="M 25.125 128 L 221.523438 128 L 221.523438 132 L 25.125 132 Z M 25.125 128 " clip-rule="nonzero"/></clipPath><clipPath id="id6"><path d="M 12 89 L 59 89 L 59 148.460938 L 12 148.460938 Z M 12 89 " clip-rule="nonzero"/></clipPath><clipPath id="id7"><path d="M 25 75 L 45 75 L 45 84 L 25 84 Z M 25 75 " clip-rule="nonzero"/></clipPath><clipPath id="id8"><path d="M 57 92 L 78.707031 92 L 78.707031 122 L 57 122 Z M 57 92 " clip-rule="nonzero"/></clipPath></defs><path fill="rgb(74.508667%, 73.728943%, 74.119568%)" d="M 52.355469 69.742188 L 53.972656 68.628906 L 55.707031 67.96875 L 56.007812 65.777344 L 57.980469 64.4375 L 60.949219 64.609375 L 61.671875 64.609375 L 65.394531 64.554688 L 67.671875 66.015625 L 69.144531 70.828125 L 67.640625 72.820312 L 64.238281 74.710938 L 57.171875 74.335938 L 54 73.804688 L 51.980469 72.609375 Z M 52.355469 69.742188 " fill-opacity="0.3882" fill-rule="nonzero"/><path fill="rgb(57.249451%, 56.858826%, 56.858826%)" d="M 59.066406 67.824219 L 62.261719 66.6875 L 64.8125 67.609375 L 67.671875 66.015625 L 65.394531 64.554688 L 57.980469 64.4375 L 56.007812 65.777344 Z M 59.066406 67.824219 " fill-opacity="1" fill-rule="nonzero"/><path fill="rgb(62.348938%, 61.959839%, 61.959839%)" d="M 58.480469 71.472656 L 59.066406 67.824219 L 56.007812 65.777344 L 55.707031 67.96875 Z M 58.480469 71.472656 " fill-opacity="1" fill-rule="nonzero"/><path fill="rgb(59.21936%, 59.21936%, 58.81958%)" d="M 55.519531 71.742188 L 58.480469 71.472656 L 55.707031 67.96875 L 53.972656 68.628906 L 52.355469 69.742188 L 52.851562 71.246094 Z M 55.519531 71.742188 " fill-opacity="1" fill-rule="nonzero"/><path fill="rgb(63.919067%, 63.529968%, 63.139343%)" d="M 52.089844 72.675781 L 52.851562 71.246094 L 54 73.804688 Z M 52.089844 72.675781 " fill-opacity="1" fill-rule="nonzero"/><path fill="rgb(65.879822%, 65.489197%, 65.489197%)" d="M 52.75 70.9375 L 52.355469 69.742188 L 52.089844 72.675781 L 52.851562 71.246094 Z M 52.75 70.9375 " fill-opacity="1" fill-rule="nonzero"/><path fill="rgb(65.879822%, 65.489197%, 65.489197%)" d="M 55.214844 71.6875 L 55.519531 71.742188 L 54 73.804688 L 52.851562 71.246094 Z M 55.214844 71.6875 " fill-opacity="1" fill-rule="nonzero"/><path fill="rgb(65.489197%, 65.098572%, 65.098572%)" d="M 58.171875 72.152344 L 58.480469 71.472656 L 55.519531 71.742188 L 54 73.804688 L 57.171875 74.335938 Z M 58.171875 72.152344 " fill-opacity="1" fill-rule="nonzero"/><path fill="rgb(70.199585%, 69.799805%, 69.799805%)" d="M 60.882812 67.179688 L 62.261719 66.6875 L 58.796875 69.507812 L 59.066406 67.824219 Z M 60.882812 67.179688 " fill-opacity="1" fill-rule="nonzero"/><path fill="rgb(72.549438%, 71.759033%, 72.158813%)" d="M 61.335938 72.527344 L 58.796875 69.507812 L 58.480469 71.472656 L 57.171875 74.335938 Z M 61.335938 72.527344 " fill-opacity="1" fill-rule="nonzero"/><path fill="rgb(61.959839%, 61.569214%, 61.569214%)" d="M 62.128906 67.207031 L 62.261719 66.6875 L 58.796875 69.507812 L 61.335938 72.527344 Z M 62.128906 67.207031 " fill-opacity="1" fill-rule="nonzero"/><path fill="rgb(65.879822%, 65.489197%, 65.489197%)" d="M 63.15625 70.503906 L 64.8125 67.609375 L 62.261719 66.6875 Z M 63.15625 70.503906 " fill-opacity="1" fill-rule="nonzero"/><path fill="rgb(61.569214%, 61.178589%, 61.178589%)" d="M 66.511719 70.824219 L 64.8125 67.609375 L 63.15625 70.503906 L 64.238281 74.710938 Z M 66.511719 70.824219 " fill-opacity="1" fill-rule="nonzero"/><path fill="rgb(67.059326%, 66.268921%, 66.268921%)" d="M 66.8125 71.378906 L 66.511719 70.824219 L 64.238281 74.710938 L 67.640625 72.820312 Z M 66.8125 71.378906 " fill-opacity="1" fill-rule="nonzero"/><path fill="rgb(62.348938%, 61.959839%, 61.959839%)" d="M 68.03125 72.308594 L 69.144531 70.828125 L 67.671875 66.015625 L 64.8125 67.609375 L 67.640625 72.820312 Z M 68.03125 72.308594 " fill-opacity="1" fill-rule="nonzero"/><path fill="rgb(71.759033%, 70.979309%, 70.979309%)" d="M 62.507812 73.4375 L 64.238281 74.710938 L 62.261719 66.6875 L 61.335938 72.527344 Z M 62.507812 73.4375 " fill-opacity="1" fill-rule="nonzero"/><path fill="rgb(62.348938%, 61.959839%, 61.959839%)" d="M 60.226562 74.335938 L 60.496094 74.511719 L 57.171875 74.335938 L 59.015625 73.535156 Z M 60.226562 74.335938 " fill-opacity="1" fill-rule="nonzero"/><path fill="rgb(67.449951%, 67.059326%, 67.059326%)" d="M 61.257812 72.558594 L 61.335938 72.527344 L 64.238281 74.710938 L 60.496094 74.511719 L 59.015625 73.535156 Z M 61.257812 72.558594 " fill-opacity="1" fill-rule="nonzero"/><g clip-path="url(#id1)"><path fill="rgb(89.408875%, 95.289612%, 96.859741%)" d="M 221.835938 83.042969 C 221.835938 83.042969 176.214844 70.664062 141.699219 89.65625 C 141.699219 89.65625 108.148438 74.363281 25.246094 91.1875 L 25.246094 21.6875 L 221.835938 21.6875 " fill-opacity="1" fill-rule="nonzero"/></g><path fill="rgb(96.469116%, 98.039246%, 97.24884%)" d="M 62.789062 35.929688 L 28.117188 37.628906 C 28.117188 37.628906 26.027344 24.609375 37.914062 30.585938 C 37.914062 30.585938 44.109375 14.742188 51.773438 30.273438 C 51.769531 30.273438 62.199219 23.859375 62.789062 35.929688 Z M 62.789062 35.929688 " fill-opacity="0.8" fill-rule="nonzero"/><path fill="rgb(96.469116%, 98.039246%, 97.24884%)" d="M 101.195312 38.648438 L 69.222656 39.339844 C 69.222656 39.339844 67.660156 28.738281 78.425781 33.824219 C 78.425781 33.824219 84.570312 21.09375 91.199219 33.84375 C 91.207031 33.84375 100.988281 28.847656 101.195312 38.648438 Z M 101.195312 38.648438 " fill-opacity="0.8" fill-rule="nonzero"/><path fill="rgb(96.469116%, 98.039246%, 97.24884%)" d="M 88.394531 59.851562 L 65.585938 60.347656 C 65.585938 60.347656 64.453125 51.992188 72.148438 56.019531 C 72.148438 56.019531 76.511719 46.003906 81.261719 56.058594 C 81.261719 56.050781 88.230469 52.132812 88.394531 59.851562 Z M 88.394531 59.851562 " fill-opacity="0.8" fill-rule="nonzero"/><path fill="rgb(96.469116%, 98.039246%, 97.24884%)" d="M 57.386719 51.351562 L 35.933594 51.816406 C 35.933594 51.816406 34.867188 44.09375 42.105469 47.808594 C 42.105469 47.808594 46.214844 38.550781 50.679688 47.839844 C 50.675781 47.839844 57.234375 44.214844 57.386719 51.351562 Z M 57.386719 51.351562 " fill-opacity="0.8" fill-rule="nonzero"/><path fill="rgb(96.469116%, 98.039246%, 97.24884%)" d="M 51.980469 66.222656 L 30.527344 66.6875 C 30.527344 66.6875 29.460938 58.96875 36.699219 62.683594 C 36.699219 62.683594 40.808594 53.425781 45.269531 62.714844 C 45.269531 62.714844 51.828125 59.089844 51.980469 66.222656 Z M 51.980469 66.222656 " fill-opacity="0.8" fill-rule="nonzero"/><path fill="rgb(96.469116%, 98.039246%, 97.24884%)" d="M 150.914062 35.695312 L 118.941406 36.386719 C 118.941406 36.386719 117.378906 25.78125 128.148438 30.867188 C 128.148438 30.867188 134.292969 18.140625 140.921875 30.890625 C 140.925781 30.890625 150.707031 25.894531 150.914062 35.695312 Z M 150.914062 35.695312 " fill-opacity="1" fill-rule="nonzero"/><path fill="rgb(96.469116%, 98.039246%, 97.24884%)" d="M 123.097656 51.53125 L 91.125 52.214844 C 91.125 52.214844 89.5625 41.613281 100.328125 46.699219 C 100.328125 46.699219 106.472656 33.96875 113.101562 46.71875 C 113.105469 46.71875 122.890625 41.722656 123.097656 51.53125 Z M 123.097656 51.53125 " fill-opacity="0.8" fill-rule="nonzero"/><path fill="rgb(96.469116%, 98.039246%, 97.24884%)" d="M 146.480469 68.417969 L 101.851562 69.378906 C 101.851562 69.378906 99.695312 55.734375 114.71875 62.253906 C 114.71875 62.253906 123.328125 45.855469 132.546875 62.253906 C 132.546875 62.253906 146.214844 55.796875 146.480469 68.417969 Z M 146.480469 68.417969 " fill-opacity="0.8" fill-rule="nonzero"/><path fill="rgb(96.469116%, 98.039246%, 97.24884%)" d="M 216.273438 65.726562 L 171.644531 66.6875 C 171.644531 66.6875 169.488281 53.042969 184.511719 59.566406 C 184.511719 59.566406 193.121094 43.164062 202.339844 59.566406 C 202.339844 59.5625 216.007812 53.109375 216.273438 65.726562 Z M 216.273438 65.726562 " fill-opacity="0.749" fill-rule="nonzero"/><path fill="rgb(96.078491%, 98.039246%, 96.859741%)" d="M 192.132812 48.136719 L 160.160156 48.828125 C 160.160156 48.828125 158.597656 38.226562 169.367188 43.3125 C 169.367188 43.3125 175.511719 30.582031 182.140625 43.332031 C 182.140625 43.332031 191.925781 38.335938 192.132812 48.136719 Z M 192.132812 48.136719 " fill-opacity="0.8588" fill-rule="nonzero"/><path fill="rgb(96.469116%, 98.039246%, 97.24884%)" d="M 215.753906 37.609375 L 181.902344 38.339844 C 181.902344 38.339844 180.210938 25.414062 191.636719 31.648438 C 191.636719 31.648438 198.097656 16.152344 205.160156 31.71875 C 205.15625 31.71875 215.5 25.660156 215.753906 37.609375 Z M 215.753906 37.609375 " fill-opacity="0.8078" fill-rule="nonzero"/><path fill="rgb(96.469116%, 98.039246%, 97.24884%)" d="M 157.410156 55.121094 L 132.335938 55.660156 C 132.335938 55.660156 131.105469 47.078125 139.554688 51.203125 C 139.554688 51.203125 144.363281 40.902344 149.574219 51.226562 C 149.574219 51.226562 157.242188 47.1875 157.410156 55.121094 Z M 157.410156 55.121094 " fill-opacity="1" fill-rule="nonzero"/><path fill="rgb(96.469116%, 98.039246%, 97.24884%)" d="M 171.960938 30.289062 L 160.371094 30.539062 C 160.371094 30.539062 159.785156 25.636719 163.699219 28.011719 C 163.699219 28.011719 165.898438 22.140625 168.332031 28.046875 C 168.332031 28.046875 171.867188 25.761719 171.960938 30.289062 Z M 171.960938 30.289062 " fill-opacity="1" fill-rule="nonzero"/><g clip-path="url(#id2)"><path fill="rgb(79.219055%, 83.918762%, 63.529968%)" d="M 221.835938 83.132812 C 221.835938 83.132812 153.992188 60.707031 102.746094 80.945312 C 102.746094 80.945312 71.535156 54.269531 24.8125 83.132812 L 24.8125 102.402344 C 24.8125 102.402344 64.050781 76.738281 119.546875 97.136719 C 119.546875 97.136719 164.476562 77.664062 221.835938 99.542969 " fill-opacity="1" fill-rule="nonzero"/></g><g clip-path="url(#id3)"><path fill="rgb(80.389404%, 84.309387%, 52.549744%)" d="M 221.640625 98.203125 C 221.640625 98.203125 171.21875 68.773438 119.453125 95.046875 C 119.453125 95.046875 73.617188 67.46875 24.8125 101.949219 L 24.8125 133.597656 C 24.8125 133.597656 64.550781 97.945312 119.71875 98.203125 C 119.71875 98.203125 168.542969 94.800781 221.640625 137.050781 " fill-opacity="1" fill-rule="nonzero"/></g><g clip-path="url(#id4)"><path fill="rgb(78.039551%, 82.348633%, 40.779114%)" d="M 221.835938 130.300781 L 25.246094 131.902344 L 25.246094 117.867188 C 25.246094 117.867188 113.125 69.953125 221.835938 119.886719 " fill-opacity="1" fill-rule="nonzero"/></g><path fill="rgb(98.429871%, 95.689392%, 69.40918%)" d="M 183.785156 131.871094 L 197.761719 131.871094 C 197.761719 131.871094 185.75 108.003906 175.292969 103.835938 L 166.152344 101.539062 C 166.152344 101.539062 173.472656 107.636719 180.484375 122.210938 C 181.089844 123.46875 181.535156 124.796875 181.957031 126.1875 C 182.378906 127.578125 182.789062 129.0625 183.316406 130.589844 C 183.460938 131.015625 183.617188 131.441406 183.785156 131.871094 Z M 183.785156 131.871094 " fill-opacity="1" fill-rule="nonzero"/><g clip-path="url(#id5)"><path fill="rgb(98.429871%, 95.689392%, 69.799805%)" d="M 221.640625 131.871094 L 25.296875 131.871094 L 25.296875 128.191406 L 221.640625 128.191406 " fill-opacity="1" fill-rule="nonzero"/></g><path fill="rgb(98.429871%, 96.078491%, 71.369934%)" d="M 164.382812 101.539062 L 160.082031 100.523438 C 160.082031 100.523438 162.113281 98.148438 163.714844 93.828125 C 164.75 91.039062 165.441406 86.574219 165.847656 84.320312 L 169.832031 84.136719 C 169.832031 84.136719 167.996094 97.65625 164.382812 101.539062 Z M 164.382812 101.539062 " fill-opacity="1" fill-rule="nonzero"/><path stroke-linecap="butt" transform="matrix(0.102289, 0, 0, 0.102025, 25.126837, 21.841575)" fill-opacity="1" fill="rgb(78.819275%, 78.42865%, 78.42865%)" fill-rule="nonzero" stroke-linejoin="miter" d="M 838.291772 736.51003 L 875.639937 461.303083 L 894.275831 461.303083 L 855.552887 736.51003 L 884.308683 894.597048 L 866.283802 894.597048 Z M 838.291772 736.51003 " stroke="rgb(78.819275%, 78.42865%, 78.42865%)" stroke-width="0.75" stroke-opacity="1" stroke-miterlimit="10"/><path fill="rgb(61.959839%, 61.569214%, 61.569214%)" d="M 97.238281 113.113281 L 132.152344 113.113281 L 126.023438 90.519531 L 132.152344 68.90625 L 97.238281 68.90625 L 93.464844 94.273438 Z M 97.238281 113.113281 " fill-opacity="1" fill-rule="nonzero"/><path fill="rgb(70.199585%, 69.799805%, 69.799805%)" d="M 99.675781 71.097656 L 95.875 94.183594 C 95.859375 94.242188 95.859375 94.300781 95.875 94.359375 C 96.179688 95.671875 99.820312 111.230469 99.90625 111.230469 L 104.203125 111.230469 C 104.351562 111.230469 104.46875 111.175781 104.5625 111.0625 C 104.65625 110.945312 104.6875 110.816406 104.65625 110.675781 L 100.859375 93.617188 C 100.847656 93.5625 100.847656 93.503906 100.859375 93.445312 L 104.441406 71.242188 C 104.460938 71.101562 104.425781 70.980469 104.335938 70.871094 C 104.242188 70.765625 104.125 70.710938 103.984375 70.710938 L 100.132812 70.710938 C 100.019531 70.710938 99.917969 70.75 99.832031 70.820312 C 99.746094 70.894531 99.695312 70.984375 99.675781 71.097656 Z M 99.675781 71.097656 " fill-opacity="1" fill-rule="nonzero"/><path fill="rgb(70.199585%, 69.799805%, 69.799805%)" d="M 107.3125 71.25 L 103.511719 94.335938 C 103.5 94.394531 103.503906 94.453125 103.515625 94.511719 C 103.824219 95.824219 107.464844 111.382812 107.550781 111.382812 L 111.847656 111.382812 C 111.992188 111.382812 112.113281 111.328125 112.207031 111.214844 C 112.300781 111.097656 112.328125 110.96875 112.296875 110.828125 L 108.5 93.769531 C 108.488281 93.710938 108.488281 93.65625 108.5 93.597656 L 112.078125 71.394531 C 112.101562 71.253906 112.066406 71.132812 111.972656 71.023438 C 111.882812 70.917969 111.765625 70.863281 111.621094 70.863281 L 107.777344 70.863281 C 107.664062 70.863281 107.5625 70.898438 107.472656 70.972656 C 107.386719 71.042969 107.332031 71.136719 107.3125 71.25 Z M 107.3125 71.25 " fill-opacity="1" fill-rule="nonzero"/><path fill="rgb(70.199585%, 69.799805%, 69.799805%)" d="M 115.402344 111.011719 L 110.890625 92.058594 C 110.875 91.992188 110.875 91.929688 110.890625 91.863281 L 115.402344 71.246094 C 115.429688 71.136719 115.484375 71.050781 115.570312 70.984375 C 115.65625 70.921875 115.753906 70.890625 115.863281 70.894531 L 120.074219 71.070312 C 120.214844 71.074219 120.328125 71.132812 120.414062 71.246094 C 120.5 71.355469 120.527344 71.480469 120.496094 71.617188 L 115.660156 92.074219 C 115.640625 92.148438 115.640625 92.222656 115.660156 92.296875 L 120.804688 110.792969 C 120.84375 110.933594 120.816406 111.0625 120.726562 111.179688 C 120.636719 111.296875 120.515625 111.355469 120.367188 111.355469 L 115.839844 111.355469 C 115.605469 111.355469 115.457031 111.242188 115.402344 111.011719 Z M 115.402344 111.011719 " fill-opacity="1" fill-rule="nonzero"/><path fill="rgb(70.199585%, 69.799805%, 69.799805%)" d="M 123.925781 110.910156 L 118.515625 92.171875 C 118.496094 92.097656 118.492188 92.027344 118.511719 91.953125 L 123.121094 71.367188 C 123.171875 71.132812 123.320312 71.015625 123.5625 71.015625 L 127.753906 71.015625 C 127.902344 71.015625 128.019531 71.074219 128.109375 71.1875 C 128.203125 71.304688 128.230469 71.429688 128.195312 71.574219 L 123.285156 91.007812 C 123.265625 91.085938 123.265625 91.164062 123.289062 91.242188 L 129.023438 110.660156 C 129.042969 110.726562 129.046875 110.796875 129.035156 110.863281 C 129.023438 110.933594 128.996094 110.996094 128.953125 111.054688 C 128.910156 111.109375 128.855469 111.152344 128.792969 111.183594 C 128.730469 111.214844 128.664062 111.230469 128.589844 111.230469 L 124.359375 111.230469 C 124.132812 111.234375 123.988281 111.125 123.925781 110.910156 Z M 123.925781 110.910156 " fill-opacity="1" fill-rule="nonzero"/><path fill="rgb(34.118652%, 34.118652%, 34.118652%)" d="M 120.390625 87.40625 L 111.824219 83.875 C 111.667969 83.808594 111.527344 83.71875 111.410156 83.597656 C 111.289062 83.476562 111.195312 83.339844 111.132812 83.183594 C 111.066406 83.027344 111.035156 82.867188 111.035156 82.699219 C 111.035156 82.527344 111.066406 82.367188 111.132812 82.210938 C 111.199219 82.054688 111.292969 81.917969 111.414062 81.796875 C 111.535156 81.679688 111.675781 81.589844 111.832031 81.523438 C 111.988281 81.460938 112.152344 81.429688 112.320312 81.429688 C 112.492188 81.429688 112.65625 81.460938 112.8125 81.527344 L 121.382812 85.058594 C 121.539062 85.125 121.675781 85.214844 121.796875 85.335938 C 121.914062 85.453125 122.007812 85.59375 122.074219 85.746094 C 122.136719 85.902344 122.171875 86.066406 122.167969 86.234375 C 122.167969 86.402344 122.136719 86.566406 122.074219 86.722656 C 122.003906 86.878906 121.910156 87.015625 121.789062 87.132812 C 121.667969 87.253906 121.53125 87.34375 121.371094 87.410156 C 121.214844 87.472656 121.050781 87.503906 120.882812 87.503906 C 120.710938 87.503906 120.546875 87.472656 120.390625 87.40625 Z M 120.390625 87.40625 " fill-opacity="1" fill-rule="nonzero"/><path fill="rgb(100%, 100%, 100%)" d="M 124.882812 78.753906 C 124.882812 79.128906 124.84375 79.5 124.769531 79.871094 C 124.699219 80.238281 124.585938 80.59375 124.441406 80.941406 C 124.296875 81.289062 124.121094 81.617188 123.910156 81.929688 C 123.699219 82.242188 123.460938 82.527344 123.191406 82.792969 C 122.921875 83.058594 122.632812 83.296875 122.316406 83.503906 C 122 83.710938 121.667969 83.886719 121.316406 84.03125 C 120.96875 84.175781 120.605469 84.285156 120.234375 84.355469 C 119.863281 84.429688 119.488281 84.46875 119.109375 84.46875 C 118.730469 84.46875 118.351562 84.429688 117.980469 84.355469 C 117.609375 84.285156 117.25 84.175781 116.898438 84.03125 C 116.546875 83.886719 116.214844 83.710938 115.898438 83.503906 C 115.585938 83.296875 115.292969 83.058594 115.023438 82.792969 C 114.757812 82.527344 114.519531 82.242188 114.308594 81.929688 C 114.097656 81.617188 113.917969 81.289062 113.773438 80.941406 C 113.628906 80.59375 113.519531 80.238281 113.445312 79.871094 C 113.371094 79.5 113.332031 79.128906 113.332031 78.753906 C 113.332031 78.378906 113.371094 78.007812 113.445312 77.640625 C 113.519531 77.273438 113.628906 76.917969 113.773438 76.570312 C 113.917969 76.222656 114.097656 75.894531 114.308594 75.582031 C 114.519531 75.269531 114.757812 74.980469 115.023438 74.71875 C 115.292969 74.453125 115.585938 74.214844 115.898438 74.007812 C 116.214844 73.796875 116.546875 73.621094 116.898438 73.480469 C 117.25 73.335938 117.609375 73.226562 117.980469 73.152344 C 118.351562 73.082031 118.730469 73.042969 119.109375 73.042969 C 119.488281 73.042969 119.863281 73.082031 120.234375 73.152344 C 120.605469 73.226562 120.96875 73.335938 121.316406 73.480469 C 121.667969 73.621094 122 73.796875 122.316406 74.007812 C 122.632812 74.214844 122.921875 74.453125 123.191406 74.71875 C 123.460938 74.980469 123.699219 75.269531 123.910156 75.582031 C 124.121094 75.894531 124.296875 76.222656 124.441406 76.570312 C 124.585938 76.917969 124.699219 77.273438 124.769531 77.640625 C 124.84375 78.007812 124.882812 78.378906 124.882812 78.753906 Z M 124.882812 78.753906 " fill-opacity="1" fill-rule="nonzero"/><path fill="rgb(100%, 100%, 100%)" d="M 114.695312 78.609375 C 114.695312 78.992188 114.65625 79.375 114.582031 79.75 C 114.503906 80.128906 114.394531 80.496094 114.246094 80.851562 C 114.09375 81.207031 113.914062 81.542969 113.695312 81.863281 C 113.480469 82.183594 113.234375 82.480469 112.960938 82.75 C 112.683594 83.023438 112.386719 83.265625 112.0625 83.480469 C 111.738281 83.695312 111.398438 83.875 111.039062 84.023438 C 110.679688 84.167969 110.308594 84.28125 109.925781 84.355469 C 109.546875 84.429688 109.160156 84.46875 108.773438 84.46875 C 108.382812 84.46875 107.996094 84.429688 107.617188 84.355469 C 107.234375 84.28125 106.863281 84.167969 106.503906 84.023438 C 106.144531 83.875 105.804688 83.695312 105.480469 83.480469 C 105.15625 83.265625 104.859375 83.023438 104.582031 82.75 C 104.308594 82.480469 104.0625 82.183594 103.847656 81.863281 C 103.628906 81.542969 103.449219 81.207031 103.300781 80.851562 C 103.148438 80.496094 103.039062 80.128906 102.960938 79.75 C 102.886719 79.375 102.847656 78.992188 102.847656 78.609375 C 102.847656 78.222656 102.886719 77.84375 102.960938 77.464844 C 103.039062 77.089844 103.148438 76.722656 103.300781 76.367188 C 103.449219 76.011719 103.628906 75.671875 103.847656 75.351562 C 104.0625 75.035156 104.308594 74.738281 104.582031 74.464844 C 104.859375 74.191406 105.15625 73.949219 105.480469 73.738281 C 105.804688 73.523438 106.144531 73.34375 106.503906 73.195312 C 106.863281 73.046875 107.234375 72.9375 107.617188 72.863281 C 107.996094 72.785156 108.382812 72.75 108.773438 72.75 C 109.160156 72.75 109.546875 72.785156 109.925781 72.863281 C 110.308594 72.9375 110.679688 73.046875 111.039062 73.195312 C 111.398438 73.34375 111.738281 73.523438 112.0625 73.738281 C 112.386719 73.949219 112.683594 74.191406 112.960938 74.464844 C 113.234375 74.738281 113.480469 75.035156 113.695312 75.351562 C 113.914062 75.671875 114.09375 76.011719 114.246094 76.367188 C 114.394531 76.722656 114.503906 77.089844 114.582031 77.464844 C 114.65625 77.84375 114.695312 78.222656 114.695312 78.609375 Z M 114.695312 78.609375 " fill-opacity="1" fill-rule="nonzero"/><path fill="rgb(0.389099%, 0.389099%, 0.389099%)" d="M 104.527344 85.136719 C 104.527344 85.136719 106.417969 90.476562 116.53125 90.96875 C 116.53125 90.96875 114.027344 94.164062 109.417969 94.273438 C 104.804688 94.378906 104.527344 85.136719 104.527344 85.136719 Z M 104.527344 85.136719 " fill-opacity="1" fill-rule="nonzero"/><path fill="rgb(0%, 0%, 0%)" d="M 125.632812 70.277344 L 115.851562 69.824219 L 116.007812 66.523438 Z M 125.632812 70.277344 " fill-opacity="1" fill-rule="nonzero"/><path fill="rgb(52.938843%, 52.938843%, 52.938843%)" d="M 110.550781 59.75 C 98.296875 60.738281 93.757812 68.496094 93.757812 68.496094 L 128.558594 65.6875 C 128.558594 65.6875 122.804688 58.757812 110.550781 59.75 Z M 110.550781 59.75 " fill-opacity="1" fill-rule="nonzero"/><path fill="rgb(0%, 0%, 0%)" d="M 100.839844 71.378906 L 110.875 69.542969 L 110.296875 66.433594 Z M 100.839844 71.378906 " fill-opacity="1" fill-rule="nonzero"/><path fill="rgb(0%, 0%, 0%)" d="M 110.527344 78.609375 C 110.527344 78.839844 110.484375 79.0625 110.394531 79.273438 C 110.304688 79.488281 110.179688 79.675781 110.011719 79.835938 C 109.847656 80 109.660156 80.125 109.445312 80.214844 C 109.230469 80.300781 109.003906 80.347656 108.773438 80.347656 C 108.539062 80.347656 108.316406 80.300781 108.101562 80.214844 C 107.882812 80.125 107.695312 80 107.53125 79.835938 C 107.363281 79.675781 107.238281 79.488281 107.148438 79.273438 C 107.058594 79.0625 107.015625 78.839844 107.015625 78.609375 C 107.015625 78.378906 107.058594 78.15625 107.148438 77.945312 C 107.238281 77.730469 107.363281 77.542969 107.53125 77.378906 C 107.695312 77.21875 107.882812 77.089844 108.101562 77.003906 C 108.316406 76.914062 108.539062 76.871094 108.773438 76.871094 C 109.003906 76.871094 109.230469 76.914062 109.445312 77.003906 C 109.660156 77.089844 109.847656 77.21875 110.011719 77.378906 C 110.179688 77.542969 110.304688 77.730469 110.394531 77.945312 C 110.484375 78.15625 110.527344 78.378906 110.527344 78.609375 Z M 110.527344 78.609375 " fill-opacity="1" fill-rule="nonzero"/><path fill="rgb(0%, 0%, 0%)" d="M 120.863281 78.519531 C 120.863281 78.75 120.820312 78.972656 120.730469 79.1875 C 120.640625 79.398438 120.515625 79.585938 120.351562 79.75 C 120.183594 79.914062 119.996094 80.039062 119.78125 80.125 C 119.566406 80.214844 119.339844 80.257812 119.109375 80.257812 C 118.875 80.257812 118.652344 80.214844 118.4375 80.125 C 118.222656 80.039062 118.03125 79.914062 117.867188 79.75 C 117.703125 79.585938 117.574219 79.398438 117.484375 79.1875 C 117.394531 78.972656 117.351562 78.75 117.351562 78.519531 C 117.351562 78.289062 117.394531 78.070312 117.484375 77.855469 C 117.574219 77.644531 117.703125 77.457031 117.867188 77.292969 C 118.03125 77.128906 118.222656 77.003906 118.4375 76.914062 C 118.652344 76.828125 118.875 76.785156 119.109375 76.785156 C 119.339844 76.785156 119.566406 76.828125 119.78125 76.914062 C 119.996094 77.003906 120.183594 77.128906 120.351562 77.292969 C 120.515625 77.457031 120.640625 77.644531 120.730469 77.855469 C 120.820312 78.070312 120.863281 78.289062 120.863281 78.519531 Z M 120.863281 78.519531 " fill-opacity="1" fill-rule="nonzero"/><path fill="rgb(38.42926%, 38.42926%, 38.42926%)" d="M 102.847656 63.15625 L 105.347656 62.8125 C 105.40625 62.246094 108.75 53.171875 114.929688 61.5 L 117.292969 61.179688 C 117.292969 61.179688 114.429688 56.574219 111.140625 56.15625 C 110.628906 56.089844 110.105469 55.976562 109.53125 56.054688 C 109.53125 56.050781 104.90625 56.039062 102.847656 63.15625 Z M 102.847656 63.15625 " fill-opacity="1" fill-rule="nonzero"/><path fill="rgb(61.959839%, 61.569214%, 61.569214%)" d="M 126.085938 89.703125 L 138.265625 80.359375 L 142.457031 80.308594 C 142.457031 80.308594 144.710938 79.476562 142.445312 78.867188 L 139.5625 78.800781 L 141.164062 77.097656 C 141.164062 77.097656 142.371094 75.375 140.976562 75.660156 C 140.777344 75.699219 140.183594 76.058594 139.882812 76.179688 L 137.789062 78.050781 L 137.820312 75.996094 C 137.800781 75.65625 137.761719 75.3125 137.703125 74.976562 C 137.683594 74.875 137.652344 74.777344 137.601562 74.6875 C 137.566406 74.625 137.519531 74.570312 137.460938 74.527344 C 137.238281 74.359375 136.761719 74.140625 136.410156 74.410156 C 136.234375 74.644531 136.132812 74.90625 136.101562 75.199219 C 135.988281 76.292969 136.027344 78.132812 136.027344 78.132812 L 127.492188 85.050781 Z M 126.085938 89.703125 " fill-opacity="1" fill-rule="nonzero"/><path fill="rgb(61.959839%, 61.569214%, 61.569214%)" d="M 94.414062 88.527344 L 94.648438 86.527344 L 94.90625 84.351562 L 93.183594 81.777344 L 88.410156 75.015625 L 89.355469 71.714844 C 89.355469 71.714844 89.472656 70.066406 88.148438 71.207031 L 87.054688 73.398438 L 85.921875 71.242188 C 85.800781 70.984375 85.640625 70.753906 85.445312 70.546875 C 85.246094 70.371094 84.792969 70.324219 84.625 70.332031 C 84.390625 70.339844 84.210938 71.285156 84.507812 71.722656 L 85.34375 74.070312 L 82.683594 73 C 82.683594 73 81.707031 73.371094 83.148438 74.398438 L 86.132812 76.074219 Z M 94.414062 88.527344 " fill-opacity="1" fill-rule="nonzero"/><path fill="rgb(11.369324%, 11.369324%, 10.5896%)" d="M 38.492188 94.832031 L 35.574219 94.832031 L 35.574219 91.570312 L 44.769531 91.570312 L 44.769531 94.832031 L 41.851562 94.832031 L 41.851562 104.066406 L 38.492188 104.066406 Z M 38.492188 94.832031 " fill-opacity="1" fill-rule="nonzero"/><path fill="rgb(11.369324%, 11.369324%, 10.5896%)" d="M 49.910156 100.921875 L 49 100.921875 L 49 104.066406 L 45.640625 104.066406 L 45.640625 91.566406 L 50.4375 91.566406 C 53.214844 91.566406 54.980469 93.386719 54.980469 96.28125 C 54.980469 98.082031 54.296875 99.441406 53.101562 100.207031 L 55.191406 104.066406 L 51.605469 104.066406 Z M 50.222656 94.816406 L 48.996094 94.816406 L 48.996094 97.75 L 50.222656 97.75 C 51.148438 97.75 51.589844 97.195312 51.589844 96.285156 C 51.589844 95.375 51.148438 94.816406 50.222656 94.816406 Z M 50.222656 94.816406 " fill-opacity="1" fill-rule="nonzero"/><path fill="rgb(11.369324%, 11.369324%, 10.5896%)" d="M 63.035156 101.886719 L 59.25 101.886719 L 58.582031 104.066406 L 55.167969 104.066406 L 59.523438 91.566406 L 62.824219 91.566406 L 67.179688 104.066406 L 63.707031 104.066406 Z M 62.117188 98.851562 L 61.144531 95.707031 L 60.175781 98.851562 Z M 62.117188 98.851562 " fill-opacity="1" fill-rule="nonzero"/><path fill="rgb(11.369324%, 11.369324%, 10.5896%)" d="M 67.09375 103.066406 L 68.175781 99.992188 C 69.117188 100.6875 70.367188 101.136719 71.464844 101.136719 C 72.417969 101.136719 72.761719 100.886719 72.761719 100.457031 C 72.761719 98.886719 67.25 100.152344 67.25 95.492188 C 67.25 93.171875 68.800781 91.28125 71.890625 91.28125 C 73.230469 91.28125 74.609375 91.636719 75.648438 92.367188 L 74.636719 95.421875 C 73.652344 94.796875 72.726562 94.496094 71.859375 94.496094 C 70.875 94.496094 70.5625 94.851562 70.5625 95.28125 C 70.5625 96.78125 76.074219 95.53125 76.074219 100.136719 C 76.074219 102.421875 74.519531 104.351562 71.433594 104.351562 C 69.769531 104.351562 68.089844 103.832031 67.09375 103.066406 Z M 67.09375 103.066406 " fill-opacity="1" fill-rule="nonzero"/><path fill="rgb(11.369324%, 11.369324%, 10.5896%)" d="M 86.894531 91.566406 L 86.894531 104.066406 L 83.535156 104.066406 L 83.535156 99.457031 L 80.433594 99.457031 L 80.433594 104.066406 L 77.074219 104.066406 L 77.074219 91.566406 L 80.433594 91.566406 L 80.433594 95.996094 L 83.535156 95.996094 L 83.535156 91.566406 Z M 86.894531 91.566406 " fill-opacity="1" fill-rule="nonzero"/><path fill="rgb(94.509888%, 52.159119%, 11.369324%)" d="M 38.492188 94.832031 L 35.574219 94.832031 L 35.574219 91.570312 L 44.769531 91.570312 L 44.769531 94.832031 L 41.851562 94.832031 L 41.851562 104.066406 L 38.492188 104.066406 Z M 38.492188 94.832031 " fill-opacity="1" fill-rule="nonzero"/><path fill="rgb(94.509888%, 52.159119%, 11.369324%)" d="M 49.910156 100.921875 L 49 100.921875 L 49 104.066406 L 45.640625 104.066406 L 45.640625 91.566406 L 50.4375 91.566406 C 53.214844 91.566406 54.980469 93.386719 54.980469 96.28125 C 54.980469 98.082031 54.296875 99.441406 53.101562 100.207031 L 55.191406 104.066406 L 51.605469 104.066406 Z M 50.222656 94.816406 L 48.996094 94.816406 L 48.996094 97.75 L 50.222656 97.75 C 51.148438 97.75 51.589844 97.195312 51.589844 96.285156 C 51.589844 95.375 51.148438 94.816406 50.222656 94.816406 Z M 50.222656 94.816406 " fill-opacity="1" fill-rule="nonzero"/><path fill="rgb(94.509888%, 52.159119%, 11.369324%)" d="M 63.035156 101.886719 L 59.25 101.886719 L 58.582031 104.066406 L 55.167969 104.066406 L 59.523438 91.566406 L 62.824219 91.566406 L 67.179688 104.066406 L 63.707031 104.066406 Z M 62.117188 98.851562 L 61.144531 95.707031 L 60.175781 98.851562 Z M 62.117188 98.851562 " fill-opacity="1" fill-rule="nonzero"/><path fill="rgb(94.509888%, 52.159119%, 11.369324%)" d="M 67.09375 103.066406 L 68.175781 99.992188 C 69.117188 100.6875 70.367188 101.136719 71.464844 101.136719 C 72.417969 101.136719 72.761719 100.886719 72.761719 100.457031 C 72.761719 98.886719 67.25 100.152344 67.25 95.492188 C 67.25 93.171875 68.800781 91.28125 71.890625 91.28125 C 73.230469 91.28125 74.609375 91.636719 75.648438 92.367188 L 74.636719 95.421875 C 73.652344 94.796875 72.726562 94.496094 71.859375 94.496094 C 70.875 94.496094 70.5625 94.851562 70.5625 95.28125 C 70.5625 96.78125 76.074219 95.53125 76.074219 100.136719 C 76.074219 102.421875 74.519531 104.351562 71.433594 104.351562 C 69.769531 104.351562 68.089844 103.832031 67.09375 103.066406 Z M 67.09375 103.066406 " fill-opacity="1" fill-rule="nonzero"/><path fill="rgb(94.509888%, 52.159119%, 11.369324%)" d="M 86.894531 91.566406 L 86.894531 104.066406 L 83.535156 104.066406 L 83.535156 99.457031 L 80.433594 99.457031 L 80.433594 104.066406 L 77.074219 104.066406 L 77.074219 91.566406 L 80.433594 91.566406 L 80.433594 95.996094 L 83.535156 95.996094 L 83.535156 91.566406 Z M 86.894531 91.566406 " fill-opacity="1" fill-rule="nonzero"/><path fill="rgb(97.648621%, 69.018555%, 8.628845%)" d="M 39.25 94.832031 L 36.332031 94.832031 L 36.332031 91.570312 L 45.527344 91.570312 L 45.527344 94.832031 L 42.609375 94.832031 L 42.609375 104.066406 L 39.25 104.066406 Z M 39.25 94.832031 " fill-opacity="1" fill-rule="nonzero"/><path fill="rgb(97.648621%, 69.018555%, 8.628845%)" d="M 50.667969 100.921875 L 49.753906 100.921875 L 49.753906 104.066406 L 46.394531 104.066406 L 46.394531 91.566406 L 51.191406 91.566406 C 53.96875 91.566406 55.734375 93.386719 55.734375 96.28125 C 55.734375 98.082031 55.050781 99.441406 53.855469 100.207031 L 55.949219 104.066406 L 52.359375 104.066406 Z M 50.980469 94.816406 L 49.75 94.816406 L 49.75 97.75 L 50.980469 97.75 C 51.90625 97.75 52.347656 97.195312 52.347656 96.285156 C 52.347656 95.375 51.90625 94.816406 50.980469 94.816406 Z M 50.980469 94.816406 " fill-opacity="1" fill-rule="nonzero"/><path fill="rgb(97.648621%, 69.018555%, 8.628845%)" d="M 63.792969 101.886719 L 60.007812 101.886719 L 59.339844 104.066406 L 55.914062 104.066406 L 60.269531 91.566406 L 63.574219 91.566406 L 67.929688 104.066406 L 64.453125 104.066406 Z M 62.871094 98.851562 L 61.898438 95.707031 L 60.929688 98.851562 Z M 62.871094 98.851562 " fill-opacity="1" fill-rule="nonzero"/><path fill="rgb(97.648621%, 69.018555%, 8.628845%)" d="M 67.851562 103.066406 L 68.929688 99.992188 C 69.871094 100.6875 71.125 101.136719 72.21875 101.136719 C 73.175781 101.136719 73.515625 100.886719 73.515625 100.457031 C 73.515625 98.886719 68.007812 100.152344 68.007812 95.492188 C 68.007812 93.171875 69.558594 91.28125 72.648438 91.28125 C 73.984375 91.28125 75.367188 91.636719 76.40625 92.367188 L 75.394531 95.421875 C 74.414062 94.796875 73.488281 94.492188 72.617188 94.492188 C 71.636719 94.492188 71.324219 94.851562 71.324219 95.28125 C 71.324219 96.78125 76.832031 95.53125 76.832031 100.136719 C 76.832031 102.421875 75.28125 104.347656 72.191406 104.347656 C 70.527344 104.351562 68.847656 103.832031 67.851562 103.066406 Z M 67.851562 103.066406 " fill-opacity="1" fill-rule="nonzero"/><path fill="rgb(97.648621%, 69.018555%, 8.628845%)" d="M 87.652344 91.566406 L 87.652344 104.066406 L 84.292969 104.066406 L 84.292969 99.457031 L 81.1875 99.457031 L 81.1875 104.066406 L 77.828125 104.066406 L 77.828125 91.566406 L 81.1875 91.566406 L 81.1875 95.996094 L 84.292969 95.996094 L 84.292969 91.566406 Z M 87.652344 91.566406 " fill-opacity="1" fill-rule="nonzero"/><path fill="rgb(11.369324%, 11.369324%, 10.5896%)" d="M 136.234375 96.609375 C 136.234375 92.675781 138.578125 89.914062 141.773438 89.914062 C 143.71875 89.914062 145.25 90.832031 146.234375 92.472656 L 144.117188 94.90625 C 143.535156 93.957031 142.839844 93.40625 141.941406 93.40625 C 140.550781 93.40625 139.613281 94.652344 139.613281 96.609375 C 139.613281 98.566406 140.550781 99.808594 141.941406 99.808594 C 142.839844 99.808594 143.535156 99.261719 144.117188 98.308594 L 146.238281 100.742188 C 145.257812 102.386719 143.722656 103.304688 141.777344 103.304688 C 138.578125 103.304688 136.234375 100.539062 136.234375 96.609375 Z M 136.234375 96.609375 " fill-opacity="1" fill-rule="nonzero"/><path fill="rgb(11.369324%, 11.369324%, 10.5896%)" d="M 153.832031 100.777344 L 150.054688 100.777344 L 149.386719 103.011719 L 145.976562 103.011719 L 150.328125 90.203125 L 153.625 90.203125 L 157.972656 103.011719 L 154.503906 103.011719 Z M 152.914062 97.667969 L 151.945312 94.449219 L 150.980469 97.667969 Z M 152.914062 97.667969 " fill-opacity="1" fill-rule="nonzero"/><path fill="rgb(11.369324%, 11.369324%, 10.5896%)" d="M 160.167969 93.554688 L 157.253906 93.554688 L 157.253906 90.203125 L 166.433594 90.203125 L 166.433594 93.554688 L 163.523438 93.554688 L 163.523438 103.011719 L 160.171875 103.011719 Z M 160.167969 93.554688 " fill-opacity="1" fill-rule="nonzero"/><path fill="rgb(11.369324%, 11.369324%, 10.5896%)" d="M 166.757812 96.609375 C 166.757812 92.675781 169.101562 89.914062 172.300781 89.914062 C 174.242188 89.914062 175.777344 90.832031 176.757812 92.472656 L 174.644531 94.90625 C 174.0625 93.957031 173.363281 93.40625 172.46875 93.40625 C 171.078125 93.40625 170.140625 94.652344 170.140625 96.609375 C 170.140625 98.566406 171.078125 99.808594 172.46875 99.808594 C 173.363281 99.808594 174.0625 99.261719 174.644531 98.308594 L 176.757812 100.742188 C 175.78125 102.386719 174.246094 103.304688 172.300781 103.304688 C 169.101562 103.304688 166.757812 100.539062 166.757812 96.609375 Z M 166.757812 96.609375 " fill-opacity="1" fill-rule="nonzero"/><path fill="rgb(11.369324%, 11.369324%, 10.5896%)" d="M 187.527344 90.203125 L 187.527344 103.011719 L 184.175781 103.011719 L 184.175781 98.292969 L 181.078125 98.292969 L 181.078125 103.011719 L 177.726562 103.011719 L 177.726562 90.203125 L 181.078125 90.203125 L 181.078125 94.742188 L 184.175781 94.742188 L 184.175781 90.203125 Z M 187.527344 90.203125 " fill-opacity="1" fill-rule="nonzero"/><path fill="rgb(11.369324%, 11.369324%, 10.5896%)" d="M 197.414062 99.753906 L 197.414062 103.011719 L 189.144531 103.011719 L 189.144531 90.203125 L 197.226562 90.203125 L 197.226562 93.464844 L 192.4375 93.464844 L 192.4375 94.964844 L 196.644531 94.964844 L 196.644531 98.074219 L 192.441406 98.074219 L 192.441406 99.757812 Z M 197.414062 99.753906 " fill-opacity="1" fill-rule="nonzero"/><path fill="rgb(11.369324%, 11.369324%, 10.5896%)" d="M 202.964844 99.789062 L 202.058594 99.789062 L 202.058594 103.007812 L 198.707031 103.007812 L 198.707031 90.203125 L 203.492188 90.203125 C 206.261719 90.203125 208.023438 92.070312 208.023438 95.035156 C 208.023438 96.882812 207.339844 98.273438 206.148438 99.058594 L 208.238281 103.011719 L 204.65625 103.011719 Z M 203.28125 93.53125 L 202.050781 93.53125 L 202.050781 96.53125 L 203.28125 96.53125 C 204.199219 96.53125 204.644531 95.964844 204.644531 95.03125 C 204.644531 94.097656 204.203125 93.535156 203.28125 93.535156 Z M 203.28125 93.53125 " fill-opacity="1" fill-rule="nonzero"/><path fill="rgb(11.369324%, 11.369324%, 10.5896%)" d="M 208.792969 90.203125 L 212.621094 90.203125 L 211.984375 98.109375 L 209.425781 98.109375 Z M 208.832031 101 C 208.832031 99.773438 209.601562 98.839844 210.707031 98.839844 C 211.816406 98.839844 212.585938 99.773438 212.585938 101 C 212.585938 102.207031 211.816406 103.195312 210.707031 103.195312 C 209.597656 103.195312 208.839844 102.207031 208.839844 101 Z M 208.832031 101 " fill-opacity="1" fill-rule="nonzero"/><path fill="rgb(94.509888%, 52.159119%, 11.369324%)" d="M 136.234375 96.609375 C 136.234375 92.675781 138.578125 89.914062 141.773438 89.914062 C 143.71875 89.914062 145.25 90.832031 146.234375 92.472656 L 144.117188 94.90625 C 143.535156 93.957031 142.839844 93.40625 141.941406 93.40625 C 140.550781 93.40625 139.613281 94.652344 139.613281 96.609375 C 139.613281 98.566406 140.550781 99.808594 141.941406 99.808594 C 142.839844 99.808594 143.535156 99.261719 144.117188 98.308594 L 146.238281 100.742188 C 145.257812 102.386719 143.722656 103.304688 141.777344 103.304688 C 138.578125 103.304688 136.234375 100.539062 136.234375 96.609375 Z M 136.234375 96.609375 " fill-opacity="1" fill-rule="nonzero"/><path fill="rgb(94.509888%, 52.159119%, 11.369324%)" d="M 153.832031 100.78125 L 150.054688 100.78125 L 149.386719 103.011719 L 145.976562 103.011719 L 150.328125 90.207031 L 153.625 90.207031 L 157.972656 103.011719 L 154.503906 103.011719 Z M 152.914062 97.667969 L 151.945312 94.449219 L 150.980469 97.667969 Z M 152.914062 97.667969 " fill-opacity="1" fill-rule="nonzero"/><path fill="rgb(94.509888%, 52.159119%, 11.369324%)" d="M 160.167969 93.554688 L 157.253906 93.554688 L 157.253906 90.207031 L 166.433594 90.207031 L 166.433594 93.554688 L 163.523438 93.554688 L 163.523438 103.011719 L 160.171875 103.011719 Z M 160.167969 93.554688 " fill-opacity="1" fill-rule="nonzero"/><path fill="rgb(94.509888%, 52.159119%, 11.369324%)" d="M 166.757812 96.609375 C 166.757812 92.675781 169.101562 89.914062 172.300781 89.914062 C 174.242188 89.914062 175.777344 90.832031 176.757812 92.472656 L 174.644531 94.90625 C 174.0625 93.957031 173.363281 93.40625 172.46875 93.40625 C 171.078125 93.40625 170.140625 94.652344 170.140625 96.609375 C 170.140625 98.566406 171.078125 99.808594 172.46875 99.808594 C 173.363281 99.808594 174.0625 99.261719 174.644531 98.308594 L 176.757812 100.742188 C 175.78125 102.386719 174.246094 103.304688 172.300781 103.304688 C 169.101562 103.304688 166.757812 100.539062 166.757812 96.609375 Z M 166.757812 96.609375 " fill-opacity="1" fill-rule="nonzero"/><path fill="rgb(94.509888%, 52.159119%, 11.369324%)" d="M 187.527344 90.207031 L 187.527344 103.011719 L 184.175781 103.011719 L 184.175781 98.292969 L 181.078125 98.292969 L 181.078125 103.011719 L 177.726562 103.011719 L 177.726562 90.207031 L 181.078125 90.207031 L 181.078125 94.742188 L 184.175781 94.742188 L 184.175781 90.207031 Z M 187.527344 90.207031 " fill-opacity="1" fill-rule="nonzero"/><path fill="rgb(94.509888%, 52.159119%, 11.369324%)" d="M 197.414062 99.753906 L 197.414062 103.011719 L 189.144531 103.011719 L 189.144531 90.207031 L 197.226562 90.207031 L 197.226562 93.464844 L 192.4375 93.464844 L 192.4375 94.964844 L 196.644531 94.964844 L 196.644531 98.074219 L 192.441406 98.074219 L 192.441406 99.757812 Z M 197.414062 99.753906 " fill-opacity="1" fill-rule="nonzero"/><path fill="rgb(94.509888%, 52.159119%, 11.369324%)" d="M 202.964844 99.789062 L 202.058594 99.789062 L 202.058594 103.007812 L 198.707031 103.007812 L 198.707031 90.207031 L 203.492188 90.207031 C 206.261719 90.207031 208.023438 92.070312 208.023438 95.035156 C 208.023438 96.882812 207.339844 98.273438 206.148438 99.058594 L 208.238281 103.011719 L 204.65625 103.011719 Z M 203.28125 93.53125 L 202.050781 93.53125 L 202.050781 96.535156 L 203.28125 96.535156 C 204.199219 96.535156 204.644531 95.964844 204.644531 95.03125 C 204.644531 94.097656 204.203125 93.535156 203.28125 93.535156 Z M 203.28125 93.53125 " fill-opacity="1" fill-rule="nonzero"/><path fill="rgb(94.509888%, 52.159119%, 11.369324%)" d="M 208.792969 90.207031 L 212.621094 90.207031 L 211.984375 98.109375 L 209.425781 98.109375 Z M 208.832031 101 C 208.832031 99.773438 209.601562 98.839844 210.707031 98.839844 C 211.816406 98.839844 212.585938 99.773438 212.585938 101 C 212.585938 102.207031 211.816406 103.195312 210.707031 103.195312 C 209.597656 103.195312 208.839844 102.207031 208.839844 101 Z M 208.832031 101 " fill-opacity="1" fill-rule="nonzero"/><path fill="rgb(97.648621%, 69.018555%, 8.628845%)" d="M 137.207031 96.609375 C 137.207031 92.675781 139.550781 89.914062 142.746094 89.914062 C 144.691406 89.914062 146.226562 90.832031 147.207031 92.472656 L 145.089844 94.90625 C 144.507812 93.957031 143.8125 93.40625 142.917969 93.40625 C 141.523438 93.40625 140.585938 94.652344 140.585938 96.609375 C 140.585938 98.566406 141.523438 99.808594 142.917969 99.808594 C 143.8125 99.808594 144.507812 99.261719 145.089844 98.308594 L 147.207031 100.742188 C 146.226562 102.386719 144.691406 103.304688 142.746094 103.304688 C 139.550781 103.304688 137.207031 100.539062 137.207031 96.609375 Z M 137.207031 96.609375 " fill-opacity="1" fill-rule="nonzero"/><path fill="rgb(97.648621%, 69.018555%, 8.628845%)" d="M 154.804688 100.777344 L 151.027344 100.777344 L 150.359375 103.011719 L 146.953125 103.011719 L 151.300781 90.203125 L 154.59375 90.203125 L 158.941406 103.011719 L 155.472656 103.011719 Z M 153.886719 97.667969 L 152.917969 94.449219 L 151.953125 97.667969 Z M 153.886719 97.667969 " fill-opacity="1" fill-rule="nonzero"/><path fill="rgb(97.648621%, 69.018555%, 8.628845%)" d="M 161.140625 93.554688 L 158.230469 93.554688 L 158.230469 90.203125 L 167.410156 90.203125 L 167.410156 93.554688 L 164.5 93.554688 L 164.5 103.011719 L 161.148438 103.011719 Z M 161.140625 93.554688 " fill-opacity="1" fill-rule="nonzero"/><path fill="rgb(97.648621%, 69.018555%, 8.628845%)" d="M 167.734375 96.609375 C 167.734375 92.675781 170.078125 89.914062 173.273438 89.914062 C 175.214844 89.914062 176.75 90.832031 177.734375 92.472656 L 175.617188 94.90625 C 175.035156 93.957031 174.339844 93.40625 173.441406 93.40625 C 172.050781 93.40625 171.113281 94.652344 171.113281 96.609375 C 171.113281 98.566406 172.050781 99.808594 173.441406 99.808594 C 174.339844 99.808594 175.035156 99.261719 175.617188 98.308594 L 177.734375 100.742188 C 176.753906 102.386719 175.21875 103.304688 173.273438 103.304688 C 170.078125 103.304688 167.734375 100.539062 167.734375 96.609375 Z M 167.734375 96.609375 " fill-opacity="1" fill-rule="nonzero"/><path fill="rgb(97.648621%, 69.018555%, 8.628845%)" d="M 188.5 90.203125 L 188.5 103.011719 L 185.148438 103.011719 L 185.148438 98.292969 L 182.050781 98.292969 L 182.050781 103.011719 L 178.699219 103.011719 L 178.699219 90.203125 L 182.050781 90.203125 L 182.050781 94.742188 L 185.148438 94.742188 L 185.148438 90.203125 Z M 188.5 90.203125 " fill-opacity="1" fill-rule="nonzero"/><path fill="rgb(97.648621%, 69.018555%, 8.628845%)" d="M 198.386719 99.753906 L 198.386719 103.011719 L 190.121094 103.011719 L 190.121094 90.203125 L 198.199219 90.203125 L 198.199219 93.464844 L 193.414062 93.464844 L 193.414062 94.964844 L 197.617188 94.964844 L 197.617188 98.074219 L 193.414062 98.074219 L 193.414062 99.757812 Z M 198.386719 99.753906 " fill-opacity="1" fill-rule="nonzero"/><path fill="rgb(97.648621%, 69.018555%, 8.628845%)" d="M 203.941406 99.789062 L 203.03125 99.789062 L 203.03125 103.007812 L 199.679688 103.007812 L 199.679688 90.203125 L 204.464844 90.203125 C 207.234375 90.203125 208.996094 92.070312 208.996094 95.035156 C 208.996094 96.882812 208.316406 98.273438 207.121094 99.058594 L 209.210938 103.011719 L 205.628906 103.011719 Z M 204.253906 93.53125 L 203.03125 93.53125 L 203.03125 96.53125 L 204.253906 96.53125 C 205.171875 96.53125 205.617188 95.964844 205.617188 95.03125 C 205.617188 94.097656 205.175781 93.535156 204.253906 93.535156 Z M 204.253906 93.53125 " fill-opacity="1" fill-rule="nonzero"/><path fill="rgb(97.648621%, 69.018555%, 8.628845%)" d="M 209.765625 90.203125 L 213.601562 90.203125 L 212.960938 98.109375 L 210.402344 98.109375 Z M 209.808594 101 C 209.808594 99.773438 210.574219 98.839844 211.683594 98.839844 C 212.789062 98.839844 213.558594 99.773438 213.558594 101 C 213.558594 102.207031 212.789062 103.195312 211.683594 103.195312 C 210.574219 103.195312 209.808594 102.207031 209.808594 101 Z M 209.808594 101 " fill-opacity="1" fill-rule="nonzero"/><path fill="rgb(90.979004%, 30.589294%, 5.879211%)" d="M 141.386719 61.390625 C 142.105469 60.648438 144.714844 58.382812 147.140625 61.679688 C 147.144531 61.6875 147.148438 61.695312 147.152344 61.699219 L 147.226562 61.859375 C 147.242188 61.898438 147.273438 61.921875 147.316406 61.925781 C 147.503906 61.945312 148.078125 62.054688 148.488281 62.742188 C 148.511719 62.773438 148.539062 62.792969 148.578125 62.796875 C 148.953125 62.820312 150.933594 63.011719 151.101562 64.4375 C 151.105469 64.453125 151.109375 64.46875 151.113281 64.480469 C 151.191406 64.625 151.660156 65.617188 150.863281 67.207031 C 150.84375 67.25 150.8125 67.273438 150.765625 67.277344 C 150.71875 67.277344 150.683594 67.261719 150.660156 67.21875 C 150.351562 66.742188 149.363281 65.429688 147.929688 65.523438 C 147.886719 65.527344 147.851562 65.511719 147.828125 65.476562 C 147.691406 65.289062 147.152344 64.632812 146.394531 64.617188 C 146.347656 64.617188 146.3125 64.59375 146.292969 64.546875 C 146.222656 64.378906 145.988281 63.964844 145.269531 63.917969 C 145.226562 63.914062 145.195312 63.894531 145.175781 63.855469 C 144.996094 63.480469 143.929688 61.507812 141.472656 61.582031 C 141.421875 61.582031 141.386719 61.5625 141.367188 61.515625 C 141.34375 61.46875 141.351562 61.425781 141.386719 61.390625 Z M 141.386719 61.390625 " fill-opacity="1" fill-rule="nonzero"/><path fill="rgb(98.429871%, 94.898987%, 63.529968%)" d="M 144.089844 65.429688 L 144.226562 65.226562 C 144.25 65.195312 144.277344 65.179688 144.3125 65.175781 C 144.402344 65.164062 144.5625 65.113281 144.425781 64.84375 C 144.40625 64.808594 144.40625 64.769531 144.425781 64.734375 L 145.019531 63.652344 C 145.042969 63.609375 145.074219 63.589844 145.121094 63.589844 C 145.167969 63.589844 145.203125 63.609375 145.222656 63.652344 L 145.261719 63.722656 C 145.28125 63.761719 145.316406 63.78125 145.363281 63.78125 C 145.566406 63.78125 146.207031 63.828125 146.394531 64.421875 C 146.40625 64.464844 146.4375 64.492188 146.480469 64.5 C 146.664062 64.535156 147.15625 64.652344 147.304688 64.886719 C 147.347656 64.953125 147.335938 65.007812 147.269531 65.046875 L 146.859375 65.300781 C 146.851562 65.304688 146.84375 65.308594 146.835938 65.316406 L 146.09375 66.046875 C 146.082031 66.058594 146.074219 66.066406 146.0625 66.070312 C 145.976562 66.113281 145.609375 66.292969 145.507812 66.40625 C 145.503906 66.410156 145.5 66.410156 145.5 66.414062 L 145.070312 66.988281 L 144.648438 67.601562 L 144.636719 67.613281 L 144.101562 68.242188 L 144.089844 68.253906 C 144.035156 68.304688 143.589844 68.722656 143.707031 69.21875 C 143.777344 69.535156 143.945312 69.785156 144.21875 69.96875 L 144.226562 69.972656 L 144.664062 70.175781 L 144.679688 70.1875 L 145.054688 70.433594 C 145.070312 70.441406 145.082031 70.457031 145.09375 70.472656 C 145.183594 70.648438 145.296875 70.808594 145.433594 70.949219 C 145.46875 70.980469 145.480469 71.019531 145.464844 71.066406 C 145.453125 71.109375 145.425781 71.136719 145.378906 71.148438 L 145.285156 71.167969 C 145.273438 71.171875 145.261719 71.171875 145.25 71.167969 L 144.820312 71.136719 C 144.8125 71.136719 144.808594 71.136719 144.800781 71.136719 L 144.347656 71.015625 L 144.328125 71.007812 L 143.835938 70.765625 L 143.824219 70.757812 L 143.414062 70.476562 L 143.402344 70.464844 L 143.128906 70.210938 C 143.09375 70.179688 143.085938 70.144531 143.09375 70.101562 L 143.148438 69.835938 C 143.160156 69.785156 143.144531 69.742188 143.097656 69.714844 C 142.9375 69.621094 142.523438 69.410156 142.097656 69.433594 C 142.042969 69.4375 142.003906 69.410156 141.984375 69.355469 L 141.894531 69.089844 C 141.894531 69.089844 141.894531 68.96875 141.585938 69.101562 L 141.574219 69.109375 C 141.390625 69.210938 141.203125 69.214844 141.015625 69.128906 L 141 69.121094 C 140.925781 69.101562 140.355469 68.933594 140.117188 68.65625 C 140.09375 68.632812 139.828125 68.351562 140.003906 67.871094 C 140.023438 67.820312 140.011719 67.777344 139.96875 67.742188 L 139.46875 67.335938 C 139.457031 67.328125 139.449219 67.320312 139.445312 67.308594 L 139.273438 67.03125 C 139.242188 66.980469 139.25 66.933594 139.292969 66.890625 C 139.335938 66.847656 139.382812 66.84375 139.433594 66.875 L 139.933594 67.1875 L 139.949219 67.195312 L 141.207031 67.707031 C 141.222656 67.710938 141.234375 67.71875 141.242188 67.730469 C 141.273438 67.757812 141.394531 67.824219 141.789062 67.710938 C 141.796875 67.707031 141.804688 67.703125 141.8125 67.699219 L 142.398438 67.382812 C 142.410156 67.378906 142.417969 67.371094 142.429688 67.359375 L 142.929688 66.820312 L 142.933594 66.816406 L 143.242188 66.441406 L 143.65625 65.917969 L 143.65625 65.914062 L 144.082031 65.453125 Z M 144.089844 65.429688 " fill-opacity="1" fill-rule="nonzero"/><path fill="rgb(90.979004%, 30.589294%, 5.879211%)" d="M 146.523438 71.066406 C 146.457031 71.261719 146.1875 71.769531 145.15625 72.070312 L 145.132812 72.070312 C 145.007812 72.078125 143.894531 72.164062 143.351562 71.894531 C 143.351562 71.894531 142.21875 71.328125 142.066406 71.222656 C 141.917969 71.121094 141.273438 70.425781 141.273438 70.425781 C 140.78125 69.941406 140.222656 69.542969 139.605469 69.230469 C 139.59375 69.226562 139.585938 69.21875 139.574219 69.210938 C 139.316406 68.9375 139.121094 68.628906 138.988281 68.277344 C 138.984375 68.269531 138.984375 68.261719 138.984375 68.25 C 138.96875 68.128906 138.878906 67.214844 139.011719 66.953125 C 139.015625 66.949219 139.015625 66.941406 139.019531 66.9375 L 139.140625 66.601562 C 139.15625 66.554688 139.1875 66.527344 139.238281 66.523438 C 139.289062 66.519531 139.324219 66.539062 139.351562 66.582031 C 139.492188 66.859375 139.765625 67.285156 140.136719 67.46875 C 140.191406 67.496094 140.210938 67.539062 140.195312 67.597656 C 140.125 67.914062 140.039062 68.933594 141.925781 68.761719 C 141.976562 68.757812 142.011719 68.777344 142.035156 68.824219 L 142.175781 69.09375 C 142.199219 69.136719 142.230469 69.15625 142.277344 69.15625 C 142.484375 69.15625 143.113281 69.195312 143.320312 69.410156 C 143.351562 69.441406 143.359375 69.480469 143.34375 69.523438 C 143.300781 69.644531 143.230469 69.933594 143.457031 70.046875 L 143.464844 70.050781 L 144.457031 70.683594 C 144.46875 70.6875 144.480469 70.695312 144.492188 70.699219 L 145.34375 70.875 C 145.359375 70.878906 145.371094 70.878906 145.386719 70.875 L 145.882812 70.789062 C 145.894531 70.789062 145.90625 70.789062 145.917969 70.789062 C 146.105469 70.8125 146.289062 70.855469 146.46875 70.917969 C 146.53125 70.953125 146.550781 71 146.523438 71.066406 Z M 146.523438 71.066406 " fill-opacity="1" fill-rule="nonzero"/><path fill="rgb(52.938843%, 35.289001%, 7.449341%)" d="M 148.714844 60.816406 C 148.714844 60.816406 149.113281 60.726562 149.269531 61.019531 C 149.320312 61.082031 149.3125 61.136719 149.253906 61.191406 C 149.128906 61.226562 149.011719 61.285156 148.910156 61.367188 L 148.636719 61.589844 L 148.464844 61.757812 L 148.332031 61.949219 L 148.203125 62.136719 L 148.203125 62.183594 L 148.15625 62.285156 L 148.117188 62.34375 C 147.984375 62.230469 147.839844 62.140625 147.683594 62.066406 L 148 61.691406 L 148.148438 61.476562 L 148.328125 61.226562 L 148.46875 61.023438 L 148.617188 60.871094 Z M 148.714844 60.816406 " fill-opacity="1" fill-rule="nonzero"/><path fill="rgb(97.24884%, 66.668701%, 0%)" d="M 94.046875 54.695312 L 93.675781 53.960938 L 95.75 52.035156 L 97.59375 50.226562 L 97.960938 50.226562 L 96.488281 51.839844 L 95.820312 52.460938 L 95.210938 53.054688 L 94.925781 53.59375 L 94.613281 54.128906 Z M 94.046875 54.695312 " fill-opacity="1" fill-rule="nonzero"/><path fill="rgb(97.24884%, 66.668701%, 0%)" d="M 100.328125 53.425781 C 100.328125 53.425781 99.398438 53.242188 98.773438 52.5625 C 98.476562 52.261719 98.292969 51.902344 98.226562 51.484375 L 97.773438 50.441406 L 97.402344 50.441406 L 96.328125 50.664062 C 96.328125 50.664062 95.140625 50.9375 94.585938 50.511719 L 94.207031 50.148438 L 93.902344 49.859375 L 93.480469 49.738281 L 92.472656 49.648438 L 93.480469 49.152344 L 94.054688 48.773438 L 94.390625 48.511719 L 94.03125 48.390625 L 93.660156 48.222656 L 93.480469 48.09375 L 93.3125 47.929688 L 93.125 47.734375 L 92.890625 47.363281 L 92.671875 47.089844 L 92.535156 46.953125 L 92.34375 46.835938 L 92.253906 46.769531 L 92.367188 46.714844 L 92.585938 46.648438 L 92.996094 46.503906 C 93.066406 46.492188 93.128906 46.464844 93.183594 46.414062 C 93.289062 46.332031 93.351562 46.035156 93.351562 46.035156 C 93.363281 45.882812 93.359375 45.730469 93.335938 45.578125 L 93.175781 45.191406 L 92.820312 44.542969 L 93.054688 44.542969 L 93.328125 44.59375 L 93.53125 44.640625 L 93.402344 44.117188 L 93.410156 43.621094 L 93.464844 43.152344 L 93.527344 42.8125 L 93.585938 42.269531 C 93.585938 42.269531 93.609375 42.214844 93.78125 42.398438 L 94.292969 43.070312 C 94.292969 43.070312 94.71875 43.636719 95.617188 43.867188 C 95.742188 43.628906 95.898438 43.414062 96.097656 43.226562 C 96.179688 43.691406 96.378906 44.101562 96.6875 44.457031 L 97.199219 44.933594 C 97.199219 44.933594 97.460938 45.230469 97.515625 45.5 C 97.570312 45.773438 97.660156 45.855469 97.660156 45.855469 C 97.660156 45.855469 97.941406 45.265625 98.0625 44.925781 C 98.0625 44.925781 98.046875 44.390625 97.949219 44.238281 L 97.707031 43.800781 L 98.257812 43.945312 C 98.257812 43.945312 98.789062 44.148438 99.007812 43.394531 L 99.046875 41.972656 L 99.21875 42.117188 L 99.796875 42.746094 L 100.054688 42.949219 C 100.054688 42.949219 100.578125 43.191406 100.699219 42.074219 L 100.800781 42.105469 L 100.9375 42.164062 L 101.15625 42.226562 L 101.453125 42.21875 L 102.027344 42.21875 C 102.523438 42.042969 102.980469 41.789062 103.390625 41.464844 L 103.421875 42.46875 C 103.421875 42.46875 103.4375 43.171875 103.703125 43.191406 L 104.351562 43.417969 L 104.195312 43.714844 L 103.992188 44.039062 C 103.992188 44.039062 103.871094 44.300781 103.902344 44.46875 C 103.953125 44.628906 104.027344 44.78125 104.121094 44.921875 C 104.121094 44.921875 104.566406 45.195312 104.800781 45.210938 L 105.542969 45.328125 C 105.542969 45.328125 105.558594 45.351562 105.476562 45.457031 C 105.394531 45.566406 104 46.546875 104 46.546875 L 103.734375 46.808594 L 104.597656 47.105469 L 104.226562 47.257812 L 103.855469 47.332031 L 103.488281 47.449219 L 103.148438 47.535156 L 102.769531 47.707031 L 102.566406 47.84375 L 102.257812 47.976562 L 101.84375 48.320312 C 101.84375 48.320312 102.917969 48.269531 103.636719 48.464844 L 104.148438 48.660156 L 104.503906 48.644531 L 104.703125 48.628906 C 104.703125 48.628906 104.851562 48.628906 104.804688 48.804688 C 104.804688 48.804688 105.070312 49.519531 105.394531 49.621094 C 105.839844 49.941406 106.328125 50.160156 106.863281 50.277344 C 106.863281 50.277344 107.105469 50.453125 106.6875 50.46875 L 106.191406 50.527344 L 105.824219 50.617188 L 105.265625 50.808594 L 104.257812 51.167969 C 104.257812 51.167969 104.183594 51.238281 104.480469 51.410156 L 104.605469 51.5625 L 103.910156 51.601562 L 103.417969 51.617188 C 103.417969 51.617188 102.820312 51.644531 102.5625 52.082031 L 102.484375 52.296875 C 102.484375 52.296875 101.933594 52.089844 101.011719 52.160156 C 101.011719 52.160156 100.246094 52.09375 100.265625 52.777344 L 100.265625 52.832031 C 100.339844 53.570312 100.328125 53.425781 100.328125 53.425781 Z M 100.328125 53.425781 " fill-opacity="1" fill-rule="nonzero"/><path fill="rgb(99.609375%, 77.648926%, 0%)" d="M 97.203125 49.796875 C 97.203125 49.796875 94.835938 51.28125 94.488281 49.796875 C 94.488281 49.796875 94.855469 50.847656 97.203125 49.796875 Z M 97.203125 49.796875 " fill-opacity="1" fill-rule="nonzero"/><path fill="rgb(99.609375%, 77.648926%, 0%)" d="M 94.671875 48.453125 C 93.945312 48.324219 93.421875 47.929688 93.101562 47.261719 L 92.546875 46.808594 L 92.707031 46.808594 L 93.222656 47.195312 C 93.222656 47.195312 93.238281 47.675781 94.671875 48.453125 Z M 94.671875 48.453125 " fill-opacity="1" fill-rule="nonzero"/><path fill="rgb(99.609375%, 77.648926%, 0%)" d="M 97.445312 50.121094 C 97.445312 50.121094 100.640625 50.601562 103.246094 41.699219 C 103.242188 41.699219 100.703125 49.539062 97.445312 50.121094 Z M 97.445312 50.121094 " fill-opacity="1" fill-rule="nonzero"/><path fill="rgb(99.609375%, 77.648926%, 0%)" d="M 99.011719 48.675781 C 99.011719 48.675781 101.0625 47.652344 102.226562 42.679688 C 102.226562 42.679688 100.40625 47.953125 99.011719 48.675781 Z M 99.011719 48.675781 " fill-opacity="1" fill-rule="nonzero"/><path fill="rgb(99.609375%, 77.648926%, 0%)" d="M 98.445312 51.339844 C 98.445312 51.339844 98.53125 52.953125 99.941406 53.078125 C 99.175781 52.726562 98.675781 52.148438 98.445312 51.339844 Z M 98.445312 51.339844 " fill-opacity="1" fill-rule="nonzero"/><path fill="rgb(99.609375%, 77.648926%, 0%)" d="M 97.960938 49.101562 C 97.960938 49.101562 99.652344 49.058594 101.398438 44 C 101.398438 44.003906 99.183594 49.140625 97.960938 49.101562 Z M 97.960938 49.101562 " fill-opacity="1" fill-rule="nonzero"/><path fill="rgb(99.609375%, 77.648926%, 0%)" d="M 103.242188 46.71875 L 105.128906 45.496094 C 105.128906 45.496094 103.714844 45.738281 103.242188 46.71875 Z M 103.242188 46.71875 " fill-opacity="1" fill-rule="nonzero"/><path fill="rgb(99.609375%, 77.648926%, 0%)" d="M 103.242188 43.09375 L 101.402344 47.027344 C 101.402344 47.027344 103.242188 44.484375 103.242188 43.09375 Z M 103.242188 43.09375 " fill-opacity="1" fill-rule="nonzero"/><path fill="rgb(99.609375%, 77.648926%, 0%)" d="M 95.820312 44.003906 L 95.992188 43.578125 C 95.992188 43.578125 96.363281 44.707031 96.574219 44.632812 C 96.574219 44.632812 97.289062 45.152344 97.316406 45.675781 C 97.339844 46.199219 97.097656 45.101562 96.566406 44.859375 L 95.945312 44.007812 Z M 95.820312 44.003906 " fill-opacity="1" fill-rule="nonzero"/><path fill="rgb(99.609375%, 77.648926%, 0%)" d="M 93.675781 42.679688 C 93.675781 42.679688 94.796875 44.3125 95.257812 44.003906 C 95.257812 44.003906 94.488281 44.625 93.675781 42.679688 Z M 93.675781 42.679688 " fill-opacity="1" fill-rule="nonzero"/><path fill="rgb(99.609375%, 77.648926%, 0%)" d="M 93.675781 42.980469 C 93.675781 42.980469 93.433594 43.820312 93.871094 44.390625 Z M 93.675781 42.980469 " fill-opacity="1" fill-rule="nonzero"/><path fill="rgb(99.609375%, 77.648926%, 0%)" d="M 93.871094 43.578125 C 93.871094 43.578125 94.113281 44.175781 94.902344 44.394531 C 94.902344 44.390625 93.90625 44.257812 93.871094 43.578125 Z M 93.871094 43.578125 " fill-opacity="1" fill-rule="nonzero"/><path fill="rgb(99.609375%, 77.648926%, 0%)" d="M 106.367188 50.328125 C 106.367188 50.328125 104.816406 50.226562 104.183594 50.917969 C 104.878906 50.59375 105.605469 50.394531 106.367188 50.328125 Z M 106.367188 50.328125 " fill-opacity="1" fill-rule="nonzero"/><path fill="rgb(99.609375%, 77.648926%, 0%)" d="M 105.980469 50.128906 C 105.980469 50.128906 105 49.941406 104.753906 49.351562 C 104.753906 49.351562 104.816406 50.3125 105.980469 50.128906 Z M 105.980469 50.128906 " fill-opacity="1" fill-rule="nonzero"/><path fill="rgb(99.609375%, 77.648926%, 0%)" d="M 104.328125 51.46875 C 104.328125 51.46875 102.996094 51.347656 102.691406 51.652344 C 102.695312 51.652344 103.144531 50.960938 104.328125 51.46875 Z M 104.328125 51.46875 " fill-opacity="1" fill-rule="nonzero"/><path fill="rgb(99.609375%, 77.648926%, 0%)" d="M 103.957031 48.765625 C 103.957031 48.765625 103.140625 48.316406 101.902344 48.453125 C 101.902344 48.453125 103.671875 48.585938 103.957031 48.765625 Z M 103.957031 48.765625 " fill-opacity="1" fill-rule="nonzero"/><path fill="rgb(99.609375%, 77.648926%, 0%)" d="M 102.226562 47.820312 C 102.226562 47.820312 101.566406 48.285156 101.566406 48.59375 C 101.566406 48.59375 101.304688 48.113281 102.226562 47.820312 Z M 102.226562 47.820312 " fill-opacity="1" fill-rule="nonzero"/><path fill="rgb(99.609375%, 77.648926%, 0%)" d="M 104.617188 48.765625 C 104.617188 48.765625 103.8125 48.675781 103.511719 48.851562 C 103.207031 49.03125 103.652344 48.886719 104.617188 48.765625 Z M 104.617188 48.765625 " fill-opacity="1" fill-rule="nonzero"/><path fill="rgb(99.609375%, 77.648926%, 0%)" d="M 98.367188 44.390625 C 98.367188 44.390625 98.382812 45.757812 97.550781 46.199219 C 97.554688 46.199219 98.171875 45.734375 98.367188 44.390625 Z M 98.367188 44.390625 " fill-opacity="1" fill-rule="nonzero"/><path fill="rgb(99.609375%, 77.648926%, 0%)" d="M 97.921875 50.34375 C 97.921875 50.34375 99.25 51.007812 100.9375 47.800781 C 100.9375 47.800781 100.59375 50.734375 97.921875 50.34375 Z M 97.921875 50.34375 " fill-opacity="1" fill-rule="nonzero"/><path fill="rgb(99.609375%, 77.648926%, 0%)" d="M 99.195312 42.355469 C 99.195312 42.355469 99.246094 43.734375 99.011719 43.78125 C 99.011719 43.777344 99.554688 43.496094 99.195312 42.355469 Z M 99.195312 42.355469 " fill-opacity="1" fill-rule="nonzero"/><path fill="rgb(90.979004%, 30.589294%, 5.879211%)" d="M 81.085938 83.875 L 79.089844 82 L 77.203125 80.320312 L 77.238281 80.027344 L 78.9375 81.394531 L 79.582031 81.996094 L 80.203125 82.550781 L 80.789062 82.839844 L 81.371094 83.15625 " fill-opacity="1" fill-rule="nonzero"/><path fill="rgb(90.979004%, 30.589294%, 5.879211%)" d="M 78.402344 73.550781 L 78.46875 73.847656 L 78.628906 74.3125 L 78.945312 75.15625 C 78.945312 75.15625 79.015625 75.222656 79.242188 75.011719 L 79.425781 74.925781 L 79.402344 75.484375 L 79.371094 75.875 C 79.371094 76.210938 79.523438 76.453125 79.820312 76.609375 L 80.054688 76.695312 C 80.054688 76.695312 79.765625 77.101562 79.746094 77.84375 C 79.746094 77.84375 79.597656 78.441406 80.382812 78.511719 L 80.441406 78.511719 L 81.128906 78.546875 C 80.875 79.050781 80.496094 79.425781 79.984375 79.667969 C 79.582031 79.878906 79.15625 79.980469 78.699219 79.972656 L 77.46875 80.199219 L 77.433594 80.492188 L 77.578125 81.371094 C 77.578125 81.371094 77.773438 82.34375 77.234375 82.722656 L 76.78125 82.984375 L 76.421875 83.1875 L 76.242188 83.503906 L 76.039062 84.292969 L 75.570312 83.433594 L 75.195312 82.933594 L 74.925781 82.636719 L 74.753906 82.902344 L 74.527344 83.175781 L 74.363281 83.304688 L 74.15625 83.414062 L 73.914062 83.542969 L 73.46875 83.683594 L 73.136719 83.824219 L 72.96875 83.925781 L 72.820312 84.0625 L 72.730469 84.125 L 72.683594 84.027344 L 72.625 83.847656 L 72.503906 83.503906 C 72.496094 83.441406 72.46875 83.386719 72.417969 83.34375 C 72.332031 83.253906 72.003906 83.167969 72.003906 83.167969 C 71.828125 83.136719 71.652344 83.121094 71.476562 83.121094 L 71.019531 83.199219 L 70.242188 83.40625 L 70.265625 83.21875 L 70.351562 83.015625 L 70.425781 82.859375 L 69.816406 82.898438 L 69.25 82.828125 L 68.71875 82.726562 L 68.335938 82.636719 L 67.722656 82.523438 C 67.722656 82.523438 67.664062 82.5 67.890625 82.382812 L 68.707031 82.058594 C 69.164062 81.859375 69.511719 81.542969 69.753906 81.109375 C 69.5 80.988281 69.273438 80.835938 69.066406 80.652344 C 69.574219 80.644531 70.066406 80.539062 70.53125 80.335938 L 71.125 79.992188 C 71.339844 79.890625 71.566406 79.832031 71.804688 79.808594 C 72.121094 79.800781 72.226562 79.738281 72.226562 79.738281 C 72.226562 79.738281 71.578125 79.445312 71.203125 79.308594 C 71.203125 79.308594 70.589844 79.253906 70.40625 79.316406 L 69.878906 79.453125 L 70.097656 79.03125 C 70.097656 79.03125 70.382812 78.640625 69.542969 78.371094 L 67.925781 78.167969 L 68.105469 78.046875 L 68.878906 77.667969 L 69.136719 77.492188 C 69.136719 77.492188 69.464844 77.109375 68.199219 76.878906 L 68.246094 76.796875 L 68.328125 76.695312 L 68.417969 76.53125 L 68.441406 76.296875 L 68.496094 75.839844 C 68.496094 75.839844 68.335938 75.308594 67.769531 74.671875 L 68.917969 74.773438 C 68.917969 74.773438 69.722656 74.847656 69.777344 74.640625 L 70.097656 74.152344 L 70.421875 74.3125 L 70.769531 74.515625 C 70.925781 74.585938 71.085938 74.628906 71.253906 74.640625 C 71.4375 74.621094 71.617188 74.582031 71.792969 74.523438 C 71.792969 74.523438 72.148438 74.203125 72.1875 74.019531 L 72.402344 73.445312 C 72.402344 73.445312 72.429688 73.4375 72.539062 73.515625 C 72.652344 73.597656 73.636719 74.816406 73.636719 74.816406 L 73.914062 75.058594 L 74.335938 74.414062 L 74.472656 74.726562 L 74.519531 75.03125 L 74.613281 75.335938 L 74.675781 75.617188 L 74.835938 75.9375 L 74.972656 76.117188 L 75.097656 76.375 L 75.453125 76.746094 C 75.453125 76.746094 75.5 75.886719 75.792969 75.34375 L 76.070312 74.960938 L 76.089844 74.675781 L 76.089844 74.519531 C 76.089844 74.519531 76.105469 74.398438 76.292969 74.457031 C 76.292969 74.457031 77.140625 74.335938 77.285156 74.089844 C 77.667969 73.800781 77.96875 73.4375 78.179688 73.007812 " fill-opacity="1" fill-rule="nonzero"/><path fill="rgb(92.549133%, 40.779114%, 24.708557%)" d="M 76.671875 80.578125 C 76.671875 80.578125 78.132812 82.628906 76.402344 82.71875 C 76.402344 82.722656 77.640625 82.558594 76.671875 80.578125 Z M 76.671875 80.578125 " fill-opacity="1" fill-rule="nonzero"/><path fill="rgb(92.549133%, 40.779114%, 24.708557%)" d="M 74.886719 82.410156 C 74.886719 82.410156 74.667969 83.203125 73.375 83.507812 L 72.796875 83.890625 L 72.816406 83.765625 L 73.304688 83.402344 C 73.304688 83.402344 73.859375 83.453125 74.886719 82.410156 Z M 74.886719 82.410156 " fill-opacity="1" fill-rule="nonzero"/><path fill="rgb(92.549133%, 40.779114%, 24.708557%)" d="M 77.070312 80.425781 C 77.070312 80.425781 77.9375 77.957031 68.023438 74.808594 C 68.023438 74.808594 76.726562 77.773438 77.070312 80.425781 Z M 77.070312 80.425781 " fill-opacity="1" fill-rule="nonzero"/><path fill="rgb(92.549133%, 40.779114%, 24.708557%)" d="M 75.570312 79.007812 C 75.570312 79.007812 74.605469 77.257812 69.039062 75.730469 C 69.039062 75.730469 74.886719 77.816406 75.570312 79.007812 Z M 75.570312 79.007812 " fill-opacity="1" fill-rule="nonzero"/><path fill="rgb(92.549133%, 40.779114%, 24.708557%)" d="M 78.5625 79.78125 C 78.5625 79.78125 80.414062 79.914062 80.699219 78.8125 C 80.699219 78.8125 80.09375 79.640625 78.5625 79.78125 Z M 78.5625 79.78125 " fill-opacity="1" fill-rule="nonzero"/><path fill="rgb(92.549133%, 40.779114%, 24.708557%)" d="M 75.957031 79.894531 C 75.957031 79.894531 76.074219 78.554688 70.472656 76.554688 C 70.472656 76.550781 76.125 78.929688 75.957031 79.894531 Z M 75.957031 79.894531 " fill-opacity="1" fill-rule="nonzero"/><path fill="rgb(92.549133%, 40.779114%, 24.708557%)" d="M 73.757812 75.421875 L 72.546875 73.78125 C 72.546875 73.78125 72.683594 74.925781 73.757812 75.421875 Z M 73.757812 75.421875 " fill-opacity="1" fill-rule="nonzero"/><path fill="rgb(90.979004%, 30.589294%, 5.879211%)" d="M 69.613281 74.976562 L 73.929688 76.914062 C 73.929688 76.914062 71.203125 75.148438 69.613281 74.976562 Z M 69.613281 74.976562 " fill-opacity="1" fill-rule="nonzero"/><path fill="rgb(92.549133%, 40.779114%, 24.708557%)" d="M 69.917969 80.960938 L 69.449219 80.773438 C 69.449219 80.773438 70.78125 80.617188 70.710938 80.441406 C 70.710938 80.441406 71.375 79.9375 71.976562 79.980469 C 72.578125 80.027344 71.300781 80.082031 70.964844 80.472656 L 69.929688 80.859375 Z M 69.917969 80.960938 " fill-opacity="1" fill-rule="nonzero"/><path fill="rgb(92.549133%, 40.779114%, 24.708557%)" d="M 68.191406 82.492188 C 68.191406 82.492188 70.160156 81.808594 69.863281 81.40625 C 69.863281 81.40625 70.496094 82.089844 68.191406 82.492188 Z M 68.191406 82.492188 " fill-opacity="1" fill-rule="nonzero"/><path fill="rgb(92.549133%, 40.779114%, 24.708557%)" d="M 68.539062 82.53125 C 68.539062 82.53125 69.472656 82.824219 70.167969 82.550781 Z M 68.539062 82.53125 " fill-opacity="1" fill-rule="nonzero"/><path fill="rgb(90.979004%, 30.589294%, 5.879211%)" d="M 69.238281 82.449219 C 69.238281 82.449219 69.945312 82.328125 70.269531 81.734375 C 70.269531 81.730469 70.019531 82.507812 69.238281 82.449219 Z M 69.238281 82.449219 " fill-opacity="1" fill-rule="nonzero"/><path fill="rgb(92.549133%, 40.779114%, 24.708557%)" d="M 78.191406 73.390625 C 78.191406 73.390625 77.921875 74.605469 78.648438 75.191406 C 78.355469 74.628906 78.203125 74.027344 78.191406 73.390625 " fill-opacity="1" fill-rule="nonzero"/><path fill="rgb(92.549133%, 40.779114%, 24.708557%)" d="M 77.921875 73.671875 C 77.921875 73.671875 77.617188 74.421875 76.914062 74.542969 C 76.914062 74.542969 78.019531 74.613281 77.921875 73.671875 " fill-opacity="1" fill-rule="nonzero"/><path fill="rgb(92.549133%, 40.779114%, 24.708557%)" d="M 79.292969 75.144531 C 79.292969 75.144531 79.019531 76.179688 79.339844 76.460938 C 79.339844 76.460938 78.59375 76.015625 79.292969 75.144531 Z M 79.292969 75.144531 " fill-opacity="1" fill-rule="nonzero"/><path fill="rgb(92.549133%, 40.779114%, 24.708557%)" d="M 76.167969 75.105469 C 75.769531 75.5625 75.582031 76.089844 75.609375 76.691406 C 75.609375 76.691406 75.933594 75.3125 76.167969 75.105469 Z M 76.167969 75.105469 " fill-opacity="1" fill-rule="nonzero"/><path fill="rgb(90.979004%, 30.589294%, 5.879211%)" d="M 74.914062 76.359375 C 74.914062 76.359375 75.378906 76.941406 75.734375 76.980469 C 75.734375 76.980469 75.15625 77.125 74.914062 76.359375 Z M 74.914062 76.359375 " fill-opacity="1" fill-rule="nonzero"/><path fill="rgb(90.979004%, 30.589294%, 5.879211%)" d="M 76.230469 74.589844 C 76.230469 74.589844 76.050781 75.214844 76.222656 75.476562 C 76.394531 75.738281 76.277344 75.363281 76.230469 74.589844 Z M 76.230469 74.589844 " fill-opacity="1" fill-rule="nonzero"/><path fill="rgb(90.979004%, 30.589294%, 5.879211%)" d="M 70.613281 78.992188 C 70.613281 78.992188 72.179688 79.144531 72.601562 79.855469 C 72.601562 79.855469 72.128906 79.3125 70.613281 78.992188 Z M 70.613281 78.992188 " fill-opacity="1" fill-rule="nonzero"/><path fill="rgb(92.549133%, 40.779114%, 24.708557%)" d="M 77.371094 80.074219 C 77.371094 80.074219 78.261719 79.105469 74.765625 77.378906 C 74.765625 77.378906 78.082031 78.007812 77.371094 80.074219 Z M 77.371094 80.074219 " fill-opacity="1" fill-rule="nonzero"/><path fill="rgb(92.549133%, 40.779114%, 24.708557%)" d="M 68.367188 78.089844 C 68.367188 78.089844 69.949219 78.214844 69.980469 78.410156 C 69.980469 78.410156 69.707031 77.945312 68.367188 78.089844 Z M 68.367188 78.089844 " fill-opacity="1" fill-rule="nonzero"/><path fill="rgb(93.728638%, 89.019775%, 0%)" d="M 127.042969 47.238281 L 126.265625 44.121094 L 127.679688 44.621094 L 128.585938 43.84375 C 128.585938 43.84375 129.625 45.199219 128.679688 47.441406 C 128.679688 47.441406 130.617188 49.910156 129.722656 52.207031 C 129.722656 52.207031 129.503906 54.898438 130.949219 56.46875 L 135.738281 60.515625 C 135.738281 60.515625 137.433594 62.105469 135.234375 61.929688 C 133.78125 61.773438 132.414062 61.351562 131.125 60.664062 C 131.125 60.664062 128.28125 58.554688 127.035156 57.773438 C 127.035156 57.773438 126.113281 56.5 126.070312 53.605469 C 126.070312 53.605469 124.953125 55.597656 123.632812 56.078125 C 123.632812 56.078125 122.683594 56.875 121.550781 56.511719 L 119.671875 55.960938 L 117.390625 54.964844 C 117.390625 54.964844 113.457031 52.695312 117.902344 53.550781 L 120.25 53.9375 L 121.738281 53.46875 L 122.039062 53.332031 L 122.632812 53.066406 L 123.078125 52.542969 L 124.09375 51.460938 L 124.578125 49.890625 C 124.578125 49.890625 125.675781 47.859375 127.042969 47.238281 Z M 127.042969 47.238281 " fill-opacity="1" fill-rule="nonzero"/><path fill="rgb(52.938843%, 35.289001%, 7.449341%)" d="M 126.191406 43.890625 L 127.605469 44.390625 L 128.511719 43.613281 L 127.371094 42.867188 Z M 126.191406 43.890625 " fill-opacity="1" fill-rule="nonzero"/><path fill="rgb(52.938843%, 35.289001%, 7.449341%)" d="M 127.042969 47.238281 L 128.679688 47.445312 C 128.679688 47.445312 128.984375 46.71875 129.027344 46.242188 C 129.027344 46.242188 129.148438 45.257812 129.015625 44.921875 C 129.015625 44.921875 128.792969 43.972656 128.589844 43.847656 L 127.679688 44.625 L 126.265625 44.125 Z M 127.042969 47.238281 " fill-opacity="1" fill-rule="nonzero"/><path fill="rgb(93.728638%, 89.019775%, 0%)" d="M 118.515625 51.3125 C 118.515625 51.3125 117.613281 49.058594 119.753906 50.230469 C 119.753906 50.230469 120.121094 50.664062 121.648438 51.472656 C 121.648438 51.472656 122.367188 52.019531 123.996094 51.84375 C 123.996094 51.84375 123.144531 53.527344 122.066406 53.578125 C 120.992188 53.625 119.019531 52.710938 118.515625 51.3125 Z M 118.515625 51.3125 " fill-opacity="1" fill-rule="nonzero"/><path fill="rgb(93.728638%, 89.019775%, 0%)" d="M 133.226562 55.316406 C 133.226562 55.316406 138.617188 57.460938 133.417969 57.585938 C 132.421875 57.535156 131.523438 57.214844 130.71875 56.628906 L 129.96875 55.949219 C 129.96875 55.949219 128.964844 53.125 129.511719 52.941406 C 129.511719 52.941406 130.054688 54.234375 133.226562 55.316406 Z M 133.226562 55.316406 " fill-opacity="1" fill-rule="nonzero"/><path fill="rgb(99.21875%, 96.859741%, 78.819275%)" d="M 160.601562 84.105469 C 160.601562 84.105469 157.515625 78.53125 162.550781 72.75 L 166.265625 72.929688 C 166.265625 72.929688 161.59375 78.566406 163.582031 84.105469 Z M 160.601562 84.105469 " fill-opacity="1" fill-rule="nonzero"/><path fill="rgb(74.508667%, 73.728943%, 74.119568%)" d="M 145.128906 84.3125 L 146.164062 82.8125 L 147.460938 81.613281 L 146.957031 79.804688 L 148.226562 77.988281 L 150.902344 76.9375 L 151.535156 76.652344 L 154.792969 75.128906 L 157.308594 75.351562 L 160.289062 78.472656 L 159.664062 80.605469 L 157.332031 83.414062 L 150.980469 85.9375 L 148 86.789062 L 145.804688 86.671875 Z M 145.128906 84.3125 " fill-opacity="0.3882" fill-rule="nonzero"/><path fill="rgb(66.668701%, 65.879822%, 65.879822%)" d="M 150.367188 80.167969 L 152.78125 78.019531 L 155.351562 77.714844 L 157.308594 75.351562 L 154.792969 75.128906 L 148.226562 77.988281 L 146.957031 79.804688 Z M 150.367188 80.167969 " fill-opacity="1" fill-rule="nonzero"/><path fill="rgb(69.018555%, 68.238831%, 68.238831%)" d="M 151.128906 83.210938 L 150.367188 80.167969 L 146.957031 79.804688 L 147.460938 81.613281 Z M 151.128906 83.210938 " fill-opacity="1" fill-rule="nonzero"/><path fill="rgb(65.098572%, 64.709473%, 64.709473%)" d="M 148.617188 84.597656 L 151.128906 83.210938 L 147.460938 81.613281 L 146.164062 82.8125 L 145.128906 84.3125 L 146.097656 85.277344 Z M 148.617188 84.597656 " fill-opacity="1" fill-rule="nonzero"/><path fill="rgb(63.139343%, 62.748718%, 62.348938%)" d="M 145.925781 86.679688 L 146.097656 85.277344 L 148 86.789062 Z M 145.925781 86.679688 " fill-opacity="1" fill-rule="nonzero"/><path fill="rgb(61.569214%, 61.569214%, 61.178589%)" d="M 145.898438 85.078125 L 145.128906 84.3125 L 145.925781 86.679688 L 146.097656 85.277344 Z M 145.898438 85.078125 " fill-opacity="1" fill-rule="nonzero"/><path fill="rgb(61.569214%, 61.569214%, 61.178589%)" d="M 148.328125 84.675781 L 148.617188 84.597656 L 148 86.789062 L 146.097656 85.277344 Z M 148.328125 84.675781 " fill-opacity="1" fill-rule="nonzero"/><path fill="rgb(67.83905%, 67.449951%, 67.449951%)" d="M 151.09375 83.859375 L 151.128906 83.210938 L 148.617188 84.597656 L 148 86.789062 L 150.980469 85.9375 Z M 151.09375 83.859375 " fill-opacity="1" fill-rule="nonzero"/><path fill="rgb(61.569214%, 61.569214%, 61.178589%)" d="M 151.738281 78.949219 L 152.78125 78.019531 L 150.71875 81.574219 L 150.367188 80.167969 Z M 151.738281 78.949219 " fill-opacity="1" fill-rule="nonzero"/><path fill="rgb(61.569214%, 61.569214%, 61.178589%)" d="M 154.011719 82.886719 L 150.71875 81.574219 L 151.128906 83.210938 L 150.980469 85.9375 Z M 154.011719 82.886719 " fill-opacity="1" fill-rule="nonzero"/><path fill="rgb(66.668701%, 65.879822%, 65.879822%)" d="M 152.847656 78.472656 L 152.78125 78.019531 L 150.71875 81.574219 L 154.011719 82.886719 Z M 152.847656 78.472656 " fill-opacity="1" fill-rule="nonzero"/><path fill="rgb(71.759033%, 70.979309%, 70.979309%)" d="M 154.90625 80.605469 L 155.351562 77.714844 L 152.78125 78.019531 Z M 154.90625 80.605469 " fill-opacity="1" fill-rule="nonzero"/><path fill="rgb(69.018555%, 68.238831%, 68.238831%)" d="M 157.972656 79.515625 L 155.351562 77.714844 L 154.90625 80.605469 L 157.332031 83.414062 Z M 157.972656 79.515625 " fill-opacity="1" fill-rule="nonzero"/><path fill="rgb(69.40918%, 68.629456%, 68.629456%)" d="M 158.429688 79.824219 L 157.972656 79.515625 L 157.332031 83.414062 L 159.664062 80.605469 Z M 158.429688 79.824219 " fill-opacity="1" fill-rule="nonzero"/><path fill="rgb(61.569214%, 61.569214%, 61.178589%)" d="M 159.828125 80.054688 L 160.289062 78.472656 L 157.308594 75.351562 L 155.351562 77.714844 L 159.664062 80.605469 Z M 159.828125 80.054688 " fill-opacity="1" fill-rule="nonzero"/><path fill="rgb(61.959839%, 61.569214%, 61.569214%)" d="M 155.359375 83.121094 L 157.332031 83.414062 L 152.78125 78.019531 L 154.011719 82.886719 Z M 155.359375 83.121094 " fill-opacity="1" fill-rule="nonzero"/><path fill="rgb(71.369934%, 70.588684%, 70.588684%)" d="M 153.667969 84.722656 L 153.964844 84.75 L 150.980469 85.9375 L 152.320312 84.585938 Z M 153.667969 84.722656 " fill-opacity="1" fill-rule="nonzero"/><path fill="rgb(61.569214%, 61.178589%, 61.178589%)" d="M 153.953125 82.945312 L 154.011719 82.886719 L 157.332031 83.414062 L 153.964844 84.75 L 152.320312 84.585938 Z M 153.953125 82.945312 " fill-opacity="1" fill-rule="nonzero"/><path fill="rgb(98.429871%, 94.898987%, 63.529968%)" d="M 85.875 55.46875 L 85.976562 57.3125 L 86.035156 58.308594 L 85.972656 59 L 85.75 59.332031 L 85.945312 59.320312 L 85.898438 59.855469 L 85.683594 60.171875 L 85.863281 60.441406 L 85.410156 61.285156 L 85.773438 61.535156 L 85.6875 62.21875 L 84.878906 63.066406 L 85.539062 63.910156 L 85.027344 67.039062 L 77.558594 67.550781 L 77.078125 65.136719 L 76.996094 64.730469 C 76.996094 64.730469 77.207031 64.628906 77.164062 64.59375 L 76.929688 64.386719 L 76.875 64.121094 L 77.027344 63.59375 L 76.746094 63.238281 L 76.9375 62.605469 L 76.589844 62.171875 L 77.035156 60.941406 L 76.191406 59.449219 L 75.789062 56.734375 L 76.550781 56.117188 Z M 85.875 55.46875 " fill-opacity="1" fill-rule="nonzero"/><path fill="rgb(11.369324%, 11.369324%, 10.5896%)" d="M 75.902344 57.164062 L 74.257812 57.3125 L 74.421875 56.464844 L 75.488281 56.273438 L 75.660156 55.335938 L 85.351562 54.175781 L 85.800781 55.039062 L 86.703125 54.933594 L 87.140625 55.71875 L 86.070312 55.847656 Z M 75.902344 57.164062 " fill-opacity="1" fill-rule="nonzero"/><path fill="rgb(85.879517%, 68.629456%, 47.44873%)" d="M 76.957031 61.132812 L 85.867188 60.441406 L 85.414062 61.285156 L 85.777344 61.535156 L 85.691406 62.21875 L 84.878906 63.066406 L 76.929688 63.910156 L 77.023438 63.585938 L 76.742188 63.226562 L 76.871094 62.519531 L 76.585938 62.160156 Z M 76.957031 61.132812 " fill-opacity="1" fill-rule="nonzero"/><path fill="rgb(90.19928%, 13.729858%, 27.839661%)" d="M 92.113281 106.066406 L 134.554688 106.066406 C 134.847656 106.066406 135.125 106.121094 135.394531 106.230469 C 135.664062 106.34375 135.898438 106.5 136.105469 106.703125 C 136.308594 106.910156 136.46875 107.144531 136.578125 107.414062 C 136.691406 107.679688 136.746094 107.960938 136.746094 108.25 L 136.746094 118.542969 C 136.746094 118.832031 136.691406 119.109375 136.578125 119.378906 C 136.46875 119.644531 136.308594 119.882812 136.105469 120.085938 C 135.898438 120.292969 135.664062 120.449219 135.394531 120.5625 C 135.125 120.671875 134.847656 120.726562 134.554688 120.726562 L 92.113281 120.726562 C 91.824219 120.726562 91.542969 120.671875 91.273438 120.5625 C 91.007812 120.449219 90.769531 120.292969 90.5625 120.085938 C 90.359375 119.882812 90.199219 119.644531 90.089844 119.378906 C 89.976562 119.109375 89.921875 118.832031 89.921875 118.542969 L 89.921875 108.25 C 89.921875 107.960938 89.976562 107.679688 90.089844 107.414062 C 90.199219 107.144531 90.359375 106.910156 90.5625 106.703125 C 90.769531 106.5 91.007812 106.34375 91.273438 106.230469 C 91.542969 106.121094 91.824219 106.066406 92.113281 106.066406 Z M 92.113281 106.066406 " fill-opacity="1" fill-rule="nonzero"/><path fill="rgb(95.289612%, 90.19928%, 0%)" d="M 108.324219 113.230469 C 108.324219 114.375 107.402344 115.097656 105.953125 115.097656 L 105.203125 115.097656 L 105.203125 116.316406 L 103.449219 116.316406 L 103.449219 111.363281 L 105.953125 111.363281 C 107.402344 111.363281 108.324219 112.085938 108.324219 113.230469 Z M 106.554688 113.230469 C 106.554688 112.871094 106.324219 112.648438 105.839844 112.648438 L 105.199219 112.648438 L 105.199219 113.808594 L 105.839844 113.808594 C 106.324219 113.808594 106.554688 113.589844 106.554688 113.230469 Z M 106.554688 113.230469 " fill-opacity="1" fill-rule="nonzero"/><path fill="rgb(95.289612%, 90.19928%, 0%)" d="M 108.894531 111.363281 L 110.648438 111.363281 L 110.648438 115.019531 L 112.992188 115.019531 L 112.992188 116.316406 L 108.894531 116.316406 Z M 108.894531 111.363281 " fill-opacity="1" fill-rule="nonzero"/><path fill="rgb(95.289612%, 90.19928%, 0%)" d="M 117.097656 115.449219 L 115.121094 115.449219 L 114.769531 116.316406 L 112.992188 116.316406 L 115.265625 111.367188 L 116.984375 111.367188 L 119.257812 116.316406 L 117.445312 116.316406 Z M 116.613281 114.25 L 116.109375 113.003906 L 115.601562 114.25 Z M 116.613281 114.25 " fill-opacity="1" fill-rule="nonzero"/><path fill="rgb(95.289612%, 90.19928%, 0%)" d="M 122.296875 114.515625 L 122.296875 116.316406 L 120.542969 116.316406 L 120.542969 114.496094 L 118.582031 111.363281 L 120.429688 111.363281 L 121.492188 113.074219 L 122.5625 111.363281 L 124.257812 111.363281 Z M 122.296875 114.515625 " fill-opacity="1" fill-rule="nonzero"/><g clip-path="url(#id6)"><path fill="rgb(63.529968%, 62.748718%, 62.748718%)" d="M 58.023438 147.902344 C 57.792969 147.136719 13.542969 148.464844 12.375 148.464844 C 11.6875 148.464844 12.210938 89.753906 12.210938 89.753906 L 58.023438 89.753906 Z M 58.023438 147.902344 " fill-opacity="1" fill-rule="nonzero"/></g><path fill="rgb(71.759033%, 71.759033%, 71.369934%)" d="M 15.851562 92.824219 L 16.484375 145.789062 L 22.691406 145.789062 L 21.804688 92.824219 Z M 15.851562 92.824219 " fill-opacity="1" fill-rule="nonzero"/><path fill="rgb(71.759033%, 71.759033%, 71.369934%)" d="M 26.855469 92.621094 L 27.484375 145.585938 L 33.691406 145.585938 L 32.800781 92.621094 Z M 26.855469 92.621094 " fill-opacity="1" fill-rule="nonzero"/><path fill="rgb(71.759033%, 71.759033%, 71.369934%)" d="M 37.1875 92.621094 L 37.816406 145.585938 L 44.023438 145.585938 L 43.136719 92.621094 Z M 37.1875 92.621094 " fill-opacity="1" fill-rule="nonzero"/><path fill="rgb(71.759033%, 71.759033%, 71.369934%)" d="M 47.445312 92.621094 L 48.074219 145.585938 L 54.28125 145.585938 L 53.394531 92.621094 Z M 47.445312 92.621094 " fill-opacity="1" fill-rule="nonzero"/><path fill="rgb(52.938843%, 52.938843%, 52.938843%)" d="M 35.023438 79.984375 C 18.886719 79.984375 12.113281 89.75 12.113281 89.75 L 57.929688 89.75 C 57.929688 89.75 51.152344 79.984375 35.023438 79.984375 Z M 35.023438 79.984375 " fill-opacity="1" fill-rule="nonzero"/><g clip-path="url(#id7)"><path fill="rgb(38.42926%, 38.42926%, 38.42926%)" d="M 25.199219 83.152344 L 28.511719 83.152344 C 28.691406 82.417969 34.679688 71.101562 41.203125 83.152344 L 44.332031 83.152344 C 44.332031 83.152344 41.449219 76.589844 37.246094 75.449219 C 36.597656 75.273438 35.9375 75.015625 35.175781 75.015625 C 35.175781 75.023438 29.164062 74.175781 25.199219 83.152344 Z M 25.199219 83.152344 " fill-opacity="1" fill-rule="nonzero"/></g><g clip-path="url(#id8)"><path fill="rgb(63.529968%, 62.748718%, 62.748718%)" d="M 57.929688 121.601562 L 71.460938 101.46875 L 77.515625 99.457031 C 77.515625 99.457031 80.414062 97.121094 76.867188 97.21875 L 72.667969 98.445312 L 74.238281 95.058594 C 74.238281 95.058594 75.222656 91.820312 73.335938 92.914062 C 73.0625 93.070312 72.355469 93.898438 71.976562 94.226562 L 69.769531 98.101562 L 68.90625 94.894531 C 68.722656 94.375 68.515625 93.863281 68.28125 93.367188 C 68.210938 93.214844 68.121094 93.082031 68.007812 92.960938 C 67.929688 92.878906 67.84375 92.820312 67.738281 92.78125 C 67.339844 92.617188 66.550781 92.503906 66.160156 93.082031 C 66.011719 93.527344 65.980469 93.984375 66.070312 94.445312 C 66.386719 96.199219 67.253906 99.039062 67.253906 99.039062 L 57.929688 113.71875 Z M 57.929688 121.601562 " fill-opacity="1" fill-rule="nonzero"/></g><path fill="rgb(63.529968%, 62.748718%, 62.748718%)" d="M 12.277344 114.984375 L 5.847656 122.878906 L 12.019531 128.875 L 12.183594 134.425781 L 0.1875 122.878906 L 12.238281 108.050781 Z M 12.277344 114.984375 " fill-opacity="1" fill-rule="nonzero"/><path fill="rgb(100%, 100%, 100%)" d="M 48.183594 107.125 C 48.183594 107.621094 48.132812 108.113281 48.035156 108.601562 C 47.941406 109.089844 47.796875 109.5625 47.605469 110.019531 C 47.414062 110.480469 47.183594 110.917969 46.90625 111.328125 C 46.628906 111.742188 46.316406 112.125 45.964844 112.476562 C 45.613281 112.828125 45.230469 113.144531 44.816406 113.417969 C 44.402344 113.695312 43.964844 113.929688 43.503906 114.117188 C 43.046875 114.308594 42.570312 114.453125 42.082031 114.550781 C 41.597656 114.644531 41.101562 114.695312 40.605469 114.695312 C 40.109375 114.695312 39.617188 114.644531 39.128906 114.550781 C 38.640625 114.453125 38.167969 114.308594 37.707031 114.117188 C 37.246094 113.929688 36.808594 113.695312 36.398438 113.417969 C 35.984375 113.144531 35.601562 112.828125 35.25 112.476562 C 34.898438 112.125 34.582031 111.742188 34.304688 111.328125 C 34.03125 110.917969 33.796875 110.480469 33.605469 110.019531 C 33.414062 109.5625 33.273438 109.089844 33.175781 108.601562 C 33.078125 108.113281 33.03125 107.621094 33.03125 107.125 C 33.03125 106.625 33.078125 106.132812 33.175781 105.648438 C 33.273438 105.160156 33.414062 104.6875 33.605469 104.226562 C 33.796875 103.765625 34.03125 103.332031 34.304688 102.917969 C 34.582031 102.503906 34.898438 102.121094 35.25 101.769531 C 35.601562 101.417969 35.984375 101.105469 36.398438 100.828125 C 36.808594 100.550781 37.246094 100.320312 37.707031 100.128906 C 38.167969 99.9375 38.640625 99.796875 39.128906 99.699219 C 39.617188 99.601562 40.109375 99.550781 40.605469 99.550781 C 41.101562 99.550781 41.597656 99.601562 42.082031 99.699219 C 42.570312 99.796875 43.046875 99.9375 43.503906 100.128906 C 43.964844 100.320312 44.402344 100.550781 44.816406 100.828125 C 45.230469 101.105469 45.613281 101.417969 45.964844 101.769531 C 46.316406 102.121094 46.628906 102.503906 46.90625 102.917969 C 47.183594 103.332031 47.414062 103.765625 47.605469 104.226562 C 47.796875 104.6875 47.941406 105.160156 48.035156 105.648438 C 48.132812 106.132812 48.183594 106.625 48.183594 107.125 Z M 48.183594 107.125 " fill-opacity="1" fill-rule="nonzero"/><path fill="rgb(0%, 0%, 0%)" d="M 42.910156 107.125 C 42.910156 107.429688 42.851562 107.722656 42.734375 108.003906 C 42.617188 108.289062 42.453125 108.535156 42.234375 108.753906 C 42.019531 108.96875 41.769531 109.136719 41.488281 109.25 C 41.207031 109.367188 40.910156 109.425781 40.605469 109.425781 C 40.300781 109.425781 40.007812 109.367188 39.722656 109.25 C 39.441406 109.136719 39.191406 108.96875 38.976562 108.753906 C 38.761719 108.535156 38.59375 108.289062 38.476562 108.003906 C 38.359375 107.722656 38.300781 107.429688 38.300781 107.125 C 38.300781 106.816406 38.359375 106.523438 38.476562 106.242188 C 38.59375 105.960938 38.761719 105.710938 38.976562 105.496094 C 39.191406 105.277344 39.441406 105.113281 39.722656 104.996094 C 40.007812 104.878906 40.300781 104.820312 40.605469 104.820312 C 40.910156 104.820312 41.207031 104.878906 41.488281 104.996094 C 41.769531 105.113281 42.019531 105.277344 42.234375 105.496094 C 42.453125 105.710938 42.617188 105.960938 42.734375 106.242188 C 42.851562 106.523438 42.910156 106.816406 42.910156 107.125 Z M 42.910156 107.125 " fill-opacity="1" fill-rule="nonzero"/><path fill="rgb(34.118652%, 34.118652%, 34.118652%)" d="M 32.347656 110.796875 L 43.589844 115.480469 C 43.792969 115.566406 43.976562 115.691406 44.132812 115.847656 C 44.292969 116.007812 44.414062 116.1875 44.5 116.394531 C 44.585938 116.601562 44.625 116.816406 44.625 117.039062 C 44.625 117.265625 44.582031 117.480469 44.496094 117.6875 C 44.410156 117.890625 44.289062 118.074219 44.128906 118.230469 C 43.972656 118.390625 43.789062 118.511719 43.582031 118.59375 C 43.375 118.679688 43.160156 118.722656 42.9375 118.722656 C 42.710938 118.722656 42.496094 118.679688 42.289062 118.59375 L 31.046875 113.910156 C 30.84375 113.824219 30.660156 113.703125 30.503906 113.542969 C 30.34375 113.382812 30.222656 113.203125 30.136719 112.996094 C 30.054688 112.789062 30.011719 112.574219 30.011719 112.351562 C 30.011719 112.125 30.054688 111.910156 30.140625 111.707031 C 30.226562 111.5 30.347656 111.316406 30.507812 111.160156 C 30.667969 111 30.847656 110.878906 31.054688 110.796875 C 31.261719 110.710938 31.476562 110.667969 31.703125 110.667969 C 31.925781 110.667969 32.140625 110.710938 32.347656 110.796875 Z M 32.347656 110.796875 " fill-opacity="1" fill-rule="nonzero"/><path fill="rgb(100%, 100%, 100%)" d="M 34.816406 106.925781 C 34.816406 107.4375 34.769531 107.941406 34.667969 108.441406 C 34.570312 108.941406 34.421875 109.429688 34.226562 109.898438 C 34.03125 110.371094 33.792969 110.820312 33.507812 111.242188 C 33.222656 111.667969 32.902344 112.058594 32.542969 112.417969 C 32.179688 112.78125 31.789062 113.101562 31.363281 113.386719 C 30.9375 113.667969 30.492188 113.910156 30.019531 114.105469 C 29.546875 114.296875 29.0625 114.445312 28.5625 114.546875 C 28.0625 114.644531 27.554688 114.695312 27.042969 114.695312 C 26.535156 114.695312 26.027344 114.644531 25.527344 114.546875 C 25.027344 114.445312 24.542969 114.296875 24.070312 114.105469 C 23.597656 113.910156 23.152344 113.667969 22.726562 113.386719 C 22.300781 113.101562 21.910156 112.78125 21.546875 112.417969 C 21.1875 112.058594 20.867188 111.667969 20.582031 111.242188 C 20.296875 110.820312 20.058594 110.371094 19.863281 109.898438 C 19.667969 109.429688 19.519531 108.941406 19.421875 108.441406 C 19.320312 107.941406 19.273438 107.4375 19.273438 106.925781 C 19.273438 106.417969 19.320312 105.910156 19.421875 105.410156 C 19.519531 104.910156 19.667969 104.425781 19.863281 103.953125 C 20.058594 103.484375 20.296875 103.035156 20.582031 102.613281 C 20.867188 102.1875 21.1875 101.796875 21.546875 101.433594 C 21.910156 101.074219 22.300781 100.75 22.726562 100.46875 C 23.152344 100.183594 23.597656 99.945312 24.070312 99.75 C 24.542969 99.554688 25.027344 99.40625 25.527344 99.308594 C 26.027344 99.207031 26.535156 99.160156 27.042969 99.160156 C 27.554688 99.160156 28.0625 99.207031 28.5625 99.308594 C 29.0625 99.40625 29.546875 99.554688 30.019531 99.75 C 30.492188 99.945312 30.9375 100.183594 31.363281 100.46875 C 31.789062 100.75 32.179688 101.074219 32.542969 101.433594 C 32.902344 101.796875 33.222656 102.1875 33.507812 102.613281 C 33.792969 103.035156 34.03125 103.484375 34.226562 103.953125 C 34.421875 104.425781 34.570312 104.910156 34.667969 105.410156 C 34.769531 105.910156 34.816406 106.417969 34.816406 106.925781 Z M 34.816406 106.925781 " fill-opacity="1" fill-rule="nonzero"/><path fill="rgb(0%, 0%, 0%)" d="M 50.863281 97.300781 L 37.902344 91.246094 L 37.902344 95.480469 Z M 50.863281 97.300781 " fill-opacity="1" fill-rule="nonzero"/><path fill="rgb(0%, 0%, 0%)" d="M 18.667969 97.550781 L 31.832031 95.117188 L 31.070312 90.996094 Z M 18.667969 97.550781 " fill-opacity="1" fill-rule="nonzero"/><path fill="rgb(0%, 0%, 0%)" d="M 29.351562 106.925781 C 29.351562 107.234375 29.292969 107.527344 29.175781 107.808594 C 29.058594 108.089844 28.890625 108.339844 28.675781 108.554688 C 28.457031 108.773438 28.210938 108.9375 27.925781 109.054688 C 27.644531 109.171875 27.351562 109.230469 27.042969 109.230469 C 26.738281 109.230469 26.445312 109.171875 26.164062 109.054688 C 25.878906 108.9375 25.632812 108.773438 25.414062 108.554688 C 25.199219 108.339844 25.03125 108.089844 24.914062 107.808594 C 24.796875 107.527344 24.738281 107.234375 24.738281 106.925781 C 24.738281 106.621094 24.796875 106.328125 24.914062 106.046875 C 25.03125 105.761719 25.199219 105.515625 25.414062 105.296875 C 25.632812 105.082031 25.878906 104.914062 26.164062 104.800781 C 26.445312 104.683594 26.738281 104.625 27.042969 104.625 C 27.351562 104.625 27.644531 104.683594 27.925781 104.800781 C 28.210938 104.914062 28.457031 105.082031 28.675781 105.296875 C 28.890625 105.515625 29.058594 105.761719 29.175781 106.046875 C 29.292969 106.328125 29.351562 106.621094 29.351562 106.925781 Z M 29.351562 106.925781 " fill-opacity="1" fill-rule="nonzero"/><path fill="rgb(0.389099%, 0.389099%, 0.389099%)" d="M 22.027344 116.332031 C 22.027344 116.332031 25.257812 123.097656 38.519531 122.320312 C 37.492188 123.792969 36.214844 124.992188 34.679688 125.925781 C 33.148438 126.859375 31.492188 127.445312 29.714844 127.679688 C 23.714844 128.476562 22.027344 116.332031 22.027344 116.332031 Z M 22.027344 116.332031 " fill-opacity="1" fill-rule="nonzero"/></svg>