<svg xmlns="http://www.w3.org/2000/svg" xmlns:xlink="http://www.w3.org/1999/xlink" width="300" zoomAndPan="magnify" viewBox="0 0 224.87999 149.999998" height="200" preserveAspectRatio="xMidYMid meet" version="1.0"><defs><clipPath id="id1"><path d="M 5 19.855469 L 201.292969 19.855469 L 201.292969 90 L 5 90 Z M 5 19.855469 " clip-rule="nonzero"/></clipPath><clipPath id="id2"><path d="M 4.898438 67 L 201.292969 67 L 201.292969 101 L 4.898438 101 Z M 4.898438 67 " clip-rule="nonzero"/></clipPath><clipPath id="id3"><path d="M 4.898438 82 L 201.292969 82 L 201.292969 130.046875 L 4.898438 130.046875 Z M 4.898438 82 " clip-rule="nonzero"/></clipPath><clipPath id="id4"><path d="M 5 95 L 201.292969 95 L 201.292969 130 L 5 130 Z M 5 95 " clip-rule="nonzero"/></clipPath><clipPath id="id5"><path d="M 5 126 L 201.292969 126 L 201.292969 130 L 5 130 Z M 5 126 " clip-rule="nonzero"/></clipPath><clipPath id="id6"><path d="M 141 66 L 192 66 L 192 130.195312 L 141 130.195312 Z M 141 66 " clip-rule="nonzero"/></clipPath><clipPath id="id7"><path d="M 155 50.738281 L 177 50.738281 L 177 60 L 155 60 Z M 155 50.738281 " clip-rule="nonzero"/></clipPath><clipPath id="id8"><path d="M 190 69 L 213.3125 69 L 213.3125 102 L 190 102 Z M 190 69 " clip-rule="nonzero"/></clipPath><clipPath id="id9"><path d="M 128.605469 86 L 142 86 L 142 116 L 128.605469 116 Z M 128.605469 86 " clip-rule="nonzero"/></clipPath></defs><path fill="rgb(74.508667%, 73.728943%, 74.119568%)" d="M 32.125 67.757812 L 33.742188 66.648438 L 35.476562 65.984375 L 35.777344 63.792969 L 37.75 62.453125 L 40.71875 62.625 L 41.441406 62.625 L 45.164062 62.570312 L 47.441406 64.035156 L 48.914062 68.84375 L 47.414062 70.839844 L 44.007812 72.726562 L 36.941406 72.355469 L 33.769531 71.824219 L 31.75 70.625 Z M 32.125 67.757812 " fill-opacity="0.3882" fill-rule="nonzero"/><path fill="rgb(57.249451%, 56.858826%, 56.858826%)" d="M 38.835938 65.839844 L 42.03125 64.707031 L 44.582031 65.625 L 47.441406 64.035156 L 45.164062 62.570312 L 37.75 62.453125 L 35.777344 63.792969 Z M 38.835938 65.839844 " fill-opacity="1" fill-rule="nonzero"/><path fill="rgb(62.348938%, 61.959839%, 61.959839%)" d="M 38.25 69.488281 L 38.835938 65.839844 L 35.777344 63.792969 L 35.476562 65.984375 Z M 38.25 69.488281 " fill-opacity="1" fill-rule="nonzero"/><path fill="rgb(59.21936%, 59.21936%, 58.81958%)" d="M 35.289062 69.757812 L 38.25 69.488281 L 35.476562 65.984375 L 33.742188 66.648438 L 32.125 67.757812 L 32.621094 69.265625 Z M 35.289062 69.757812 " fill-opacity="1" fill-rule="nonzero"/><path fill="rgb(63.919067%, 63.529968%, 63.139343%)" d="M 31.859375 70.691406 L 32.621094 69.265625 L 33.769531 71.824219 Z M 31.859375 70.691406 " fill-opacity="1" fill-rule="nonzero"/><path fill="rgb(65.879822%, 65.489197%, 65.489197%)" d="M 32.519531 68.957031 L 32.125 67.757812 L 31.859375 70.691406 L 32.621094 69.265625 Z M 32.519531 68.957031 " fill-opacity="1" fill-rule="nonzero"/><path fill="rgb(65.879822%, 65.489197%, 65.489197%)" d="M 34.984375 69.703125 L 35.289062 69.757812 L 33.769531 71.824219 L 32.621094 69.265625 Z M 34.984375 69.703125 " fill-opacity="1" fill-rule="nonzero"/><path fill="rgb(65.489197%, 65.098572%, 65.098572%)" d="M 37.941406 70.167969 L 38.25 69.488281 L 35.289062 69.757812 L 33.769531 71.824219 L 36.941406 72.355469 Z M 37.941406 70.167969 " fill-opacity="1" fill-rule="nonzero"/><path fill="rgb(70.199585%, 69.799805%, 69.799805%)" d="M 40.652344 65.195312 L 42.03125 64.707031 L 38.566406 67.527344 L 38.835938 65.839844 Z M 40.652344 65.195312 " fill-opacity="1" fill-rule="nonzero"/><path fill="rgb(72.549438%, 71.759033%, 72.158813%)" d="M 41.105469 70.542969 L 38.566406 67.527344 L 38.25 69.488281 L 36.941406 72.355469 Z M 41.105469 70.542969 " fill-opacity="1" fill-rule="nonzero"/><path fill="rgb(61.959839%, 61.569214%, 61.569214%)" d="M 41.898438 65.222656 L 42.03125 64.707031 L 38.566406 67.527344 L 41.105469 70.542969 Z M 41.898438 65.222656 " fill-opacity="1" fill-rule="nonzero"/><path fill="rgb(65.879822%, 65.489197%, 65.489197%)" d="M 42.925781 68.519531 L 44.582031 65.625 L 42.03125 64.707031 Z M 42.925781 68.519531 " fill-opacity="1" fill-rule="nonzero"/><path fill="rgb(61.569214%, 61.178589%, 61.178589%)" d="M 46.28125 68.84375 L 44.582031 65.625 L 42.925781 68.519531 L 44.007812 72.726562 Z M 46.28125 68.84375 " fill-opacity="1" fill-rule="nonzero"/><path fill="rgb(67.059326%, 66.268921%, 66.268921%)" d="M 46.582031 69.394531 L 46.28125 68.84375 L 44.007812 72.726562 L 47.414062 70.839844 Z M 46.582031 69.394531 " fill-opacity="1" fill-rule="nonzero"/><path fill="rgb(62.348938%, 61.959839%, 61.959839%)" d="M 47.800781 70.324219 L 48.914062 68.84375 L 47.441406 64.035156 L 44.582031 65.625 L 47.414062 70.839844 Z M 47.800781 70.324219 " fill-opacity="1" fill-rule="nonzero"/><path fill="rgb(71.759033%, 70.979309%, 70.979309%)" d="M 42.277344 71.453125 L 44.007812 72.726562 L 42.03125 64.707031 L 41.105469 70.542969 Z M 42.277344 71.453125 " fill-opacity="1" fill-rule="nonzero"/><path fill="rgb(62.348938%, 61.959839%, 61.959839%)" d="M 40 72.355469 L 40.265625 72.53125 L 36.941406 72.355469 L 38.785156 71.554688 Z M 40 72.355469 " fill-opacity="1" fill-rule="nonzero"/><path fill="rgb(67.449951%, 67.059326%, 67.059326%)" d="M 41.027344 70.578125 L 41.105469 70.542969 L 44.007812 72.726562 L 40.265625 72.53125 L 38.785156 71.554688 Z M 41.027344 70.578125 " fill-opacity="1" fill-rule="nonzero"/><g clip-path="url(#id1)"><path fill="rgb(89.408875%, 95.289612%, 96.859741%)" d="M 201.605469 81.0625 C 201.605469 81.0625 155.984375 68.679688 121.46875 87.671875 C 121.46875 87.671875 87.917969 72.378906 5.015625 89.203125 L 5.015625 19.707031 L 201.605469 19.707031 " fill-opacity="1" fill-rule="nonzero"/></g><path fill="rgb(96.469116%, 98.039246%, 97.24884%)" d="M 42.558594 33.945312 L 7.886719 35.648438 C 7.886719 35.648438 5.796875 22.625 17.683594 28.605469 C 17.683594 28.605469 23.878906 12.757812 31.542969 28.292969 C 31.539062 28.292969 41.96875 21.875 42.558594 33.945312 Z M 42.558594 33.945312 " fill-opacity="0.8" fill-rule="nonzero"/><path fill="rgb(96.469116%, 98.039246%, 97.24884%)" d="M 80.964844 36.667969 L 48.992188 37.355469 C 48.992188 37.355469 47.429688 26.753906 58.199219 31.839844 C 58.199219 31.839844 64.34375 19.113281 70.96875 31.863281 C 70.976562 31.863281 80.757812 26.867188 80.964844 36.667969 Z M 80.964844 36.667969 " fill-opacity="0.8" fill-rule="nonzero"/><path fill="rgb(96.469116%, 98.039246%, 97.24884%)" d="M 68.164062 57.871094 L 45.355469 58.363281 C 45.355469 58.363281 44.226562 50.007812 51.917969 54.039062 C 51.917969 54.039062 56.28125 44.019531 61.03125 54.074219 C 61.03125 54.070312 68 50.148438 68.164062 57.871094 Z M 68.164062 57.871094 " fill-opacity="0.8" fill-rule="nonzero"/><path fill="rgb(96.469116%, 98.039246%, 97.24884%)" d="M 37.15625 49.367188 L 15.703125 49.832031 C 15.703125 49.832031 14.640625 42.113281 21.875 45.828125 C 21.875 45.828125 25.984375 36.570312 30.449219 45.859375 C 30.445312 45.859375 37.003906 42.234375 37.15625 49.367188 Z M 37.15625 49.367188 " fill-opacity="0.8" fill-rule="nonzero"/><path fill="rgb(96.469116%, 98.039246%, 97.24884%)" d="M 31.75 64.238281 L 10.296875 64.707031 C 10.296875 64.707031 9.234375 56.984375 16.46875 60.699219 C 16.46875 60.699219 20.578125 51.441406 25.039062 60.730469 C 25.039062 60.730469 31.597656 57.109375 31.75 64.238281 Z M 31.75 64.238281 " fill-opacity="0.8" fill-rule="nonzero"/><path fill="rgb(96.469116%, 98.039246%, 97.24884%)" d="M 130.683594 33.710938 L 98.710938 34.402344 C 98.710938 34.402344 97.148438 23.800781 107.917969 28.886719 C 107.917969 28.886719 114.0625 16.15625 120.691406 28.90625 C 120.695312 28.90625 130.476562 23.910156 130.683594 33.710938 Z M 130.683594 33.710938 " fill-opacity="1" fill-rule="nonzero"/><path fill="rgb(96.469116%, 98.039246%, 97.24884%)" d="M 102.867188 49.546875 L 70.894531 50.234375 C 70.894531 50.234375 69.332031 39.628906 80.101562 44.714844 C 80.101562 44.714844 86.246094 31.988281 92.871094 44.738281 C 92.875 44.738281 102.660156 39.742188 102.867188 49.546875 Z M 102.867188 49.546875 " fill-opacity="0.8" fill-rule="nonzero"/><path fill="rgb(96.469116%, 98.039246%, 97.24884%)" d="M 126.25 66.433594 L 81.621094 67.394531 C 81.621094 67.394531 79.464844 53.75 94.488281 60.273438 C 94.488281 60.273438 103.097656 43.871094 112.316406 60.273438 C 112.316406 60.269531 125.984375 53.816406 126.25 66.433594 Z M 126.25 66.433594 " fill-opacity="0.8" fill-rule="nonzero"/><path fill="rgb(96.469116%, 98.039246%, 97.24884%)" d="M 196.042969 63.742188 L 151.414062 64.707031 C 151.414062 64.707031 149.257812 51.058594 164.28125 57.582031 C 164.28125 57.582031 172.890625 41.179688 182.109375 57.582031 C 182.109375 57.578125 195.777344 51.125 196.042969 63.742188 Z M 196.042969 63.742188 " fill-opacity="0.749" fill-rule="nonzero"/><path fill="rgb(96.078491%, 98.039246%, 96.859741%)" d="M 171.902344 46.15625 L 139.929688 46.84375 C 139.929688 46.84375 138.367188 36.242188 149.136719 41.328125 C 149.136719 41.328125 155.28125 28.601562 161.910156 41.347656 C 161.910156 41.347656 171.695312 36.355469 171.902344 46.15625 Z M 171.902344 46.15625 " fill-opacity="0.8588" fill-rule="nonzero"/><path fill="rgb(96.469116%, 98.039246%, 97.24884%)" d="M 195.523438 35.625 L 161.671875 36.359375 C 161.671875 36.359375 159.980469 23.429688 171.40625 29.664062 C 171.40625 29.664062 177.867188 14.167969 184.929688 29.734375 C 184.925781 29.734375 195.269531 23.679688 195.523438 35.625 Z M 195.523438 35.625 " fill-opacity="0.8078" fill-rule="nonzero"/><path fill="rgb(96.469116%, 98.039246%, 97.24884%)" d="M 137.179688 53.136719 L 112.105469 53.679688 C 112.105469 53.679688 110.875 45.097656 119.324219 49.21875 C 119.324219 49.21875 124.132812 38.921875 129.34375 49.242188 C 129.34375 49.242188 137.011719 45.203125 137.179688 53.136719 Z M 137.179688 53.136719 " fill-opacity="1" fill-rule="nonzero"/><path fill="rgb(96.469116%, 98.039246%, 97.24884%)" d="M 151.730469 28.308594 L 140.140625 28.558594 C 140.140625 28.558594 139.554688 23.652344 143.46875 26.027344 C 143.46875 26.027344 145.667969 20.15625 148.101562 26.066406 C 148.101562 26.066406 151.636719 23.777344 151.730469 28.308594 Z M 151.730469 28.308594 " fill-opacity="1" fill-rule="nonzero"/><g clip-path="url(#id2)"><path fill="rgb(79.219055%, 83.918762%, 63.529968%)" d="M 201.605469 81.152344 C 201.605469 81.152344 133.761719 58.722656 82.515625 78.964844 C 82.515625 78.964844 51.304688 52.289062 4.582031 81.152344 L 4.582031 100.421875 C 4.582031 100.421875 43.820312 74.753906 99.316406 95.152344 C 99.316406 95.152344 144.246094 75.683594 201.605469 97.558594 " fill-opacity="1" fill-rule="nonzero"/></g><g clip-path="url(#id3)"><path fill="rgb(80.389404%, 84.309387%, 52.549744%)" d="M 201.410156 96.21875 C 201.410156 96.21875 150.988281 66.792969 99.222656 93.0625 C 99.222656 93.0625 53.386719 65.484375 4.582031 99.96875 L 4.582031 131.617188 C 4.582031 131.617188 44.320312 95.960938 99.488281 96.21875 C 99.488281 96.21875 148.3125 92.816406 201.410156 135.070312 " fill-opacity="1" fill-rule="nonzero"/></g><g clip-path="url(#id4)"><path fill="rgb(78.039551%, 82.348633%, 40.779114%)" d="M 201.605469 128.320312 L 5.015625 129.917969 L 5.015625 115.882812 C 5.015625 115.882812 92.894531 67.96875 201.605469 117.90625 " fill-opacity="1" fill-rule="nonzero"/></g><path fill="rgb(98.429871%, 95.689392%, 69.40918%)" d="M 163.554688 129.886719 L 177.53125 129.886719 C 177.53125 129.886719 165.519531 106.019531 155.0625 101.851562 L 145.921875 99.554688 C 145.921875 99.554688 153.242188 105.652344 160.253906 120.226562 C 160.859375 121.484375 161.304688 122.816406 161.726562 124.207031 C 162.148438 125.597656 162.558594 127.078125 163.085938 128.609375 C 163.230469 129.03125 163.386719 129.457031 163.554688 129.886719 Z M 163.554688 129.886719 " fill-opacity="1" fill-rule="nonzero"/><g clip-path="url(#id5)"><path fill="rgb(98.429871%, 95.689392%, 69.799805%)" d="M 201.410156 129.886719 L 5.066406 129.886719 L 5.066406 126.207031 L 201.410156 126.207031 " fill-opacity="1" fill-rule="nonzero"/></g><path fill="rgb(98.429871%, 96.078491%, 71.369934%)" d="M 144.152344 99.554688 L 139.851562 98.539062 C 139.851562 98.539062 141.882812 96.164062 143.484375 91.84375 C 144.519531 89.054688 145.210938 84.59375 145.617188 82.339844 L 149.601562 82.152344 C 149.601562 82.152344 147.765625 95.671875 144.152344 99.554688 Z M 144.152344 99.554688 " fill-opacity="1" fill-rule="nonzero"/><path stroke-linecap="butt" transform="matrix(0.102289, 0, 0, 0.102025, 4.896669, 19.858647)" fill-opacity="1" fill="rgb(78.819275%, 78.42865%, 78.42865%)" fill-rule="nonzero" stroke-linejoin="miter" d="M 838.327023 736.495846 L 875.637 461.288899 L 894.272894 461.288899 L 855.54995 736.495846 L 884.305745 894.621151 L 866.280864 894.621151 Z M 838.327023 736.495846 " stroke="rgb(78.819275%, 78.42865%, 78.42865%)" stroke-width="0.75" stroke-opacity="1" stroke-miterlimit="10"/><path fill="rgb(61.959839%, 61.569214%, 61.569214%)" d="M 77.007812 111.132812 L 111.925781 111.132812 L 105.792969 88.535156 L 111.925781 66.921875 L 77.007812 66.921875 L 73.234375 92.289062 Z M 77.007812 111.132812 " fill-opacity="1" fill-rule="nonzero"/><path fill="rgb(70.199585%, 69.799805%, 69.799805%)" d="M 79.445312 69.113281 L 75.644531 92.199219 C 75.632812 92.257812 75.632812 92.320312 75.644531 92.378906 C 75.949219 93.6875 79.589844 109.25 79.675781 109.25 L 83.972656 109.25 C 84.121094 109.25 84.238281 109.191406 84.332031 109.078125 C 84.425781 108.964844 84.457031 108.835938 84.425781 108.691406 L 80.628906 91.636719 C 80.617188 91.578125 80.617188 91.519531 80.628906 91.464844 L 84.210938 69.257812 C 84.230469 69.121094 84.195312 68.996094 84.105469 68.890625 C 84.011719 68.78125 83.894531 68.730469 83.753906 68.730469 L 79.902344 68.730469 C 79.789062 68.730469 79.691406 68.765625 79.601562 68.839844 C 79.515625 68.910156 79.464844 69.003906 79.445312 69.113281 Z M 79.445312 69.113281 " fill-opacity="1" fill-rule="nonzero"/><path fill="rgb(70.199585%, 69.799805%, 69.799805%)" d="M 87.082031 69.265625 L 83.28125 92.355469 C 83.273438 92.414062 83.273438 92.472656 83.285156 92.53125 C 83.59375 93.839844 87.234375 109.402344 87.320312 109.402344 L 91.617188 109.402344 C 91.761719 109.402344 91.882812 109.34375 91.976562 109.230469 C 92.070312 109.117188 92.097656 108.988281 92.070312 108.84375 L 88.269531 91.785156 C 88.257812 91.730469 88.257812 91.671875 88.269531 91.613281 L 91.851562 69.414062 C 91.871094 69.273438 91.835938 69.148438 91.742188 69.042969 C 91.652344 68.933594 91.535156 68.882812 91.390625 68.882812 L 87.546875 68.882812 C 87.433594 68.878906 87.332031 68.914062 87.242188 68.988281 C 87.15625 69.0625 87.101562 69.15625 87.082031 69.265625 Z M 87.082031 69.265625 " fill-opacity="1" fill-rule="nonzero"/><path fill="rgb(70.199585%, 69.799805%, 69.799805%)" d="M 95.171875 109.027344 L 90.660156 90.074219 C 90.644531 90.011719 90.644531 89.945312 90.660156 89.878906 L 95.175781 69.261719 C 95.199219 69.15625 95.253906 69.070312 95.339844 69.003906 C 95.425781 68.9375 95.523438 68.90625 95.632812 68.910156 L 99.84375 69.089844 C 99.984375 69.09375 100.097656 69.152344 100.183594 69.261719 C 100.269531 69.375 100.296875 69.496094 100.265625 69.632812 L 95.429688 90.09375 C 95.410156 90.167969 95.410156 90.238281 95.429688 90.3125 L 100.574219 108.808594 C 100.613281 108.949219 100.585938 109.082031 100.496094 109.199219 C 100.40625 109.316406 100.285156 109.371094 100.136719 109.371094 L 95.609375 109.371094 C 95.375 109.371094 95.226562 109.257812 95.171875 109.027344 Z M 95.171875 109.027344 " fill-opacity="1" fill-rule="nonzero"/><path fill="rgb(70.199585%, 69.799805%, 69.799805%)" d="M 103.695312 108.925781 L 98.285156 90.1875 C 98.265625 90.117188 98.265625 90.042969 98.28125 89.96875 L 102.890625 69.386719 C 102.941406 69.148438 103.089844 69.03125 103.332031 69.035156 L 107.527344 69.035156 C 107.671875 69.035156 107.789062 69.089844 107.878906 69.207031 C 107.972656 69.320312 108 69.449219 107.964844 69.589844 L 103.054688 89.023438 C 103.035156 89.101562 103.035156 89.179688 103.058594 89.257812 L 108.792969 108.675781 C 108.816406 108.742188 108.816406 108.8125 108.804688 108.882812 C 108.792969 108.953125 108.765625 109.015625 108.722656 109.070312 C 108.679688 109.128906 108.625 109.171875 108.5625 109.203125 C 108.5 109.234375 108.433594 109.25 108.359375 109.25 L 104.128906 109.25 C 103.902344 109.25 103.757812 109.140625 103.695312 108.925781 Z M 103.695312 108.925781 " fill-opacity="1" fill-rule="nonzero"/><path fill="rgb(34.118652%, 34.118652%, 34.118652%)" d="M 100.160156 85.425781 L 91.59375 81.890625 C 91.4375 81.824219 91.296875 81.734375 91.179688 81.613281 C 91.058594 81.496094 90.964844 81.359375 90.902344 81.203125 C 90.835938 81.046875 90.804688 80.882812 90.804688 80.714844 C 90.804688 80.546875 90.835938 80.382812 90.902344 80.226562 C 90.96875 80.070312 91.0625 79.933594 91.183594 79.816406 C 91.304688 79.695312 91.445312 79.605469 91.601562 79.542969 C 91.757812 79.476562 91.921875 79.445312 92.09375 79.445312 C 92.261719 79.445312 92.425781 79.480469 92.582031 79.542969 L 101.152344 83.078125 C 101.308594 83.140625 101.445312 83.234375 101.566406 83.351562 C 101.683594 83.472656 101.777344 83.609375 101.84375 83.765625 C 101.90625 83.921875 101.941406 84.082031 101.941406 84.253906 C 101.941406 84.421875 101.90625 84.582031 101.84375 84.738281 C 101.773438 84.894531 101.679688 85.03125 101.558594 85.152344 C 101.4375 85.269531 101.300781 85.363281 101.140625 85.425781 C 100.984375 85.488281 100.820312 85.523438 100.652344 85.519531 C 100.480469 85.519531 100.316406 85.488281 100.160156 85.425781 Z M 100.160156 85.425781 " fill-opacity="1" fill-rule="nonzero"/><path fill="rgb(100%, 100%, 100%)" d="M 104.652344 76.773438 C 104.652344 77.148438 104.613281 77.519531 104.542969 77.886719 C 104.46875 78.253906 104.359375 78.613281 104.210938 78.957031 C 104.066406 79.304688 103.890625 79.632812 103.679688 79.945312 C 103.46875 80.257812 103.230469 80.546875 102.960938 80.8125 C 102.691406 81.078125 102.402344 81.3125 102.085938 81.519531 C 101.769531 81.730469 101.4375 81.90625 101.085938 82.050781 C 100.738281 82.191406 100.375 82.300781 100.003906 82.375 C 99.632812 82.449219 99.257812 82.484375 98.878906 82.484375 C 98.5 82.484375 98.125 82.449219 97.75 82.375 C 97.378906 82.300781 97.019531 82.191406 96.667969 82.050781 C 96.316406 81.90625 95.984375 81.730469 95.667969 81.519531 C 95.355469 81.3125 95.0625 81.078125 94.792969 80.8125 C 94.527344 80.546875 94.289062 80.257812 94.078125 79.945312 C 93.867188 79.632812 93.6875 79.304688 93.542969 78.957031 C 93.398438 78.613281 93.289062 78.253906 93.214844 77.886719 C 93.140625 77.519531 93.105469 77.148438 93.105469 76.773438 C 93.105469 76.398438 93.140625 76.027344 93.214844 75.660156 C 93.289062 75.289062 93.398438 74.933594 93.542969 74.585938 C 93.6875 74.242188 93.867188 73.910156 94.078125 73.597656 C 94.289062 73.289062 94.527344 73 94.792969 72.734375 C 95.0625 72.46875 95.355469 72.230469 95.667969 72.023438 C 95.984375 71.816406 96.316406 71.640625 96.667969 71.496094 C 97.019531 71.351562 97.378906 71.242188 97.75 71.171875 C 98.125 71.097656 98.5 71.0625 98.878906 71.0625 C 99.257812 71.0625 99.632812 71.097656 100.003906 71.171875 C 100.375 71.242188 100.738281 71.351562 101.085938 71.496094 C 101.4375 71.640625 101.769531 71.816406 102.085938 72.023438 C 102.402344 72.230469 102.691406 72.46875 102.960938 72.734375 C 103.230469 73 103.46875 73.289062 103.679688 73.597656 C 103.890625 73.910156 104.066406 74.242188 104.210938 74.585938 C 104.359375 74.933594 104.46875 75.289062 104.542969 75.660156 C 104.613281 76.027344 104.652344 76.398438 104.652344 76.773438 Z M 104.652344 76.773438 " fill-opacity="1" fill-rule="nonzero"/><path fill="rgb(100%, 100%, 100%)" d="M 94.464844 76.625 C 94.464844 77.011719 94.425781 77.390625 94.351562 77.769531 C 94.277344 78.144531 94.164062 78.511719 94.015625 78.867188 C 93.867188 79.222656 93.683594 79.5625 93.46875 79.882812 C 93.25 80.199219 93.003906 80.496094 92.730469 80.769531 C 92.457031 81.039062 92.15625 81.285156 91.832031 81.496094 C 91.507812 81.710938 91.167969 81.890625 90.808594 82.039062 C 90.449219 82.1875 90.078125 82.296875 89.695312 82.371094 C 89.316406 82.449219 88.929688 82.484375 88.542969 82.484375 C 88.152344 82.484375 87.765625 82.449219 87.386719 82.371094 C 87.003906 82.296875 86.632812 82.1875 86.273438 82.039062 C 85.914062 81.890625 85.574219 81.710938 85.25 81.496094 C 84.925781 81.285156 84.628906 81.039062 84.351562 80.769531 C 84.078125 80.496094 83.832031 80.199219 83.617188 79.882812 C 83.398438 79.5625 83.21875 79.222656 83.070312 78.867188 C 82.921875 78.511719 82.808594 78.144531 82.730469 77.769531 C 82.65625 77.390625 82.617188 77.011719 82.617188 76.625 C 82.617188 76.242188 82.65625 75.859375 82.730469 75.484375 C 82.808594 75.105469 82.921875 74.738281 83.070312 74.382812 C 83.21875 74.027344 83.398438 73.691406 83.617188 73.371094 C 83.832031 73.050781 84.078125 72.753906 84.351562 72.484375 C 84.628906 72.210938 84.925781 71.96875 85.25 71.753906 C 85.574219 71.539062 85.914062 71.359375 86.273438 71.210938 C 86.632812 71.066406 87.003906 70.953125 87.386719 70.878906 C 87.765625 70.804688 88.152344 70.765625 88.542969 70.765625 C 88.929688 70.765625 89.316406 70.804688 89.695312 70.878906 C 90.078125 70.953125 90.449219 71.066406 90.808594 71.210938 C 91.167969 71.359375 91.507812 71.539062 91.832031 71.753906 C 92.15625 71.96875 92.457031 72.210938 92.730469 72.484375 C 93.003906 72.753906 93.25 73.050781 93.46875 73.371094 C 93.683594 73.691406 93.867188 74.027344 94.015625 74.382812 C 94.164062 74.738281 94.277344 75.105469 94.351562 75.484375 C 94.425781 75.859375 94.464844 76.242188 94.464844 76.625 Z M 94.464844 76.625 " fill-opacity="1" fill-rule="nonzero"/><path fill="rgb(0.389099%, 0.389099%, 0.389099%)" d="M 84.296875 83.152344 C 84.296875 83.152344 86.1875 88.492188 96.300781 88.988281 C 96.300781 88.988281 93.796875 92.179688 89.1875 92.289062 C 84.574219 92.398438 84.296875 83.152344 84.296875 83.152344 Z M 84.296875 83.152344 " fill-opacity="1" fill-rule="nonzero"/><path fill="rgb(0%, 0%, 0%)" d="M 105.402344 68.292969 L 95.621094 67.839844 L 95.777344 64.539062 Z M 105.402344 68.292969 " fill-opacity="1" fill-rule="nonzero"/><path fill="rgb(52.938843%, 52.938843%, 52.938843%)" d="M 90.320312 57.765625 C 78.066406 58.757812 73.527344 66.515625 73.527344 66.515625 L 108.328125 63.703125 C 108.328125 63.703125 102.574219 56.777344 90.320312 57.765625 Z M 90.320312 57.765625 " fill-opacity="1" fill-rule="nonzero"/><path fill="rgb(0%, 0%, 0%)" d="M 80.609375 69.394531 L 90.648438 67.558594 L 90.066406 64.449219 Z M 80.609375 69.394531 " fill-opacity="1" fill-rule="nonzero"/><path fill="rgb(0%, 0%, 0%)" d="M 90.296875 76.625 C 90.296875 76.855469 90.253906 77.078125 90.164062 77.289062 C 90.074219 77.503906 89.949219 77.691406 89.785156 77.855469 C 89.617188 78.015625 89.429688 78.144531 89.214844 78.230469 C 89 78.320312 88.773438 78.363281 88.542969 78.363281 C 88.308594 78.363281 88.085938 78.320312 87.871094 78.230469 C 87.652344 78.144531 87.464844 78.015625 87.300781 77.855469 C 87.136719 77.691406 87.007812 77.503906 86.917969 77.289062 C 86.828125 77.078125 86.785156 76.855469 86.785156 76.625 C 86.785156 76.394531 86.828125 76.171875 86.917969 75.960938 C 87.007812 75.746094 87.136719 75.558594 87.300781 75.398438 C 87.464844 75.234375 87.652344 75.109375 87.871094 75.019531 C 88.085938 74.933594 88.308594 74.886719 88.542969 74.886719 C 88.773438 74.886719 89 74.933594 89.214844 75.019531 C 89.429688 75.109375 89.617188 75.234375 89.785156 75.398438 C 89.949219 75.558594 90.074219 75.746094 90.164062 75.960938 C 90.253906 76.171875 90.296875 76.394531 90.296875 76.625 Z M 90.296875 76.625 " fill-opacity="1" fill-rule="nonzero"/><path fill="rgb(0%, 0%, 0%)" d="M 100.632812 76.539062 C 100.632812 76.769531 100.589844 76.988281 100.5 77.203125 C 100.410156 77.414062 100.285156 77.605469 100.121094 77.765625 C 99.957031 77.929688 99.765625 78.054688 99.550781 78.144531 C 99.335938 78.230469 99.109375 78.273438 98.878906 78.273438 C 98.644531 78.273438 98.421875 78.230469 98.207031 78.144531 C 97.992188 78.054688 97.800781 77.929688 97.636719 77.765625 C 97.472656 77.605469 97.34375 77.414062 97.253906 77.203125 C 97.167969 76.988281 97.121094 76.769531 97.121094 76.539062 C 97.121094 76.308594 97.167969 76.085938 97.253906 75.871094 C 97.34375 75.660156 97.472656 75.472656 97.636719 75.308594 C 97.800781 75.144531 97.992188 75.019531 98.207031 74.933594 C 98.421875 74.84375 98.644531 74.800781 98.878906 74.800781 C 99.109375 74.800781 99.335938 74.84375 99.550781 74.933594 C 99.765625 75.019531 99.957031 75.144531 100.121094 75.308594 C 100.285156 75.472656 100.410156 75.660156 100.5 75.871094 C 100.589844 76.085938 100.632812 76.308594 100.632812 76.539062 Z M 100.632812 76.539062 " fill-opacity="1" fill-rule="nonzero"/><path fill="rgb(38.42926%, 38.42926%, 38.42926%)" d="M 82.617188 61.171875 L 85.117188 60.828125 C 85.175781 60.261719 88.519531 51.191406 94.699219 59.519531 L 97.0625 59.195312 C 97.0625 59.195312 94.199219 54.589844 90.910156 54.171875 C 90.398438 54.109375 89.875 53.992188 89.300781 54.070312 C 89.300781 54.066406 84.675781 54.054688 82.617188 61.171875 Z M 82.617188 61.171875 " fill-opacity="1" fill-rule="nonzero"/><path fill="rgb(61.959839%, 61.569214%, 61.569214%)" d="M 105.855469 87.722656 L 118.035156 78.375 L 122.226562 78.328125 C 122.226562 78.328125 124.480469 77.496094 122.214844 76.882812 L 119.332031 76.820312 L 120.933594 75.113281 C 120.933594 75.113281 122.140625 73.390625 120.746094 73.675781 C 120.550781 73.71875 119.953125 74.074219 119.652344 74.195312 L 117.558594 76.066406 L 117.589844 74.015625 C 117.570312 73.671875 117.53125 73.332031 117.472656 72.992188 C 117.457031 72.890625 117.421875 72.792969 117.371094 72.703125 C 117.335938 72.640625 117.289062 72.585938 117.234375 72.546875 C 117.007812 72.375 116.53125 72.15625 116.179688 72.425781 C 116.003906 72.660156 115.902344 72.925781 115.871094 73.214844 C 115.757812 74.3125 115.796875 76.152344 115.796875 76.152344 L 107.261719 83.066406 Z M 105.855469 87.722656 " fill-opacity="1" fill-rule="nonzero"/><path fill="rgb(61.959839%, 61.569214%, 61.569214%)" d="M 74.183594 86.542969 L 74.417969 84.542969 L 74.675781 82.367188 L 72.953125 79.796875 L 68.179688 73.035156 L 69.125 69.734375 C 69.125 69.734375 69.242188 68.085938 67.917969 69.222656 L 66.824219 71.417969 L 65.691406 69.257812 C 65.570312 69 65.414062 68.769531 65.214844 68.566406 C 65.015625 68.386719 64.5625 68.339844 64.394531 68.347656 C 64.160156 68.359375 63.980469 69.300781 64.277344 69.742188 L 65.113281 72.085938 L 62.453125 71.015625 C 62.453125 71.015625 61.476562 71.386719 62.921875 72.417969 L 65.902344 74.089844 Z M 74.183594 86.542969 " fill-opacity="1" fill-rule="nonzero"/><path fill="rgb(11.369324%, 11.369324%, 10.5896%)" d="M 18.261719 92.851562 L 15.34375 92.851562 L 15.34375 89.585938 L 24.542969 89.585938 L 24.542969 92.851562 L 21.621094 92.851562 L 21.621094 102.082031 L 18.261719 102.082031 Z M 18.261719 92.851562 " fill-opacity="1" fill-rule="nonzero"/><path fill="rgb(11.369324%, 11.369324%, 10.5896%)" d="M 29.679688 98.941406 L 28.769531 98.941406 L 28.769531 102.082031 L 25.410156 102.082031 L 25.410156 89.582031 L 30.207031 89.582031 C 32.984375 89.582031 34.75 91.40625 34.75 94.296875 C 34.75 96.101562 34.066406 97.460938 32.871094 98.226562 L 34.960938 102.082031 L 31.375 102.082031 Z M 29.992188 92.832031 L 28.765625 92.832031 L 28.765625 95.765625 L 29.992188 95.765625 C 30.917969 95.765625 31.359375 95.210938 31.359375 94.300781 C 31.359375 93.390625 30.917969 92.832031 29.992188 92.832031 Z M 29.992188 92.832031 " fill-opacity="1" fill-rule="nonzero"/><path fill="rgb(11.369324%, 11.369324%, 10.5896%)" d="M 42.804688 99.902344 L 39.019531 99.902344 L 38.351562 102.082031 L 34.9375 102.082031 L 39.292969 89.582031 L 42.59375 89.582031 L 46.949219 102.082031 L 43.476562 102.082031 Z M 41.886719 96.867188 L 40.914062 93.726562 L 39.945312 96.867188 Z M 41.886719 96.867188 " fill-opacity="1" fill-rule="nonzero"/><path fill="rgb(11.369324%, 11.369324%, 10.5896%)" d="M 46.863281 101.082031 L 47.945312 98.011719 C 48.886719 98.707031 50.136719 99.152344 51.234375 99.152344 C 52.1875 99.152344 52.53125 98.902344 52.53125 98.472656 C 52.53125 96.902344 47.019531 98.167969 47.019531 93.511719 C 47.019531 91.191406 48.570312 89.296875 51.660156 89.296875 C 53 89.296875 54.378906 89.652344 55.417969 90.386719 L 54.40625 93.441406 C 53.421875 92.816406 52.496094 92.511719 51.628906 92.511719 C 50.648438 92.511719 50.332031 92.867188 50.332031 93.296875 C 50.332031 94.796875 55.84375 93.546875 55.84375 98.152344 C 55.84375 100.4375 54.292969 102.367188 51.203125 102.367188 C 49.539062 102.367188 47.859375 101.847656 46.863281 101.082031 Z M 46.863281 101.082031 " fill-opacity="1" fill-rule="nonzero"/><path fill="rgb(11.369324%, 11.369324%, 10.5896%)" d="M 66.667969 89.582031 L 66.667969 102.082031 L 63.304688 102.082031 L 63.304688 97.476562 L 60.203125 97.476562 L 60.203125 102.082031 L 56.84375 102.082031 L 56.84375 89.582031 L 60.203125 89.582031 L 60.203125 94.011719 L 63.304688 94.011719 L 63.304688 89.582031 Z M 66.667969 89.582031 " fill-opacity="1" fill-rule="nonzero"/><path fill="rgb(94.509888%, 52.159119%, 11.369324%)" d="M 18.261719 92.851562 L 15.34375 92.851562 L 15.34375 89.585938 L 24.542969 89.585938 L 24.542969 92.851562 L 21.621094 92.851562 L 21.621094 102.082031 L 18.261719 102.082031 Z M 18.261719 92.851562 " fill-opacity="1" fill-rule="nonzero"/><path fill="rgb(94.509888%, 52.159119%, 11.369324%)" d="M 29.679688 98.941406 L 28.769531 98.941406 L 28.769531 102.082031 L 25.410156 102.082031 L 25.410156 89.582031 L 30.207031 89.582031 C 32.984375 89.582031 34.75 91.40625 34.75 94.296875 C 34.75 96.101562 34.066406 97.460938 32.871094 98.226562 L 34.960938 102.082031 L 31.375 102.082031 Z M 29.992188 92.832031 L 28.765625 92.832031 L 28.765625 95.765625 L 29.992188 95.765625 C 30.917969 95.765625 31.359375 95.210938 31.359375 94.300781 C 31.359375 93.390625 30.917969 92.832031 29.992188 92.832031 Z M 29.992188 92.832031 " fill-opacity="1" fill-rule="nonzero"/><path fill="rgb(94.509888%, 52.159119%, 11.369324%)" d="M 42.804688 99.902344 L 39.019531 99.902344 L 38.351562 102.082031 L 34.9375 102.082031 L 39.292969 89.582031 L 42.59375 89.582031 L 46.949219 102.082031 L 43.476562 102.082031 Z M 41.886719 96.867188 L 40.914062 93.726562 L 39.945312 96.867188 Z M 41.886719 96.867188 " fill-opacity="1" fill-rule="nonzero"/><path fill="rgb(94.509888%, 52.159119%, 11.369324%)" d="M 46.863281 101.082031 L 47.945312 98.011719 C 48.886719 98.707031 50.136719 99.152344 51.234375 99.152344 C 52.1875 99.152344 52.53125 98.902344 52.53125 98.472656 C 52.53125 96.902344 47.019531 98.167969 47.019531 93.511719 C 47.019531 91.191406 48.570312 89.296875 51.660156 89.296875 C 53 89.296875 54.378906 89.652344 55.417969 90.386719 L 54.40625 93.441406 C 53.421875 92.816406 52.496094 92.511719 51.628906 92.511719 C 50.648438 92.511719 50.332031 92.867188 50.332031 93.296875 C 50.332031 94.796875 55.84375 93.546875 55.84375 98.152344 C 55.84375 100.4375 54.292969 102.367188 51.203125 102.367188 C 49.539062 102.367188 47.859375 101.847656 46.863281 101.082031 Z M 46.863281 101.082031 " fill-opacity="1" fill-rule="nonzero"/><path fill="rgb(94.509888%, 52.159119%, 11.369324%)" d="M 66.667969 89.582031 L 66.667969 102.082031 L 63.304688 102.082031 L 63.304688 97.476562 L 60.203125 97.476562 L 60.203125 102.082031 L 56.84375 102.082031 L 56.84375 89.582031 L 60.203125 89.582031 L 60.203125 94.011719 L 63.304688 94.011719 L 63.304688 89.582031 Z M 66.667969 89.582031 " fill-opacity="1" fill-rule="nonzero"/><path fill="rgb(97.648621%, 69.018555%, 8.628845%)" d="M 19.019531 92.851562 L 16.101562 92.851562 L 16.101562 89.585938 L 25.296875 89.585938 L 25.296875 92.851562 L 22.378906 92.851562 L 22.378906 102.082031 L 19.019531 102.082031 Z M 19.019531 92.851562 " fill-opacity="1" fill-rule="nonzero"/><path fill="rgb(97.648621%, 69.018555%, 8.628845%)" d="M 30.4375 98.941406 L 29.523438 98.941406 L 29.523438 102.082031 L 26.164062 102.082031 L 26.164062 89.582031 L 30.964844 89.582031 C 33.738281 89.582031 35.503906 91.40625 35.503906 94.296875 C 35.503906 96.101562 34.820312 97.460938 33.625 98.226562 L 35.71875 102.082031 L 32.128906 102.082031 Z M 30.75 92.832031 L 29.523438 92.832031 L 29.523438 95.765625 L 30.75 95.765625 C 31.675781 95.765625 32.117188 95.210938 32.117188 94.300781 C 32.117188 93.390625 31.675781 92.832031 30.75 92.832031 Z M 30.75 92.832031 " fill-opacity="1" fill-rule="nonzero"/><path fill="rgb(97.648621%, 69.018555%, 8.628845%)" d="M 43.5625 99.902344 L 39.777344 99.902344 L 39.109375 102.082031 L 35.6875 102.082031 L 40.042969 89.582031 L 43.34375 89.582031 L 47.699219 102.082031 L 44.222656 102.082031 Z M 42.640625 96.867188 L 41.667969 93.726562 L 40.699219 96.867188 Z M 42.640625 96.867188 " fill-opacity="1" fill-rule="nonzero"/><path fill="rgb(97.648621%, 69.018555%, 8.628845%)" d="M 47.621094 101.082031 L 48.699219 98.011719 C 49.640625 98.707031 50.894531 99.152344 51.988281 99.152344 C 52.945312 99.152344 53.285156 98.902344 53.285156 98.472656 C 53.285156 96.902344 47.777344 98.167969 47.777344 93.511719 C 47.777344 91.191406 49.328125 89.296875 52.417969 89.296875 C 53.753906 89.296875 55.136719 89.652344 56.175781 90.386719 L 55.164062 93.4375 C 54.183594 92.8125 53.257812 92.511719 52.386719 92.511719 C 51.40625 92.511719 51.09375 92.867188 51.09375 93.296875 C 51.09375 94.796875 56.601562 93.546875 56.601562 98.152344 C 56.601562 100.4375 55.050781 102.367188 51.960938 102.367188 C 50.296875 102.367188 48.617188 101.847656 47.621094 101.082031 Z M 47.621094 101.082031 " fill-opacity="1" fill-rule="nonzero"/><path fill="rgb(97.648621%, 69.018555%, 8.628845%)" d="M 67.421875 89.582031 L 67.421875 102.082031 L 64.0625 102.082031 L 64.0625 97.476562 L 60.957031 97.476562 L 60.957031 102.082031 L 57.597656 102.082031 L 57.597656 89.582031 L 60.957031 89.582031 L 60.957031 94.011719 L 64.0625 94.011719 L 64.0625 89.582031 Z M 67.421875 89.582031 " fill-opacity="1" fill-rule="nonzero"/><path fill="rgb(11.369324%, 11.369324%, 10.5896%)" d="M 116.003906 94.625 C 116.003906 90.691406 118.347656 87.929688 121.542969 87.929688 C 123.488281 87.929688 125.019531 88.847656 126.003906 90.492188 L 123.886719 92.925781 C 123.304688 91.972656 122.609375 91.421875 121.714844 91.421875 C 120.320312 91.421875 119.382812 92.667969 119.382812 94.625 C 119.382812 96.582031 120.320312 97.828125 121.714844 97.828125 C 122.609375 97.828125 123.304688 97.277344 123.886719 96.328125 L 126.007812 98.757812 C 125.027344 100.40625 123.492188 101.320312 121.546875 101.320312 C 118.347656 101.320312 116.003906 98.558594 116.003906 94.625 Z M 116.003906 94.625 " fill-opacity="1" fill-rule="nonzero"/><path fill="rgb(11.369324%, 11.369324%, 10.5896%)" d="M 133.601562 98.796875 L 129.824219 98.796875 L 129.15625 101.027344 L 125.746094 101.027344 L 130.097656 88.222656 L 133.394531 88.222656 L 137.742188 101.027344 L 134.273438 101.027344 Z M 132.683594 95.6875 L 131.71875 92.464844 L 130.75 95.6875 Z M 132.683594 95.6875 " fill-opacity="1" fill-rule="nonzero"/><path fill="rgb(11.369324%, 11.369324%, 10.5896%)" d="M 139.9375 91.570312 L 137.027344 91.570312 L 137.027344 88.222656 L 146.203125 88.222656 L 146.203125 91.570312 L 143.292969 91.570312 L 143.292969 101.027344 L 139.941406 101.027344 Z M 139.9375 91.570312 " fill-opacity="1" fill-rule="nonzero"/><path fill="rgb(11.369324%, 11.369324%, 10.5896%)" d="M 146.53125 94.625 C 146.53125 90.691406 148.871094 87.929688 152.070312 87.929688 C 154.011719 87.929688 155.546875 88.847656 156.527344 90.492188 L 154.414062 92.925781 C 153.832031 91.972656 153.132812 91.421875 152.238281 91.421875 C 150.847656 91.421875 149.910156 92.667969 149.910156 94.625 C 149.910156 96.582031 150.847656 97.828125 152.238281 97.828125 C 153.132812 97.828125 153.832031 97.277344 154.414062 96.328125 L 156.527344 98.757812 C 155.550781 100.40625 154.015625 101.320312 152.070312 101.320312 C 148.871094 101.320312 146.53125 98.558594 146.53125 94.625 Z M 146.53125 94.625 " fill-opacity="1" fill-rule="nonzero"/><path fill="rgb(11.369324%, 11.369324%, 10.5896%)" d="M 167.296875 88.222656 L 167.296875 101.027344 L 163.945312 101.027344 L 163.945312 96.308594 L 160.847656 96.308594 L 160.847656 101.027344 L 157.496094 101.027344 L 157.496094 88.222656 L 160.847656 88.222656 L 160.847656 92.757812 L 163.945312 92.757812 L 163.945312 88.222656 Z M 167.296875 88.222656 " fill-opacity="1" fill-rule="nonzero"/><path fill="rgb(11.369324%, 11.369324%, 10.5896%)" d="M 177.183594 97.769531 L 177.183594 101.027344 L 168.914062 101.027344 L 168.914062 88.222656 L 176.996094 88.222656 L 176.996094 91.480469 L 172.210938 91.480469 L 172.210938 92.980469 L 176.414062 92.980469 L 176.414062 96.089844 L 172.210938 96.089844 L 172.210938 97.773438 Z M 177.183594 97.769531 " fill-opacity="1" fill-rule="nonzero"/><path fill="rgb(11.369324%, 11.369324%, 10.5896%)" d="M 182.738281 97.804688 L 181.828125 97.804688 L 181.828125 101.027344 L 178.476562 101.027344 L 178.476562 88.222656 L 183.261719 88.222656 C 186.03125 88.222656 187.792969 90.089844 187.792969 93.050781 C 187.792969 94.898438 187.113281 96.289062 185.917969 97.078125 L 188.007812 101.027344 L 184.425781 101.027344 Z M 183.050781 91.550781 L 181.820312 91.550781 L 181.820312 94.550781 L 183.050781 94.550781 C 183.96875 94.550781 184.414062 93.984375 184.414062 93.050781 C 184.414062 92.117188 183.972656 91.550781 183.050781 91.550781 Z M 183.050781 91.550781 " fill-opacity="1" fill-rule="nonzero"/><path fill="rgb(11.369324%, 11.369324%, 10.5896%)" d="M 188.5625 88.222656 L 192.394531 88.222656 L 191.753906 96.125 L 189.195312 96.125 Z M 188.601562 99.015625 C 188.601562 97.792969 189.371094 96.855469 190.476562 96.855469 C 191.585938 96.855469 192.355469 97.789062 192.355469 99.015625 C 192.355469 100.222656 191.585938 101.210938 190.476562 101.210938 C 189.367188 101.210938 188.609375 100.222656 188.609375 99.015625 Z M 188.601562 99.015625 " fill-opacity="1" fill-rule="nonzero"/><path fill="rgb(94.509888%, 52.159119%, 11.369324%)" d="M 116.003906 94.625 C 116.003906 90.691406 118.347656 87.929688 121.542969 87.929688 C 123.488281 87.929688 125.019531 88.847656 126.003906 90.492188 L 123.886719 92.925781 C 123.304688 91.972656 122.609375 91.421875 121.714844 91.421875 C 120.320312 91.421875 119.382812 92.667969 119.382812 94.625 C 119.382812 96.582031 120.320312 97.828125 121.714844 97.828125 C 122.609375 97.828125 123.304688 97.277344 123.886719 96.328125 L 126.007812 98.761719 C 125.027344 100.40625 123.492188 101.320312 121.546875 101.320312 C 118.347656 101.320312 116.003906 98.558594 116.003906 94.625 Z M 116.003906 94.625 " fill-opacity="1" fill-rule="nonzero"/><path fill="rgb(94.509888%, 52.159119%, 11.369324%)" d="M 133.601562 98.796875 L 129.824219 98.796875 L 129.15625 101.027344 L 125.746094 101.027344 L 130.097656 88.222656 L 133.394531 88.222656 L 137.742188 101.027344 L 134.273438 101.027344 Z M 132.683594 95.6875 L 131.71875 92.46875 L 130.75 95.6875 Z M 132.683594 95.6875 " fill-opacity="1" fill-rule="nonzero"/><path fill="rgb(94.509888%, 52.159119%, 11.369324%)" d="M 139.9375 91.570312 L 137.027344 91.570312 L 137.027344 88.222656 L 146.203125 88.222656 L 146.203125 91.570312 L 143.292969 91.570312 L 143.292969 101.027344 L 139.941406 101.027344 Z M 139.9375 91.570312 " fill-opacity="1" fill-rule="nonzero"/><path fill="rgb(94.509888%, 52.159119%, 11.369324%)" d="M 146.53125 94.625 C 146.53125 90.691406 148.871094 87.929688 152.070312 87.929688 C 154.011719 87.929688 155.546875 88.847656 156.527344 90.492188 L 154.414062 92.925781 C 153.832031 91.972656 153.132812 91.421875 152.238281 91.421875 C 150.847656 91.421875 149.910156 92.667969 149.910156 94.625 C 149.910156 96.582031 150.847656 97.828125 152.238281 97.828125 C 153.132812 97.828125 153.832031 97.277344 154.414062 96.328125 L 156.527344 98.761719 C 155.550781 100.40625 154.015625 101.320312 152.070312 101.320312 C 148.871094 101.320312 146.53125 98.558594 146.53125 94.625 Z M 146.53125 94.625 " fill-opacity="1" fill-rule="nonzero"/><path fill="rgb(94.509888%, 52.159119%, 11.369324%)" d="M 167.296875 88.222656 L 167.296875 101.027344 L 163.945312 101.027344 L 163.945312 96.308594 L 160.847656 96.308594 L 160.847656 101.027344 L 157.496094 101.027344 L 157.496094 88.222656 L 160.847656 88.222656 L 160.847656 92.757812 L 163.945312 92.757812 L 163.945312 88.222656 Z M 167.296875 88.222656 " fill-opacity="1" fill-rule="nonzero"/><path fill="rgb(94.509888%, 52.159119%, 11.369324%)" d="M 177.183594 97.769531 L 177.183594 101.027344 L 168.914062 101.027344 L 168.914062 88.222656 L 176.996094 88.222656 L 176.996094 91.480469 L 172.210938 91.480469 L 172.210938 92.980469 L 176.414062 92.980469 L 176.414062 96.089844 L 172.210938 96.089844 L 172.210938 97.773438 Z M 177.183594 97.769531 " fill-opacity="1" fill-rule="nonzero"/><path fill="rgb(94.509888%, 52.159119%, 11.369324%)" d="M 182.738281 97.804688 L 181.828125 97.804688 L 181.828125 101.027344 L 178.476562 101.027344 L 178.476562 88.222656 L 183.261719 88.222656 C 186.03125 88.222656 187.792969 90.089844 187.792969 93.050781 C 187.792969 94.898438 187.113281 96.289062 185.917969 97.078125 L 188.007812 101.027344 L 184.425781 101.027344 Z M 183.050781 91.550781 L 181.820312 91.550781 L 181.820312 94.550781 L 183.050781 94.550781 C 183.96875 94.550781 184.414062 93.984375 184.414062 93.050781 C 184.414062 92.117188 183.972656 91.550781 183.050781 91.550781 Z M 183.050781 91.550781 " fill-opacity="1" fill-rule="nonzero"/><path fill="rgb(94.509888%, 52.159119%, 11.369324%)" d="M 188.5625 88.222656 L 192.394531 88.222656 L 191.753906 96.125 L 189.195312 96.125 Z M 188.601562 99.015625 C 188.601562 97.792969 189.371094 96.855469 190.476562 96.855469 C 191.585938 96.855469 192.355469 97.789062 192.355469 99.015625 C 192.355469 100.222656 191.585938 101.210938 190.476562 101.210938 C 189.367188 101.210938 188.609375 100.222656 188.609375 99.015625 Z M 188.601562 99.015625 " fill-opacity="1" fill-rule="nonzero"/><path fill="rgb(97.648621%, 69.018555%, 8.628845%)" d="M 116.976562 94.625 C 116.976562 90.691406 119.320312 87.929688 122.515625 87.929688 C 124.460938 87.929688 125.996094 88.847656 126.976562 90.492188 L 124.859375 92.925781 C 124.277344 91.972656 123.582031 91.421875 122.6875 91.421875 C 121.292969 91.421875 120.359375 92.667969 120.359375 94.625 C 120.359375 96.582031 121.292969 97.828125 122.6875 97.828125 C 123.582031 97.828125 124.277344 97.277344 124.859375 96.328125 L 126.976562 98.757812 C 125.996094 100.40625 124.460938 101.320312 122.515625 101.320312 C 119.320312 101.320312 116.976562 98.558594 116.976562 94.625 Z M 116.976562 94.625 " fill-opacity="1" fill-rule="nonzero"/><path fill="rgb(97.648621%, 69.018555%, 8.628845%)" d="M 134.574219 98.796875 L 130.796875 98.796875 L 130.128906 101.027344 L 126.722656 101.027344 L 131.070312 88.222656 L 134.363281 88.222656 L 138.710938 101.027344 L 135.242188 101.027344 Z M 133.65625 95.6875 L 132.6875 92.464844 L 131.722656 95.6875 Z M 133.65625 95.6875 " fill-opacity="1" fill-rule="nonzero"/><path fill="rgb(97.648621%, 69.018555%, 8.628845%)" d="M 140.910156 91.570312 L 138 91.570312 L 138 88.222656 L 147.179688 88.222656 L 147.179688 91.570312 L 144.269531 91.570312 L 144.269531 101.027344 L 140.917969 101.027344 Z M 140.910156 91.570312 " fill-opacity="1" fill-rule="nonzero"/><path fill="rgb(97.648621%, 69.018555%, 8.628845%)" d="M 147.503906 94.625 C 147.503906 90.691406 149.847656 87.929688 153.042969 87.929688 C 154.988281 87.929688 156.519531 88.847656 157.503906 90.492188 L 155.386719 92.925781 C 154.804688 91.972656 154.109375 91.421875 153.214844 91.421875 C 151.820312 91.421875 150.882812 92.667969 150.882812 94.625 C 150.882812 96.582031 151.820312 97.828125 153.214844 97.828125 C 154.109375 97.828125 154.804688 97.277344 155.386719 96.328125 L 157.503906 98.757812 C 156.523438 100.40625 154.988281 101.320312 153.042969 101.320312 C 149.847656 101.320312 147.503906 98.558594 147.503906 94.625 Z M 147.503906 94.625 " fill-opacity="1" fill-rule="nonzero"/><path fill="rgb(97.648621%, 69.018555%, 8.628845%)" d="M 168.269531 88.222656 L 168.269531 101.027344 L 164.917969 101.027344 L 164.917969 96.308594 L 161.820312 96.308594 L 161.820312 101.027344 L 158.46875 101.027344 L 158.46875 88.222656 L 161.820312 88.222656 L 161.820312 92.757812 L 164.917969 92.757812 L 164.917969 88.222656 Z M 168.269531 88.222656 " fill-opacity="1" fill-rule="nonzero"/><path fill="rgb(97.648621%, 69.018555%, 8.628845%)" d="M 178.15625 97.769531 L 178.15625 101.027344 L 169.890625 101.027344 L 169.890625 88.222656 L 177.96875 88.222656 L 177.96875 91.480469 L 173.183594 91.480469 L 173.183594 92.980469 L 177.386719 92.980469 L 177.386719 96.089844 L 173.183594 96.089844 L 173.183594 97.773438 Z M 178.15625 97.769531 " fill-opacity="1" fill-rule="nonzero"/><path fill="rgb(97.648621%, 69.018555%, 8.628845%)" d="M 183.710938 97.804688 L 182.800781 97.804688 L 182.800781 101.027344 L 179.449219 101.027344 L 179.449219 88.222656 L 184.234375 88.222656 C 187.007812 88.222656 188.769531 90.089844 188.769531 93.050781 C 188.769531 94.898438 188.085938 96.289062 186.894531 97.078125 L 188.980469 101.027344 L 185.398438 101.027344 Z M 184.023438 91.550781 L 182.800781 91.550781 L 182.800781 94.550781 L 184.023438 94.550781 C 184.941406 94.550781 185.386719 93.984375 185.386719 93.050781 C 185.386719 92.117188 184.945312 91.550781 184.023438 91.550781 Z M 184.023438 91.550781 " fill-opacity="1" fill-rule="nonzero"/><path fill="rgb(97.648621%, 69.018555%, 8.628845%)" d="M 189.535156 88.222656 L 193.371094 88.222656 L 192.730469 96.125 L 190.171875 96.125 Z M 189.578125 99.015625 C 189.578125 97.792969 190.34375 96.855469 191.453125 96.855469 C 192.558594 96.855469 193.328125 97.789062 193.328125 99.015625 C 193.328125 100.222656 192.558594 101.210938 191.453125 101.210938 C 190.34375 101.210938 189.578125 100.222656 189.578125 99.015625 Z M 189.578125 99.015625 " fill-opacity="1" fill-rule="nonzero"/><path fill="rgb(90.979004%, 30.589294%, 5.879211%)" d="M 121.15625 59.40625 C 121.875 58.664062 124.484375 56.402344 126.910156 59.699219 C 126.914062 59.703125 126.917969 59.710938 126.921875 59.71875 L 126.996094 59.878906 C 127.015625 59.917969 127.042969 59.9375 127.085938 59.941406 C 127.277344 59.960938 127.847656 60.074219 128.257812 60.757812 C 128.28125 60.792969 128.308594 60.808594 128.347656 60.8125 C 128.722656 60.835938 130.703125 61.027344 130.871094 62.457031 C 130.875 62.472656 130.878906 62.484375 130.882812 62.5 C 130.960938 62.640625 131.429688 63.632812 130.632812 65.222656 C 130.613281 65.265625 130.582031 65.289062 130.535156 65.292969 C 130.488281 65.296875 130.453125 65.277344 130.429688 65.238281 C 130.121094 64.761719 129.132812 63.445312 127.699219 63.539062 C 127.65625 63.542969 127.625 63.527344 127.597656 63.496094 C 127.460938 63.304688 126.921875 62.648438 126.164062 62.632812 C 126.117188 62.632812 126.082031 62.609375 126.0625 62.5625 C 125.992188 62.394531 125.757812 61.980469 125.039062 61.933594 C 124.996094 61.933594 124.964844 61.910156 124.945312 61.871094 C 124.765625 61.496094 123.699219 59.523438 121.242188 59.601562 C 121.191406 59.601562 121.15625 59.578125 121.136719 59.53125 C 121.117188 59.484375 121.121094 59.445312 121.15625 59.40625 Z M 121.15625 59.40625 " fill-opacity="1" fill-rule="nonzero"/><path fill="rgb(98.429871%, 94.898987%, 63.529968%)" d="M 123.859375 63.445312 L 124 63.242188 C 124.019531 63.210938 124.046875 63.195312 124.082031 63.191406 C 124.171875 63.183594 124.332031 63.132812 124.195312 62.859375 C 124.175781 62.824219 124.175781 62.789062 124.195312 62.75 L 124.789062 61.667969 C 124.8125 61.625 124.84375 61.605469 124.890625 61.605469 C 124.9375 61.605469 124.972656 61.625 124.996094 61.667969 L 125.03125 61.738281 C 125.050781 61.78125 125.085938 61.800781 125.132812 61.800781 C 125.339844 61.800781 125.976562 61.84375 126.164062 62.441406 C 126.179688 62.484375 126.207031 62.507812 126.25 62.515625 C 126.433594 62.550781 126.925781 62.667969 127.074219 62.902344 C 127.117188 62.96875 127.105469 63.023438 127.039062 63.066406 L 126.628906 63.316406 C 126.621094 63.320312 126.613281 63.328125 126.609375 63.332031 L 125.863281 64.066406 C 125.851562 64.074219 125.84375 64.082031 125.832031 64.085938 C 125.746094 64.128906 125.378906 64.308594 125.277344 64.421875 C 125.273438 64.425781 125.269531 64.429688 125.269531 64.433594 L 124.839844 65.007812 L 124.417969 65.617188 L 124.410156 65.628906 L 123.871094 66.257812 L 123.859375 66.269531 C 123.804688 66.320312 123.359375 66.742188 123.476562 67.234375 C 123.546875 67.554688 123.714844 67.804688 123.988281 67.984375 L 124 67.988281 L 124.433594 68.195312 L 124.449219 68.203125 L 124.824219 68.449219 C 124.839844 68.460938 124.851562 68.472656 124.863281 68.492188 C 124.953125 68.667969 125.066406 68.824219 125.203125 68.964844 C 125.238281 69 125.25 69.039062 125.234375 69.082031 C 125.222656 69.128906 125.195312 69.15625 125.148438 69.164062 L 125.054688 69.1875 C 125.042969 69.1875 125.03125 69.1875 125.019531 69.1875 L 124.589844 69.152344 C 124.582031 69.152344 124.578125 69.152344 124.570312 69.152344 L 124.117188 69.03125 L 124.097656 69.023438 L 123.605469 68.78125 L 123.59375 68.773438 L 123.183594 68.492188 L 123.171875 68.480469 L 122.898438 68.226562 C 122.867188 68.199219 122.855469 68.160156 122.863281 68.121094 L 122.917969 67.851562 C 122.929688 67.800781 122.914062 67.761719 122.867188 67.730469 C 122.707031 67.636719 122.296875 67.425781 121.871094 67.449219 C 121.8125 67.453125 121.773438 67.429688 121.753906 67.375 L 121.664062 67.109375 C 121.664062 67.109375 121.664062 66.988281 121.355469 67.121094 L 121.34375 67.128906 C 121.160156 67.226562 120.972656 67.234375 120.785156 67.144531 L 120.769531 67.136719 C 120.695312 67.117188 120.125 66.949219 119.886719 66.671875 C 119.863281 66.648438 119.597656 66.367188 119.773438 65.890625 C 119.792969 65.839844 119.78125 65.796875 119.738281 65.761719 L 119.238281 65.351562 C 119.226562 65.34375 119.21875 65.335938 119.214844 65.324219 L 119.042969 65.046875 C 119.011719 64.996094 119.019531 64.949219 119.0625 64.90625 C 119.105469 64.867188 119.152344 64.863281 119.203125 64.894531 L 119.703125 65.203125 L 119.71875 65.214844 L 120.976562 65.722656 C 120.992188 65.726562 121.003906 65.734375 121.011719 65.746094 C 121.042969 65.773438 121.164062 65.839844 121.558594 65.726562 C 121.566406 65.726562 121.574219 65.722656 121.582031 65.71875 L 122.167969 65.402344 C 122.179688 65.394531 122.1875 65.386719 122.199219 65.378906 L 122.699219 64.839844 L 122.703125 64.832031 L 123.011719 64.457031 L 123.425781 63.9375 L 123.425781 63.929688 L 123.851562 63.46875 Z M 123.859375 63.445312 " fill-opacity="1" fill-rule="nonzero"/><path fill="rgb(90.979004%, 30.589294%, 5.879211%)" d="M 126.292969 69.082031 C 126.226562 69.277344 125.957031 69.785156 124.925781 70.085938 L 124.902344 70.085938 C 124.777344 70.097656 123.664062 70.179688 123.121094 69.910156 C 123.121094 69.910156 121.988281 69.34375 121.835938 69.242188 C 121.6875 69.136719 121.042969 68.441406 121.042969 68.441406 C 120.550781 67.957031 119.992188 67.5625 119.375 67.25 C 119.363281 67.242188 119.355469 67.238281 119.34375 67.226562 C 119.085938 66.957031 118.890625 66.644531 118.757812 66.296875 C 118.753906 66.285156 118.753906 66.277344 118.753906 66.269531 C 118.738281 66.144531 118.648438 65.230469 118.78125 64.96875 C 118.785156 64.964844 118.785156 64.960938 118.789062 64.953125 L 118.910156 64.617188 C 118.925781 64.570312 118.957031 64.542969 119.007812 64.539062 C 119.058594 64.535156 119.097656 64.554688 119.121094 64.601562 C 119.261719 64.875 119.535156 65.304688 119.90625 65.488281 C 119.960938 65.515625 119.980469 65.558594 119.96875 65.617188 C 119.894531 65.933594 119.808594 66.949219 121.695312 66.777344 C 121.746094 66.773438 121.78125 66.792969 121.804688 66.839844 L 121.945312 67.113281 C 121.96875 67.152344 122 67.171875 122.046875 67.171875 C 122.253906 67.171875 122.882812 67.210938 123.089844 67.425781 C 123.121094 67.460938 123.128906 67.5 123.113281 67.542969 C 123.070312 67.660156 123 67.949219 123.226562 68.0625 L 123.234375 68.070312 L 124.226562 68.699219 C 124.238281 68.707031 124.25 68.710938 124.261719 68.714844 L 125.113281 68.890625 C 125.128906 68.894531 125.140625 68.894531 125.15625 68.890625 L 125.652344 68.804688 C 125.664062 68.804688 125.675781 68.804688 125.6875 68.804688 C 125.878906 68.828125 126.058594 68.871094 126.238281 68.9375 C 126.300781 68.96875 126.320312 69.015625 126.292969 69.082031 Z M 126.292969 69.082031 " fill-opacity="1" fill-rule="nonzero"/><path fill="rgb(52.938843%, 35.289001%, 7.449341%)" d="M 128.484375 58.832031 C 128.484375 58.832031 128.882812 58.746094 129.039062 59.035156 C 129.089844 59.097656 129.085938 59.15625 129.027344 59.207031 C 128.898438 59.242188 128.78125 59.304688 128.679688 59.386719 L 128.40625 59.609375 L 128.234375 59.773438 L 128.101562 59.96875 L 127.972656 60.15625 L 127.972656 60.203125 L 127.929688 60.304688 L 127.886719 60.359375 C 127.753906 60.25 127.609375 60.15625 127.453125 60.082031 L 127.769531 59.707031 L 127.917969 59.492188 L 128.097656 59.246094 L 128.238281 59.039062 L 128.386719 58.886719 Z M 128.484375 58.832031 " fill-opacity="1" fill-rule="nonzero"/><path fill="rgb(97.24884%, 66.668701%, 0%)" d="M 73.816406 52.714844 L 73.445312 51.976562 L 75.519531 50.054688 L 77.363281 48.242188 L 77.730469 48.242188 L 76.257812 49.855469 L 75.589844 50.476562 L 74.980469 51.074219 L 74.695312 51.609375 L 74.382812 52.148438 Z M 73.816406 52.714844 " fill-opacity="1" fill-rule="nonzero"/><path fill="rgb(97.24884%, 66.668701%, 0%)" d="M 80.097656 51.441406 C 80.097656 51.441406 79.167969 51.261719 78.542969 50.578125 C 78.246094 50.277344 78.0625 49.917969 77.996094 49.5 L 77.542969 48.457031 L 77.171875 48.457031 L 76.097656 48.683594 C 76.097656 48.683594 74.910156 48.953125 74.355469 48.53125 L 73.976562 48.164062 L 73.671875 47.875 L 73.25 47.753906 L 72.242188 47.664062 L 73.25 47.167969 L 73.824219 46.792969 L 74.160156 46.527344 L 73.804688 46.40625 L 73.429688 46.242188 L 73.25 46.113281 L 73.082031 45.945312 L 72.894531 45.75 L 72.660156 45.378906 L 72.441406 45.105469 L 72.304688 44.972656 L 72.113281 44.855469 L 72.023438 44.785156 L 72.136719 44.734375 L 72.355469 44.667969 L 72.765625 44.523438 C 72.835938 44.511719 72.898438 44.480469 72.953125 44.429688 C 73.058594 44.347656 73.121094 44.054688 73.121094 44.054688 C 73.132812 43.898438 73.128906 43.746094 73.105469 43.59375 L 72.945312 43.207031 L 72.589844 42.558594 L 72.824219 42.558594 L 73.097656 42.613281 L 73.300781 42.65625 L 73.171875 42.136719 L 73.183594 41.636719 L 73.234375 41.167969 L 73.296875 40.828125 L 73.355469 40.285156 C 73.355469 40.285156 73.378906 40.230469 73.550781 40.414062 L 74.0625 41.085938 C 74.0625 41.085938 74.488281 41.652344 75.386719 41.886719 C 75.511719 41.644531 75.667969 41.429688 75.867188 41.246094 C 75.949219 41.707031 76.148438 42.117188 76.457031 42.476562 L 76.96875 42.949219 C 76.96875 42.949219 77.234375 43.246094 77.285156 43.519531 C 77.339844 43.789062 77.429688 43.875 77.429688 43.875 C 77.429688 43.875 77.710938 43.285156 77.832031 42.945312 C 77.832031 42.945312 77.816406 42.40625 77.71875 42.257812 L 77.476562 41.820312 L 78.027344 41.960938 C 78.027344 41.960938 78.558594 42.164062 78.777344 41.410156 L 78.816406 39.992188 L 78.988281 40.132812 L 79.566406 40.761719 L 79.824219 40.96875 C 79.824219 40.96875 80.347656 41.210938 80.46875 40.089844 L 80.570312 40.121094 L 80.707031 40.183594 L 80.925781 40.242188 L 81.222656 40.234375 L 81.796875 40.234375 C 82.292969 40.058594 82.75 39.808594 83.160156 39.480469 L 83.191406 40.484375 C 83.191406 40.484375 83.207031 41.1875 83.472656 41.210938 L 84.121094 41.4375 L 83.964844 41.730469 L 83.761719 42.054688 C 83.761719 42.054688 83.640625 42.320312 83.671875 42.484375 C 83.722656 42.648438 83.796875 42.800781 83.890625 42.941406 C 83.890625 42.941406 84.335938 43.210938 84.570312 43.226562 L 85.3125 43.347656 C 85.3125 43.347656 85.328125 43.371094 85.246094 43.476562 C 85.164062 43.582031 83.769531 44.5625 83.769531 44.5625 L 83.503906 44.828125 L 84.367188 45.121094 L 83.996094 45.273438 L 83.625 45.347656 L 83.257812 45.46875 L 82.917969 45.550781 L 82.539062 45.722656 L 82.335938 45.859375 L 82.027344 45.996094 L 81.613281 46.339844 C 81.613281 46.339844 82.6875 46.285156 83.40625 46.480469 L 83.917969 46.679688 L 84.273438 46.664062 L 84.472656 46.648438 C 84.472656 46.648438 84.621094 46.648438 84.574219 46.820312 C 84.574219 46.820312 84.839844 47.535156 85.164062 47.636719 C 85.609375 47.957031 86.097656 48.175781 86.632812 48.296875 C 86.632812 48.296875 86.875 48.46875 86.457031 48.484375 L 85.960938 48.546875 L 85.59375 48.636719 L 85.035156 48.824219 L 84.027344 49.1875 C 84.027344 49.1875 83.953125 49.253906 84.25 49.429688 L 84.375 49.578125 L 83.679688 49.617188 L 83.1875 49.632812 C 83.1875 49.632812 82.589844 49.664062 82.332031 50.101562 L 82.257812 50.3125 C 82.257812 50.3125 81.703125 50.109375 80.78125 50.175781 C 80.78125 50.175781 80.015625 50.109375 80.035156 50.796875 L 80.035156 50.847656 C 80.109375 51.589844 80.097656 51.441406 80.097656 51.441406 Z M 80.097656 51.441406 " fill-opacity="1" fill-rule="nonzero"/><path fill="rgb(99.609375%, 77.648926%, 0%)" d="M 76.972656 47.8125 C 76.972656 47.8125 74.605469 49.296875 74.261719 47.8125 C 74.261719 47.8125 74.628906 48.863281 76.972656 47.8125 Z M 76.972656 47.8125 " fill-opacity="1" fill-rule="nonzero"/><path fill="rgb(99.609375%, 77.648926%, 0%)" d="M 74.441406 46.46875 C 73.714844 46.34375 73.191406 45.945312 72.871094 45.28125 L 72.320312 44.824219 L 72.476562 44.824219 L 72.992188 45.210938 C 72.992188 45.210938 73.007812 45.695312 74.441406 46.46875 Z M 74.441406 46.46875 " fill-opacity="1" fill-rule="nonzero"/><path fill="rgb(99.609375%, 77.648926%, 0%)" d="M 77.214844 48.140625 C 77.214844 48.140625 80.410156 48.617188 83.015625 39.71875 C 83.011719 39.71875 80.472656 47.554688 77.214844 48.140625 Z M 77.214844 48.140625 " fill-opacity="1" fill-rule="nonzero"/><path fill="rgb(99.609375%, 77.648926%, 0%)" d="M 78.78125 46.691406 C 78.78125 46.691406 80.835938 45.671875 81.996094 40.699219 C 81.996094 40.695312 80.175781 45.96875 78.78125 46.691406 Z M 78.78125 46.691406 " fill-opacity="1" fill-rule="nonzero"/><path fill="rgb(99.609375%, 77.648926%, 0%)" d="M 78.214844 49.355469 C 78.214844 49.355469 78.300781 50.972656 79.710938 51.097656 C 78.945312 50.746094 78.445312 50.164062 78.214844 49.355469 Z M 78.214844 49.355469 " fill-opacity="1" fill-rule="nonzero"/><path fill="rgb(99.609375%, 77.648926%, 0%)" d="M 77.730469 47.117188 C 77.730469 47.117188 79.421875 47.074219 81.167969 42.015625 C 81.167969 42.019531 78.953125 47.160156 77.730469 47.117188 Z M 77.730469 47.117188 " fill-opacity="1" fill-rule="nonzero"/><path fill="rgb(99.609375%, 77.648926%, 0%)" d="M 83.011719 44.738281 L 84.898438 43.511719 C 84.898438 43.511719 83.484375 43.753906 83.011719 44.738281 Z M 83.011719 44.738281 " fill-opacity="1" fill-rule="nonzero"/><path fill="rgb(99.609375%, 77.648926%, 0%)" d="M 83.011719 41.109375 L 81.171875 45.046875 C 81.171875 45.046875 83.011719 42.503906 83.011719 41.109375 Z M 83.011719 41.109375 " fill-opacity="1" fill-rule="nonzero"/><path fill="rgb(99.609375%, 77.648926%, 0%)" d="M 75.589844 42.019531 L 75.761719 41.59375 C 75.761719 41.59375 76.132812 42.726562 76.34375 42.648438 C 76.34375 42.648438 77.0625 43.167969 77.085938 43.691406 C 77.109375 44.214844 76.871094 43.117188 76.335938 42.875 L 75.714844 42.023438 Z M 75.589844 42.019531 " fill-opacity="1" fill-rule="nonzero"/><path fill="rgb(99.609375%, 77.648926%, 0%)" d="M 73.445312 40.695312 C 73.445312 40.695312 74.566406 42.328125 75.027344 42.023438 C 75.027344 42.019531 74.257812 42.640625 73.445312 40.695312 Z M 73.445312 40.695312 " fill-opacity="1" fill-rule="nonzero"/><path fill="rgb(99.609375%, 77.648926%, 0%)" d="M 73.445312 41 C 73.445312 41 73.207031 41.839844 73.640625 42.40625 Z M 73.445312 41 " fill-opacity="1" fill-rule="nonzero"/><path fill="rgb(99.609375%, 77.648926%, 0%)" d="M 73.640625 41.59375 C 73.640625 41.59375 73.882812 42.191406 74.671875 42.410156 C 74.671875 42.40625 73.675781 42.277344 73.640625 41.59375 Z M 73.640625 41.59375 " fill-opacity="1" fill-rule="nonzero"/><path fill="rgb(99.609375%, 77.648926%, 0%)" d="M 86.136719 48.34375 C 86.136719 48.34375 84.589844 48.242188 83.953125 48.9375 C 84.648438 48.609375 85.375 48.414062 86.136719 48.34375 Z M 86.136719 48.34375 " fill-opacity="1" fill-rule="nonzero"/><path fill="rgb(99.609375%, 77.648926%, 0%)" d="M 85.75 48.144531 C 85.75 48.144531 84.769531 47.957031 84.523438 47.367188 C 84.523438 47.367188 84.585938 48.328125 85.75 48.144531 Z M 85.75 48.144531 " fill-opacity="1" fill-rule="nonzero"/><path fill="rgb(99.609375%, 77.648926%, 0%)" d="M 84.097656 49.484375 C 84.097656 49.484375 82.765625 49.363281 82.460938 49.667969 C 82.464844 49.667969 82.914062 48.976562 84.097656 49.484375 Z M 84.097656 49.484375 " fill-opacity="1" fill-rule="nonzero"/><path fill="rgb(99.609375%, 77.648926%, 0%)" d="M 83.726562 46.78125 C 83.726562 46.78125 82.910156 46.332031 81.675781 46.46875 C 81.675781 46.46875 83.441406 46.605469 83.726562 46.78125 Z M 83.726562 46.78125 " fill-opacity="1" fill-rule="nonzero"/><path fill="rgb(99.609375%, 77.648926%, 0%)" d="M 81.996094 45.835938 C 81.996094 45.835938 81.335938 46.300781 81.335938 46.613281 C 81.335938 46.613281 81.074219 46.128906 81.996094 45.835938 Z M 81.996094 45.835938 " fill-opacity="1" fill-rule="nonzero"/><path fill="rgb(99.609375%, 77.648926%, 0%)" d="M 84.386719 46.78125 C 84.386719 46.78125 83.582031 46.691406 83.28125 46.871094 C 82.976562 47.046875 83.421875 46.90625 84.386719 46.78125 Z M 84.386719 46.78125 " fill-opacity="1" fill-rule="nonzero"/><path fill="rgb(99.609375%, 77.648926%, 0%)" d="M 78.136719 42.40625 C 78.136719 42.40625 78.152344 43.773438 77.324219 44.214844 C 77.324219 44.214844 77.941406 43.753906 78.136719 42.40625 Z M 78.136719 42.40625 " fill-opacity="1" fill-rule="nonzero"/><path fill="rgb(99.609375%, 77.648926%, 0%)" d="M 77.691406 48.363281 C 77.691406 48.363281 79.023438 49.023438 80.707031 45.816406 C 80.707031 45.816406 80.363281 48.75 77.691406 48.363281 Z M 77.691406 48.363281 " fill-opacity="1" fill-rule="nonzero"/><path fill="rgb(99.609375%, 77.648926%, 0%)" d="M 78.964844 40.371094 C 78.964844 40.371094 79.015625 41.75 78.78125 41.800781 C 78.78125 41.792969 79.324219 41.511719 78.964844 40.371094 Z M 78.964844 40.371094 " fill-opacity="1" fill-rule="nonzero"/><path fill="rgb(90.979004%, 30.589294%, 5.879211%)" d="M 60.855469 81.890625 L 58.859375 80.015625 L 56.972656 78.335938 L 57.011719 78.042969 L 58.707031 79.410156 L 59.351562 80.011719 L 59.972656 80.570312 L 60.558594 80.859375 L 61.140625 81.171875 " fill-opacity="1" fill-rule="nonzero"/><path fill="rgb(90.979004%, 30.589294%, 5.879211%)" d="M 58.171875 71.566406 L 58.238281 71.863281 L 58.398438 72.332031 L 58.714844 73.171875 C 58.714844 73.171875 58.785156 73.238281 59.011719 73.027344 L 59.195312 72.945312 L 59.171875 73.5 L 59.140625 73.890625 C 59.140625 74.226562 59.292969 74.46875 59.589844 74.625 L 59.824219 74.710938 C 59.824219 74.710938 59.535156 75.117188 59.515625 75.863281 C 59.515625 75.863281 59.367188 76.457031 60.152344 76.527344 L 60.210938 76.527344 L 60.898438 76.5625 C 60.644531 77.066406 60.265625 77.441406 59.753906 77.683594 C 59.351562 77.894531 58.925781 78 58.46875 77.992188 L 57.238281 78.21875 L 57.203125 78.507812 L 57.347656 79.386719 C 57.347656 79.386719 57.542969 80.359375 57.003906 80.742188 L 56.550781 81 L 56.191406 81.207031 L 56.011719 81.523438 L 55.808594 82.308594 L 55.339844 81.449219 L 54.964844 80.949219 L 54.695312 80.65625 L 54.523438 80.921875 L 54.296875 81.195312 L 54.132812 81.320312 L 53.929688 81.433594 L 53.683594 81.558594 L 53.238281 81.699219 L 52.90625 81.839844 L 52.738281 81.941406 L 52.589844 82.078125 L 52.503906 82.140625 L 52.453125 82.046875 L 52.398438 81.863281 L 52.273438 81.523438 C 52.265625 81.457031 52.238281 81.40625 52.1875 81.363281 C 52.101562 81.273438 51.773438 81.183594 51.773438 81.183594 C 51.597656 81.15625 51.421875 81.140625 51.246094 81.140625 L 50.789062 81.21875 L 50.011719 81.421875 L 50.035156 81.234375 L 50.121094 81.03125 L 50.195312 80.875 L 49.585938 80.914062 L 49.019531 80.847656 L 48.488281 80.746094 L 48.105469 80.65625 L 47.492188 80.539062 C 47.492188 80.539062 47.433594 80.515625 47.660156 80.402344 L 48.476562 80.074219 C 48.933594 79.875 49.28125 79.558594 49.523438 79.125 C 49.269531 79.007812 49.042969 78.855469 48.835938 78.667969 C 49.347656 78.660156 49.835938 78.554688 50.300781 78.351562 L 50.894531 78.011719 C 51.113281 77.910156 51.335938 77.847656 51.574219 77.828125 C 51.890625 77.820312 51.996094 77.757812 51.996094 77.757812 C 51.996094 77.757812 51.347656 77.464844 50.972656 77.324219 C 50.972656 77.324219 50.359375 77.273438 50.175781 77.332031 L 49.648438 77.46875 L 49.867188 77.050781 C 49.867188 77.050781 50.15625 76.65625 49.3125 76.390625 L 47.695312 76.1875 L 47.875 76.066406 L 48.648438 75.6875 L 48.90625 75.507812 C 48.90625 75.507812 49.234375 75.125 47.96875 74.894531 L 48.015625 74.816406 L 48.097656 74.714844 L 48.1875 74.546875 L 48.210938 74.3125 L 48.265625 73.859375 C 48.265625 73.859375 48.105469 73.324219 47.539062 72.6875 L 48.691406 72.789062 C 48.691406 72.789062 49.492188 72.863281 49.546875 72.65625 L 49.867188 72.167969 L 50.191406 72.332031 L 50.542969 72.535156 C 50.695312 72.601562 50.855469 72.644531 51.023438 72.660156 C 51.207031 72.640625 51.386719 72.601562 51.5625 72.539062 C 51.5625 72.539062 51.917969 72.21875 51.957031 72.035156 L 52.171875 71.464844 C 52.171875 71.464844 52.199219 71.453125 52.3125 71.535156 C 52.421875 71.613281 53.40625 72.835938 53.40625 72.835938 L 53.683594 73.078125 L 54.105469 72.429688 L 54.242188 72.742188 L 54.292969 73.046875 L 54.382812 73.355469 L 54.445312 73.632812 L 54.605469 73.957031 L 54.742188 74.132812 L 54.867188 74.390625 L 55.222656 74.761719 C 55.222656 74.761719 55.269531 73.90625 55.566406 73.359375 L 55.839844 72.976562 L 55.859375 72.695312 L 55.859375 72.535156 C 55.859375 72.535156 55.875 72.417969 56.0625 72.472656 C 56.0625 72.472656 56.910156 72.351562 57.054688 72.105469 C 57.4375 71.816406 57.738281 71.457031 57.949219 71.023438 " fill-opacity="1" fill-rule="nonzero"/><path fill="rgb(92.549133%, 40.779114%, 24.708557%)" d="M 56.441406 78.59375 C 56.441406 78.59375 57.902344 80.648438 56.171875 80.734375 C 56.171875 80.738281 57.410156 80.574219 56.441406 78.59375 Z M 56.441406 78.59375 " fill-opacity="1" fill-rule="nonzero"/><path fill="rgb(92.549133%, 40.779114%, 24.708557%)" d="M 54.65625 80.429688 C 54.65625 80.429688 54.4375 81.222656 53.144531 81.523438 L 52.570312 81.910156 L 52.585938 81.78125 L 53.074219 81.421875 C 53.074219 81.421875 53.628906 81.46875 54.65625 80.429688 Z M 54.65625 80.429688 " fill-opacity="1" fill-rule="nonzero"/><path fill="rgb(92.549133%, 40.779114%, 24.708557%)" d="M 56.839844 78.441406 C 56.839844 78.441406 57.707031 75.976562 47.792969 72.824219 C 47.792969 72.824219 56.496094 75.792969 56.839844 78.441406 Z M 56.839844 78.441406 " fill-opacity="1" fill-rule="nonzero"/><path fill="rgb(92.549133%, 40.779114%, 24.708557%)" d="M 55.339844 77.027344 C 55.339844 77.027344 54.375 75.277344 48.808594 73.746094 C 48.808594 73.746094 54.65625 75.835938 55.339844 77.027344 Z M 55.339844 77.027344 " fill-opacity="1" fill-rule="nonzero"/><path fill="rgb(92.549133%, 40.779114%, 24.708557%)" d="M 58.332031 77.796875 C 58.332031 77.796875 60.183594 77.929688 60.46875 76.828125 C 60.46875 76.828125 59.863281 77.65625 58.332031 77.796875 Z M 58.332031 77.796875 " fill-opacity="1" fill-rule="nonzero"/><path fill="rgb(92.549133%, 40.779114%, 24.708557%)" d="M 55.726562 77.910156 C 55.726562 77.910156 55.847656 76.570312 50.242188 74.570312 C 50.242188 74.566406 55.894531 76.949219 55.726562 77.910156 Z M 55.726562 77.910156 " fill-opacity="1" fill-rule="nonzero"/><path fill="rgb(92.549133%, 40.779114%, 24.708557%)" d="M 53.527344 73.4375 L 52.316406 71.796875 C 52.316406 71.796875 52.453125 72.945312 53.527344 73.4375 Z M 53.527344 73.4375 " fill-opacity="1" fill-rule="nonzero"/><path fill="rgb(90.979004%, 30.589294%, 5.879211%)" d="M 49.382812 72.996094 L 53.699219 74.933594 C 53.699219 74.933594 50.972656 73.164062 49.382812 72.996094 Z M 49.382812 72.996094 " fill-opacity="1" fill-rule="nonzero"/><path fill="rgb(92.549133%, 40.779114%, 24.708557%)" d="M 49.6875 78.976562 L 49.21875 78.789062 C 49.21875 78.789062 50.550781 78.632812 50.480469 78.457031 C 50.480469 78.457031 51.144531 77.953125 51.746094 78 C 52.347656 78.042969 51.070312 78.101562 50.734375 78.488281 L 49.703125 78.878906 Z M 49.6875 78.976562 " fill-opacity="1" fill-rule="nonzero"/><path fill="rgb(92.549133%, 40.779114%, 24.708557%)" d="M 47.960938 80.507812 C 47.960938 80.507812 49.929688 79.824219 49.632812 79.421875 C 49.632812 79.421875 50.265625 80.105469 47.960938 80.507812 Z M 47.960938 80.507812 " fill-opacity="1" fill-rule="nonzero"/><path fill="rgb(92.549133%, 40.779114%, 24.708557%)" d="M 48.308594 80.546875 C 48.308594 80.546875 49.242188 80.839844 49.9375 80.566406 Z M 48.308594 80.546875 " fill-opacity="1" fill-rule="nonzero"/><path fill="rgb(90.979004%, 30.589294%, 5.879211%)" d="M 49.007812 80.46875 C 49.007812 80.46875 49.714844 80.347656 50.039062 79.753906 C 50.039062 79.746094 49.789062 80.523438 49.007812 80.46875 Z M 49.007812 80.46875 " fill-opacity="1" fill-rule="nonzero"/><path fill="rgb(92.549133%, 40.779114%, 24.708557%)" d="M 57.960938 71.410156 C 57.960938 71.410156 57.691406 72.621094 58.417969 73.207031 C 58.125 72.644531 57.972656 72.042969 57.960938 71.410156 " fill-opacity="1" fill-rule="nonzero"/><path fill="rgb(92.549133%, 40.779114%, 24.708557%)" d="M 57.691406 71.6875 C 57.691406 71.6875 57.386719 72.441406 56.683594 72.5625 C 56.683594 72.5625 57.789062 72.628906 57.691406 71.6875 " fill-opacity="1" fill-rule="nonzero"/><path fill="rgb(92.549133%, 40.779114%, 24.708557%)" d="M 59.0625 73.164062 C 59.0625 73.164062 58.789062 74.199219 59.109375 74.476562 C 59.109375 74.476562 58.363281 74.035156 59.0625 73.164062 Z M 59.0625 73.164062 " fill-opacity="1" fill-rule="nonzero"/><path fill="rgb(92.549133%, 40.779114%, 24.708557%)" d="M 55.9375 73.125 C 55.539062 73.578125 55.355469 74.105469 55.378906 74.710938 C 55.378906 74.710938 55.703125 73.328125 55.9375 73.125 Z M 55.9375 73.125 " fill-opacity="1" fill-rule="nonzero"/><path fill="rgb(90.979004%, 30.589294%, 5.879211%)" d="M 54.683594 74.378906 C 54.683594 74.378906 55.148438 74.957031 55.503906 74.996094 C 55.503906 74.996094 54.925781 75.140625 54.683594 74.378906 Z M 54.683594 74.378906 " fill-opacity="1" fill-rule="nonzero"/><path fill="rgb(90.979004%, 30.589294%, 5.879211%)" d="M 56 72.605469 C 56 72.605469 55.820312 73.230469 55.992188 73.492188 C 56.164062 73.753906 56.046875 73.378906 56 72.605469 Z M 56 72.605469 " fill-opacity="1" fill-rule="nonzero"/><path fill="rgb(90.979004%, 30.589294%, 5.879211%)" d="M 50.382812 77.007812 C 50.382812 77.007812 51.949219 77.164062 52.371094 77.875 C 52.371094 77.875 51.902344 77.328125 50.382812 77.007812 Z M 50.382812 77.007812 " fill-opacity="1" fill-rule="nonzero"/><path fill="rgb(92.549133%, 40.779114%, 24.708557%)" d="M 57.140625 78.089844 C 57.140625 78.089844 58.03125 77.125 54.535156 75.394531 C 54.535156 75.394531 57.851562 76.027344 57.140625 78.089844 Z M 57.140625 78.089844 " fill-opacity="1" fill-rule="nonzero"/><path fill="rgb(92.549133%, 40.779114%, 24.708557%)" d="M 48.136719 76.105469 C 48.136719 76.105469 49.71875 76.234375 49.75 76.425781 C 49.75 76.425781 49.476562 75.960938 48.136719 76.105469 Z M 48.136719 76.105469 " fill-opacity="1" fill-rule="nonzero"/><path fill="rgb(93.728638%, 89.019775%, 0%)" d="M 106.816406 45.257812 L 106.035156 42.136719 L 107.449219 42.640625 L 108.355469 41.863281 C 108.355469 41.863281 109.394531 43.214844 108.449219 45.457031 C 108.449219 45.457031 110.386719 47.925781 109.492188 50.222656 C 109.492188 50.222656 109.277344 52.914062 110.722656 54.488281 L 115.507812 58.535156 C 115.507812 58.535156 117.203125 60.121094 115.003906 59.949219 C 113.550781 59.789062 112.183594 59.367188 110.894531 58.679688 C 110.894531 58.679688 108.050781 56.574219 106.804688 55.792969 C 106.804688 55.792969 105.882812 54.519531 105.839844 51.621094 C 105.839844 51.621094 104.722656 53.613281 103.402344 54.09375 C 103.402344 54.09375 102.453125 54.894531 101.320312 54.53125 L 99.441406 53.976562 L 97.160156 52.980469 C 97.160156 52.980469 93.226562 50.714844 97.671875 51.566406 L 100.019531 51.953125 L 101.507812 51.488281 L 101.808594 51.351562 L 102.402344 51.082031 L 102.847656 50.558594 L 103.863281 49.480469 L 104.347656 47.90625 C 104.347656 47.90625 105.445312 45.875 106.816406 45.257812 Z M 106.816406 45.257812 " fill-opacity="1" fill-rule="nonzero"/><path fill="rgb(52.938843%, 35.289001%, 7.449341%)" d="M 105.960938 41.90625 L 107.375 42.410156 L 108.285156 41.632812 L 107.140625 40.886719 Z M 105.960938 41.90625 " fill-opacity="1" fill-rule="nonzero"/><path fill="rgb(52.938843%, 35.289001%, 7.449341%)" d="M 106.8125 45.257812 L 108.449219 45.460938 C 108.449219 45.460938 108.757812 44.738281 108.800781 44.257812 C 108.800781 44.257812 108.917969 43.277344 108.785156 42.941406 C 108.785156 42.941406 108.5625 41.992188 108.359375 41.867188 L 107.449219 42.644531 L 106.035156 42.140625 Z M 106.8125 45.257812 " fill-opacity="1" fill-rule="nonzero"/><path fill="rgb(93.728638%, 89.019775%, 0%)" d="M 98.285156 49.332031 C 98.285156 49.332031 97.382812 47.074219 99.523438 48.25 C 99.523438 48.25 99.894531 48.683594 101.417969 49.488281 C 101.417969 49.488281 102.136719 50.035156 103.765625 49.859375 C 103.765625 49.859375 102.914062 51.542969 101.839844 51.59375 C 100.761719 51.644531 98.789062 50.726562 98.285156 49.332031 Z M 98.285156 49.332031 " fill-opacity="1" fill-rule="nonzero"/><path fill="rgb(93.728638%, 89.019775%, 0%)" d="M 112.996094 53.335938 C 112.996094 53.335938 118.386719 55.476562 113.1875 55.601562 C 112.191406 55.550781 111.292969 55.234375 110.488281 54.644531 L 109.738281 53.964844 C 109.738281 53.964844 108.734375 51.144531 109.28125 50.957031 C 109.28125 50.957031 109.824219 52.25 112.996094 53.335938 Z M 112.996094 53.335938 " fill-opacity="1" fill-rule="nonzero"/><path fill="rgb(99.21875%, 96.859741%, 78.819275%)" d="M 140.371094 82.121094 C 140.371094 82.121094 137.285156 76.546875 142.320312 70.765625 L 146.035156 70.949219 C 146.035156 70.949219 141.363281 76.582031 143.351562 82.121094 Z M 140.371094 82.121094 " fill-opacity="1" fill-rule="nonzero"/><path fill="rgb(74.508667%, 73.728943%, 74.119568%)" d="M 124.898438 82.332031 L 125.933594 80.832031 L 127.230469 79.628906 L 126.726562 77.824219 L 127.996094 76.003906 L 130.671875 74.957031 L 131.304688 74.667969 L 134.5625 73.148438 L 137.078125 73.367188 L 140.058594 76.488281 L 139.4375 78.621094 L 137.101562 81.429688 L 130.75 83.957031 L 127.773438 84.808594 L 125.574219 84.6875 Z M 124.898438 82.332031 " fill-opacity="0.3882" fill-rule="nonzero"/><path fill="rgb(66.668701%, 65.879822%, 65.879822%)" d="M 130.136719 78.183594 L 132.550781 76.039062 L 135.121094 75.730469 L 137.078125 73.367188 L 134.5625 73.148438 L 127.996094 76.003906 L 126.726562 77.824219 Z M 130.136719 78.183594 " fill-opacity="1" fill-rule="nonzero"/><path fill="rgb(69.018555%, 68.238831%, 68.238831%)" d="M 130.898438 81.226562 L 130.136719 78.183594 L 126.726562 77.824219 L 127.230469 79.628906 Z M 130.898438 81.226562 " fill-opacity="1" fill-rule="nonzero"/><path fill="rgb(65.098572%, 64.709473%, 64.709473%)" d="M 128.386719 82.613281 L 130.898438 81.226562 L 127.230469 79.628906 L 125.933594 80.832031 L 124.898438 82.332031 L 125.867188 83.292969 Z M 128.386719 82.613281 " fill-opacity="1" fill-rule="nonzero"/><path fill="rgb(63.139343%, 62.748718%, 62.348938%)" d="M 125.695312 84.695312 L 125.867188 83.292969 L 127.773438 84.808594 Z M 125.695312 84.695312 " fill-opacity="1" fill-rule="nonzero"/><path fill="rgb(61.569214%, 61.569214%, 61.178589%)" d="M 125.667969 83.09375 L 124.898438 82.332031 L 125.695312 84.695312 L 125.867188 83.292969 Z M 125.667969 83.09375 " fill-opacity="1" fill-rule="nonzero"/><path fill="rgb(61.569214%, 61.569214%, 61.178589%)" d="M 128.097656 82.691406 L 128.386719 82.613281 L 127.773438 84.808594 L 125.867188 83.292969 Z M 128.097656 82.691406 " fill-opacity="1" fill-rule="nonzero"/><path fill="rgb(67.83905%, 67.449951%, 67.449951%)" d="M 130.863281 81.875 L 130.898438 81.226562 L 128.386719 82.613281 L 127.773438 84.808594 L 130.75 83.957031 Z M 130.863281 81.875 " fill-opacity="1" fill-rule="nonzero"/><path fill="rgb(61.569214%, 61.569214%, 61.178589%)" d="M 131.507812 76.964844 L 132.550781 76.039062 L 130.488281 79.589844 L 130.136719 78.183594 Z M 131.507812 76.964844 " fill-opacity="1" fill-rule="nonzero"/><path fill="rgb(61.569214%, 61.569214%, 61.178589%)" d="M 133.78125 80.902344 L 130.488281 79.589844 L 130.898438 81.226562 L 130.75 83.957031 Z M 133.78125 80.902344 " fill-opacity="1" fill-rule="nonzero"/><path fill="rgb(66.668701%, 65.879822%, 65.879822%)" d="M 132.617188 76.492188 L 132.550781 76.039062 L 130.488281 79.589844 L 133.78125 80.902344 Z M 132.617188 76.492188 " fill-opacity="1" fill-rule="nonzero"/><path fill="rgb(71.759033%, 70.979309%, 70.979309%)" d="M 134.675781 78.621094 L 135.121094 75.730469 L 132.550781 76.039062 Z M 134.675781 78.621094 " fill-opacity="1" fill-rule="nonzero"/><path fill="rgb(69.018555%, 68.238831%, 68.238831%)" d="M 137.742188 77.535156 L 135.121094 75.730469 L 134.675781 78.621094 L 137.101562 81.429688 Z M 137.742188 77.535156 " fill-opacity="1" fill-rule="nonzero"/><path fill="rgb(69.40918%, 68.629456%, 68.629456%)" d="M 138.199219 77.839844 L 137.742188 77.535156 L 137.101562 81.429688 L 139.4375 78.621094 Z M 138.199219 77.839844 " fill-opacity="1" fill-rule="nonzero"/><path fill="rgb(61.569214%, 61.569214%, 61.178589%)" d="M 139.597656 78.074219 L 140.058594 76.488281 L 137.078125 73.367188 L 135.121094 75.730469 L 139.4375 78.621094 Z M 139.597656 78.074219 " fill-opacity="1" fill-rule="nonzero"/><path fill="rgb(61.959839%, 61.569214%, 61.569214%)" d="M 135.128906 81.136719 L 137.101562 81.429688 L 132.550781 76.039062 L 133.78125 80.902344 Z M 135.128906 81.136719 " fill-opacity="1" fill-rule="nonzero"/><path fill="rgb(71.369934%, 70.588684%, 70.588684%)" d="M 133.4375 82.738281 L 133.734375 82.769531 L 130.75 83.957031 L 132.089844 82.605469 Z M 133.4375 82.738281 " fill-opacity="1" fill-rule="nonzero"/><path fill="rgb(61.569214%, 61.178589%, 61.178589%)" d="M 133.726562 80.960938 L 133.78125 80.902344 L 137.101562 81.429688 L 133.734375 82.769531 L 132.089844 82.605469 Z M 133.726562 80.960938 " fill-opacity="1" fill-rule="nonzero"/><path fill="rgb(98.429871%, 94.898987%, 63.529968%)" d="M 65.644531 53.484375 L 65.746094 55.328125 L 65.804688 56.324219 L 65.742188 57.015625 L 65.519531 57.351562 L 65.714844 57.335938 L 65.667969 57.871094 L 65.453125 58.191406 L 65.632812 58.460938 L 65.179688 59.300781 L 65.542969 59.550781 L 65.460938 60.234375 L 64.648438 61.082031 L 65.3125 61.929688 L 64.796875 65.054688 L 57.328125 65.566406 L 56.847656 63.152344 L 56.765625 62.746094 C 56.765625 62.746094 56.976562 62.644531 56.933594 62.609375 L 56.699219 62.40625 L 56.644531 62.140625 L 56.796875 61.613281 L 56.515625 61.257812 L 56.707031 60.625 L 56.359375 60.1875 L 56.804688 58.957031 L 55.960938 57.464844 L 55.558594 54.75 L 56.320312 54.132812 Z M 65.644531 53.484375 " fill-opacity="1" fill-rule="nonzero"/><path fill="rgb(11.369324%, 11.369324%, 10.5896%)" d="M 55.671875 55.183594 L 54.027344 55.328125 L 54.191406 54.480469 L 55.257812 54.292969 L 55.429688 53.355469 L 65.121094 52.195312 L 65.570312 53.058594 L 66.472656 52.949219 L 66.910156 53.734375 L 65.839844 53.863281 Z M 55.671875 55.183594 " fill-opacity="1" fill-rule="nonzero"/><path fill="rgb(85.879517%, 68.629456%, 47.44873%)" d="M 56.730469 59.148438 L 65.636719 58.460938 L 65.183594 59.300781 L 65.546875 59.550781 L 65.464844 60.234375 L 64.648438 61.082031 L 56.699219 61.929688 L 56.792969 61.601562 L 56.511719 61.246094 L 56.644531 60.539062 L 56.355469 60.175781 Z M 56.730469 59.148438 " fill-opacity="1" fill-rule="nonzero"/><path fill="rgb(90.19928%, 13.729858%, 27.839661%)" d="M 71.882812 104.082031 L 114.324219 104.082031 C 114.617188 104.082031 114.894531 104.136719 115.164062 104.25 C 115.433594 104.359375 115.667969 104.515625 115.875 104.722656 C 116.082031 104.925781 116.238281 105.164062 116.351562 105.429688 C 116.460938 105.699219 116.515625 105.976562 116.515625 106.265625 L 116.515625 116.558594 C 116.515625 116.847656 116.460938 117.128906 116.351562 117.394531 C 116.238281 117.664062 116.082031 117.898438 115.875 118.105469 C 115.667969 118.308594 115.433594 118.46875 115.164062 118.578125 C 114.894531 118.6875 114.617188 118.746094 114.324219 118.746094 L 71.882812 118.746094 C 71.59375 118.746094 71.3125 118.6875 71.042969 118.578125 C 70.777344 118.46875 70.539062 118.308594 70.332031 118.105469 C 70.128906 117.898438 69.96875 117.664062 69.859375 117.394531 C 69.746094 117.128906 69.691406 116.847656 69.691406 116.558594 L 69.691406 106.265625 C 69.691406 105.976562 69.746094 105.699219 69.859375 105.429688 C 69.96875 105.164062 70.128906 104.925781 70.332031 104.722656 C 70.539062 104.515625 70.777344 104.359375 71.042969 104.25 C 71.3125 104.136719 71.59375 104.082031 71.882812 104.082031 Z M 71.882812 104.082031 " fill-opacity="1" fill-rule="nonzero"/><path fill="rgb(95.289612%, 90.19928%, 0%)" d="M 88.09375 111.246094 C 88.09375 112.394531 87.171875 113.113281 85.722656 113.113281 L 84.972656 113.113281 L 84.972656 114.335938 L 83.21875 114.335938 L 83.21875 109.382812 L 85.722656 109.382812 C 87.171875 109.382812 88.09375 110.101562 88.09375 111.246094 Z M 86.324219 111.246094 C 86.324219 110.886719 86.097656 110.667969 85.609375 110.667969 L 84.96875 110.667969 L 84.96875 111.828125 L 85.609375 111.828125 C 86.097656 111.828125 86.324219 111.609375 86.324219 111.246094 Z M 86.324219 111.246094 " fill-opacity="1" fill-rule="nonzero"/><path fill="rgb(95.289612%, 90.19928%, 0%)" d="M 88.664062 109.382812 L 90.417969 109.382812 L 90.417969 113.039062 L 92.761719 113.039062 L 92.761719 114.335938 L 88.664062 114.335938 Z M 88.664062 109.382812 " fill-opacity="1" fill-rule="nonzero"/><path fill="rgb(95.289612%, 90.19928%, 0%)" d="M 96.867188 113.46875 L 94.890625 113.46875 L 94.539062 114.335938 L 92.761719 114.335938 L 95.035156 109.382812 L 96.753906 109.382812 L 99.027344 114.335938 L 97.214844 114.335938 Z M 96.382812 112.265625 L 95.878906 111.019531 L 95.371094 112.265625 Z M 96.382812 112.265625 " fill-opacity="1" fill-rule="nonzero"/><path fill="rgb(95.289612%, 90.19928%, 0%)" d="M 102.066406 112.535156 L 102.066406 114.335938 L 100.3125 114.335938 L 100.3125 112.515625 L 98.351562 109.382812 L 100.199219 109.382812 L 101.261719 111.09375 L 102.332031 109.382812 L 104.027344 109.382812 Z M 102.066406 112.535156 " fill-opacity="1" fill-rule="nonzero"/><g clip-path="url(#id6)"><path fill="rgb(63.529968%, 62.748718%, 62.748718%)" d="M 191.046875 129.59375 C 190.800781 128.761719 143.183594 130.199219 141.925781 130.199219 C 141.1875 130.199219 141.75 66.695312 141.75 66.695312 L 191.046875 66.695312 Z M 191.046875 129.59375 " fill-opacity="1" fill-rule="nonzero"/></g><path fill="rgb(71.759033%, 71.759033%, 71.369934%)" d="M 145.667969 70.015625 L 146.347656 127.304688 L 153.027344 127.304688 L 152.074219 70.015625 Z M 145.667969 70.015625 " fill-opacity="1" fill-rule="nonzero"/><path fill="rgb(71.759033%, 71.759033%, 71.369934%)" d="M 157.507812 69.800781 L 158.183594 127.085938 L 164.863281 127.085938 L 163.910156 69.800781 Z M 157.507812 69.800781 " fill-opacity="1" fill-rule="nonzero"/><path fill="rgb(71.759033%, 71.759033%, 71.369934%)" d="M 168.628906 69.800781 L 169.304688 127.085938 L 175.984375 127.085938 L 175.03125 69.800781 Z M 168.628906 69.800781 " fill-opacity="1" fill-rule="nonzero"/><path fill="rgb(71.759033%, 71.759033%, 71.369934%)" d="M 179.664062 69.800781 L 180.34375 127.085938 L 187.023438 127.085938 L 186.066406 69.800781 Z M 179.664062 69.800781 " fill-opacity="1" fill-rule="nonzero"/><path fill="rgb(52.938843%, 52.938843%, 52.938843%)" d="M 166.296875 56.125 C 148.933594 56.125 141.648438 66.691406 141.648438 66.691406 L 190.949219 66.691406 C 190.949219 66.691406 183.65625 56.125 166.296875 56.125 Z M 166.296875 56.125 " fill-opacity="1" fill-rule="nonzero"/><g clip-path="url(#id7)"><path fill="rgb(38.42926%, 38.42926%, 38.42926%)" d="M 155.726562 59.554688 L 159.289062 59.554688 C 159.484375 58.761719 165.929688 46.519531 172.949219 59.554688 L 176.316406 59.554688 C 176.316406 59.554688 173.214844 52.457031 168.691406 51.222656 C 167.992188 51.03125 167.28125 50.757812 166.464844 50.757812 C 166.464844 50.761719 159.996094 49.84375 155.726562 59.554688 Z M 155.726562 59.554688 " fill-opacity="1" fill-rule="nonzero"/></g><g clip-path="url(#id8)"><path fill="rgb(63.529968%, 62.748718%, 62.748718%)" d="M 190.949219 101.144531 L 205.511719 79.363281 L 212.023438 77.1875 C 212.023438 77.1875 215.144531 74.664062 211.328125 74.769531 L 206.804688 76.097656 L 208.496094 72.433594 C 208.496094 72.433594 209.558594 68.929688 207.523438 70.113281 C 207.234375 70.28125 206.472656 71.179688 206.0625 71.535156 L 203.6875 75.722656 L 202.757812 72.253906 C 202.5625 71.691406 202.339844 71.140625 202.085938 70.601562 C 202.011719 70.441406 201.914062 70.292969 201.792969 70.164062 C 201.710938 70.078125 201.613281 70.011719 201.503906 69.96875 C 201.074219 69.792969 200.226562 69.667969 199.804688 70.292969 C 199.644531 70.777344 199.613281 71.269531 199.707031 71.773438 C 200.050781 73.667969 200.980469 76.742188 200.980469 76.742188 L 190.949219 92.617188 Z M 190.949219 101.144531 " fill-opacity="1" fill-rule="nonzero"/></g><g clip-path="url(#id9)"><path fill="rgb(63.529968%, 62.748718%, 62.748718%)" d="M 141.820312 93.984375 L 134.902344 102.527344 L 141.542969 109.011719 L 141.722656 115.011719 L 128.808594 102.527344 L 141.777344 86.484375 Z M 141.820312 93.984375 " fill-opacity="1" fill-rule="nonzero"/></g><path fill="rgb(100%, 100%, 100%)" d="M 180.457031 85.484375 C 180.457031 86.019531 180.40625 86.554688 180.300781 87.082031 C 180.199219 87.609375 180.042969 88.121094 179.835938 88.617188 C 179.632812 89.113281 179.382812 89.585938 179.085938 90.035156 C 178.785156 90.480469 178.449219 90.894531 178.070312 91.273438 C 177.691406 91.65625 177.28125 91.992188 176.835938 92.292969 C 176.390625 92.589844 175.921875 92.84375 175.425781 93.050781 C 174.929688 93.253906 174.421875 93.410156 173.894531 93.515625 C 173.371094 93.621094 172.839844 93.671875 172.304688 93.671875 C 171.769531 93.671875 171.238281 93.621094 170.714844 93.515625 C 170.191406 93.410156 169.679688 93.253906 169.1875 93.050781 C 168.691406 92.84375 168.222656 92.589844 167.777344 92.292969 C 167.332031 91.992188 166.917969 91.65625 166.539062 91.273438 C 166.164062 90.894531 165.824219 90.480469 165.527344 90.035156 C 165.230469 89.585938 164.976562 89.113281 164.773438 88.617188 C 164.570312 88.121094 164.414062 87.609375 164.308594 87.082031 C 164.203125 86.554688 164.152344 86.019531 164.152344 85.484375 C 164.152344 84.945312 164.203125 84.414062 164.308594 83.886719 C 164.414062 83.359375 164.570312 82.847656 164.773438 82.351562 C 164.976562 81.851562 165.230469 81.382812 165.527344 80.933594 C 165.824219 80.488281 166.164062 80.074219 166.539062 79.691406 C 166.917969 79.3125 167.332031 78.972656 167.777344 78.675781 C 168.222656 78.375 168.691406 78.125 169.1875 77.917969 C 169.679688 77.710938 170.191406 77.554688 170.714844 77.453125 C 171.238281 77.347656 171.769531 77.292969 172.304688 77.292969 C 172.839844 77.292969 173.371094 77.347656 173.894531 77.453125 C 174.421875 77.554688 174.929688 77.710938 175.425781 77.917969 C 175.921875 78.125 176.390625 78.375 176.835938 78.675781 C 177.28125 78.972656 177.691406 79.3125 178.070312 79.691406 C 178.449219 80.074219 178.785156 80.488281 179.085938 80.933594 C 179.382812 81.382812 179.632812 81.851562 179.835938 82.351562 C 180.042969 82.847656 180.199219 83.359375 180.300781 83.886719 C 180.40625 84.414062 180.457031 84.945312 180.457031 85.484375 Z M 180.457031 85.484375 " fill-opacity="1" fill-rule="nonzero"/><path fill="rgb(0%, 0%, 0%)" d="M 174.785156 85.484375 C 174.785156 85.8125 174.722656 86.132812 174.597656 86.4375 C 174.472656 86.742188 174.292969 87.011719 174.058594 87.246094 C 173.828125 87.480469 173.558594 87.660156 173.253906 87.785156 C 172.949219 87.910156 172.632812 87.976562 172.304688 87.976562 C 171.976562 87.976562 171.660156 87.910156 171.355469 87.785156 C 171.050781 87.660156 170.785156 87.480469 170.550781 87.246094 C 170.320312 87.011719 170.140625 86.742188 170.015625 86.4375 C 169.886719 86.132812 169.824219 85.8125 169.824219 85.484375 C 169.824219 85.152344 169.886719 84.835938 170.015625 84.53125 C 170.140625 84.226562 170.320312 83.957031 170.550781 83.722656 C 170.785156 83.488281 171.050781 83.308594 171.355469 83.183594 C 171.660156 83.054688 171.976562 82.992188 172.304688 82.992188 C 172.632812 82.992188 172.949219 83.054688 173.253906 83.183594 C 173.558594 83.308594 173.828125 83.488281 174.058594 83.722656 C 174.292969 83.957031 174.472656 84.226562 174.597656 84.53125 C 174.722656 84.835938 174.785156 85.152344 174.785156 85.484375 Z M 174.785156 85.484375 " fill-opacity="1" fill-rule="nonzero"/><path fill="rgb(34.118652%, 34.118652%, 34.118652%)" d="M 163.417969 89.457031 L 175.515625 94.523438 C 175.738281 94.617188 175.933594 94.75 176.101562 94.921875 C 176.273438 95.089844 176.402344 95.289062 176.496094 95.511719 C 176.585938 95.734375 176.632812 95.96875 176.632812 96.210938 C 176.632812 96.453125 176.585938 96.683594 176.492188 96.90625 C 176.398438 97.128906 176.269531 97.328125 176.097656 97.5 C 175.925781 97.667969 175.730469 97.800781 175.507812 97.890625 C 175.285156 97.984375 175.054688 98.03125 174.8125 98.027344 C 174.570312 98.027344 174.339844 97.980469 174.117188 97.890625 L 162.019531 92.824219 C 161.800781 92.730469 161.601562 92.597656 161.433594 92.425781 C 161.261719 92.253906 161.132812 92.058594 161.042969 91.835938 C 160.949219 91.609375 160.902344 91.378906 160.90625 91.136719 C 160.90625 90.894531 160.953125 90.664062 161.042969 90.4375 C 161.136719 90.214844 161.269531 90.019531 161.4375 89.847656 C 161.609375 89.679688 161.804688 89.546875 162.027344 89.453125 C 162.25 89.363281 162.484375 89.316406 162.722656 89.316406 C 162.964844 89.316406 163.195312 89.363281 163.417969 89.457031 Z M 163.417969 89.457031 " fill-opacity="1" fill-rule="nonzero"/><path fill="rgb(100%, 100%, 100%)" d="M 166.078125 85.269531 C 166.078125 85.824219 166.023438 86.367188 165.917969 86.910156 C 165.808594 87.449219 165.652344 87.976562 165.441406 88.484375 C 165.230469 88.996094 164.972656 89.480469 164.667969 89.9375 C 164.363281 90.398438 164.015625 90.820312 163.628906 91.210938 C 163.238281 91.601562 162.816406 91.949219 162.359375 92.257812 C 161.902344 92.5625 161.421875 92.820312 160.914062 93.035156 C 160.40625 93.246094 159.882812 93.402344 159.34375 93.511719 C 158.804688 93.617188 158.261719 93.671875 157.710938 93.671875 C 157.164062 93.671875 156.621094 93.617188 156.082031 93.511719 C 155.542969 93.402344 155.019531 93.246094 154.511719 93.035156 C 154.003906 92.820312 153.523438 92.5625 153.066406 92.257812 C 152.609375 91.949219 152.1875 91.601562 151.796875 91.210938 C 151.410156 90.820312 151.0625 90.398438 150.757812 89.9375 C 150.453125 89.480469 150.195312 88.996094 149.984375 88.484375 C 149.773438 87.976562 149.617188 87.449219 149.507812 86.910156 C 149.402344 86.367188 149.347656 85.824219 149.347656 85.269531 C 149.347656 84.71875 149.402344 84.171875 149.507812 83.632812 C 149.617188 83.089844 149.773438 82.566406 149.984375 82.054688 C 150.195312 81.546875 150.453125 81.0625 150.757812 80.601562 C 151.0625 80.144531 151.410156 79.71875 151.796875 79.328125 C 152.1875 78.941406 152.609375 78.589844 153.066406 78.285156 C 153.523438 77.976562 154.003906 77.71875 154.511719 77.507812 C 155.019531 77.296875 155.542969 77.136719 156.082031 77.03125 C 156.621094 76.921875 157.164062 76.867188 157.710938 76.867188 C 158.261719 76.867188 158.804688 76.921875 159.34375 77.03125 C 159.882812 77.136719 160.40625 77.296875 160.914062 77.507812 C 161.421875 77.71875 161.902344 77.976562 162.359375 78.285156 C 162.816406 78.589844 163.238281 78.941406 163.628906 79.328125 C 164.015625 79.71875 164.363281 80.144531 164.667969 80.601562 C 164.972656 81.0625 165.230469 81.546875 165.441406 82.054688 C 165.652344 82.566406 165.808594 83.089844 165.917969 83.632812 C 166.023438 84.171875 166.078125 84.71875 166.078125 85.269531 Z M 166.078125 85.269531 " fill-opacity="1" fill-rule="nonzero"/><path fill="rgb(0%, 0%, 0%)" d="M 183.34375 74.859375 L 169.398438 68.308594 L 169.398438 72.890625 Z M 183.34375 74.859375 " fill-opacity="1" fill-rule="nonzero"/><path fill="rgb(0%, 0%, 0%)" d="M 148.695312 75.128906 L 162.867188 72.5 L 162.042969 68.039062 Z M 148.695312 75.128906 " fill-opacity="1" fill-rule="nonzero"/><path fill="rgb(0%, 0%, 0%)" d="M 160.191406 85.269531 C 160.191406 85.601562 160.128906 85.917969 160.003906 86.222656 C 159.878906 86.53125 159.699219 86.800781 159.464844 87.03125 C 159.234375 87.265625 158.964844 87.445312 158.660156 87.574219 C 158.359375 87.699219 158.042969 87.761719 157.710938 87.761719 C 157.382812 87.761719 157.066406 87.699219 156.761719 87.574219 C 156.460938 87.445312 156.191406 87.265625 155.957031 87.03125 C 155.726562 86.800781 155.546875 86.53125 155.421875 86.222656 C 155.296875 85.917969 155.230469 85.601562 155.230469 85.269531 C 155.230469 84.941406 155.296875 84.621094 155.421875 84.316406 C 155.546875 84.011719 155.726562 83.742188 155.957031 83.507812 C 156.191406 83.277344 156.460938 83.09375 156.761719 82.96875 C 157.066406 82.84375 157.382812 82.78125 157.710938 82.78125 C 158.042969 82.78125 158.359375 82.84375 158.660156 82.96875 C 158.964844 83.09375 159.234375 83.277344 159.464844 83.507812 C 159.699219 83.742188 159.878906 84.011719 160.003906 84.316406 C 160.128906 84.621094 160.191406 84.941406 160.191406 85.269531 Z M 160.191406 85.269531 " fill-opacity="1" fill-rule="nonzero"/><path fill="rgb(0.389099%, 0.389099%, 0.389099%)" d="M 152.3125 95.441406 C 152.3125 95.441406 155.789062 102.761719 170.058594 101.921875 C 168.957031 103.511719 167.578125 104.8125 165.929688 105.820312 C 164.28125 106.828125 162.5 107.460938 160.585938 107.71875 C 154.128906 108.578125 152.3125 95.441406 152.3125 95.441406 Z M 152.3125 95.441406 " fill-opacity="1" fill-rule="nonzero"/></svg>